<svg xmlns="http://www.w3.org/2000/svg" viewBox="0 0 1014 1014"><defs><style>.cls-1{fill:#1a1a1a;}.cls-2{fill:#0068ff;}.cls-3{fill:#fff;}</style></defs><title>food-court</title><g id="Layer_2" data-name="Layer 2"><g id="Layer_1-2" data-name="Layer 1"><rect class="cls-1" width="1014" height="1014"/><path class="cls-2" d="M512.75,467.8c-105.16,0-190.54,85.38-190.55,190.61S407,848.55,512.65,849.15c104.49.58,190.73-85.31,190.72-190C703.35,553.08,618.44,467.83,512.75,467.8Z"/><path class="cls-2" d="M197.11,383.12c-.58-6.89-1.53-13.75-2.37-20.61-.27-2.18-1.52-3.78-3.82-3.69-2.76.12-1.53,2.48-1.58,3.81-.62,15.33-1.12,30.66-1.65,46-.85,25.1-1.74,50.21-2.51,75.32-.07,2.55-.43,3.55-3.43,3.59-4,0-4.93-1.26-5-5.16-.81-38.19-1.85-76.39-2.83-114.58-.06-2.26-.13-4.52-.26-6.77-.09-1.57.34-3.43-2.37-3.35s-2.07,2.07-2.22,3.55c-.18,1.64-.14,3.3-.19,5-1.3,38.64-2.67,77.27-3.79,115.91-.11,4-1.88,4.54-4.86,4-3.13-.52-2-3.27-2-5q-2.12-59.53-4.1-119.07c-.06-1.64,1.06-4.27-2.31-4.32-3.55,0-2.15,2.74-2.21,4.26-.57,16.39-1,32.78-1.45,49.17-.64,24.21-1.38,48.42-1.78,72.63-.08,4.75-3.08,3.21-5.43,3.65-3.09.57-3-1.39-3-3.47-.12-5-.38-9.92-.54-14.88q-1.76-53.44-3.55-106.89c0-1.15.78-3.11-1.16-3.38a3.39,3.39,0,0,0-4,2.81c-.58,2.95-1.09,5.92-1.38,8.91-3.15,32.33-6.11,64.68-7.73,97.14-.85,17-1,34,2.27,50.81,2.35,12.1,8.27,21.87,19.36,27.27,8.36,4.06,11.34,10.1,10.74,18.76-.12,1.8,0,3.62,0,5.42-1,38.64-1,77.31-3.78,115.9-2.43,34-4.25,68.15-7,102.18-2.59,31.48-5.09,63-6.54,95.27-.28,10.84-.55,22.43.07,34,.44,8.1,1,16.26,4.22,23.86,4.09,9.61,11.72,15.22,21.86,15.72s17.74-4.82,22.73-13.65a32.49,32.49,0,0,0,3.42-10.68c3.28-19.6,2.23-39.31,1.3-59-1.72-36.36-5.25-72.6-7.79-108.91q-3.06-43.89-5.81-87.8C172,638.7,172,600.48,171.25,562.28c-.14-7.34,2.63-12.47,9.54-15.82,11.45-5.54,18-15.06,20.43-27.52A172.86,172.86,0,0,0,204,482.12C203.4,449,199.91,416.09,197.11,383.12Z"/><path class="cls-2" d="M512.66,367.69C352.27,367.58,222.05,498,222.07,658.15c0,160.77,130,291,290.45,291,160.1,0,290.3-129.73,291.12-288.62C804.45,501.35,676.5,367.8,512.66,367.69Zm0,504.58c-118.09.06-213.66-95.52-213.81-213.83-.14-117.91,95.74-213.86,213.83-214s214.09,95.93,214,214.22C726.63,776.81,631,872.2,512.7,872.27Z"/><path class="cls-2" d="M893,706.72c-.54-27.1.72-54.09,2.13-81.15,2.33-44.48.65-89-.47-133.54-1.26-45.26-2.6-90.51-3.7-135.77-.17-7-2.53-10.12-11.1-11.33-5.55-.78-10.36,1.23-14.3,5.23a71.09,71.09,0,0,0-13.49,20.13c-8.61,18.31-11,38-12.49,57.82a964.1,964.1,0,0,0-1.84,121.74c1.3,26,2.27,52,4.37,77.94.38,4.73,1,9.1,6.31,11.4,3,1.3,5,4.24,6.88,7a35.88,35.88,0,0,1,5.78,20.54c-.31,35.35-1.08,70.68-2.63,106-1.29,29.6-2.74,59.19-5.1,88.73-1.75,22-3.86,44.06-4.29,66.18-.16,8.57-.36,17.18,2.15,25.52,4.07,13.51,17.35,21.39,30.52,18.21,9.31-2.25,16.73-11.63,18.26-23.45,1.95-15,.65-30.06,0-45.07C897.25,837.5,894.29,772.14,893,706.72ZM870.8,928.22c0,4.2-.34,8.4-.53,12.61a11.69,11.69,0,0,1-1.51,5.59c-1.79,3-4,3-5.76,0s-2-6.84-2-10.48c0-26.31,1.31-52.59,2.31-78.87,1.83-47.91,4-95.8,6-143.71,0-.73.07-1.45.11-2.18l1.22-.14c0,9.43-.05,18.86,0,28.29C871,802.26,871.36,865.24,870.8,928.22Z"/><path class="cls-3" d="M392.6,38.44h42.51V55h-23.5v25.1h22.05V95.89H411.61v40.33h-19Z"/><path class="cls-3" d="M496.05,100.53c0,29.6-16.4,36.85-27.13,36.85-17,0-27.13-13.34-27.13-36.41,0-25.54,13.35-36.85,27.42-36.85C485.89,64.12,496.05,78.19,496.05,100.53Zm-35.4,0c0,12.19,1.88,22.34,8.7,22.34,6.1,0,7.69-11.89,7.69-22.34,0-9.72-1.59-22-8-22C462.1,78.48,460.65,90.81,460.65,100.53Z"/><path class="cls-3" d="M558.58,100.53c0,29.6-16.4,36.85-27.13,36.85-17,0-27.13-13.34-27.13-36.41,0-25.54,13.35-36.85,27.42-36.85C548.42,64.12,558.58,78.19,558.58,100.53Zm-35.4,0c0,12.19,1.88,22.34,8.7,22.34,6.1,0,7.69-11.89,7.69-22.34,0-9.72-1.59-22-8-22C524.63,78.48,523.18,90.81,523.18,100.53Z"/><path class="cls-3" d="M620.82,35.83v79.36c0,6.81.29,14.5.58,21H605l-1-8h-.29a17.26,17.26,0,0,1-14.8,9.14c-15.09,0-22-16.68-22-36.56,0-24.66,10.73-36.7,22.77-36.7,6.24,0,10.16,3,11.9,7.11h.29V35.83Zm-19,56.72c0-1.3,0-2.75-.14-4.2-.73-4.36-3-8.27-6.82-8.27-6.68,0-9.14,9.72-9.14,21.18,0,13.49,3.62,20.6,9,20.6,2.32,0,5.08-1.31,6.53-6.24a12,12,0,0,0,.58-4.35Z"/><path class="cls-3" d="M437.26,286.77c-3,1.57-7.75,2.58-13.77,2.58-18.92,0-32.4-15.2-32.4-48,0-38.13,18.93-50.32,34.12-50.32,5.88,0,10,1.15,12.05,2.44l-2.44,9.32a21,21,0,0,0-9.75-2c-10.32,0-22.36,10-22.36,39.57s10.89,39.28,22.65,39.28a24.07,24.07,0,0,0,10.18-2.15Z"/><path class="cls-3" d="M487.72,253.79c0,26.81-12.47,35.84-23.08,35.84-12.47,0-22.51-11.32-22.51-35.69,0-25.38,11.33-36,23.22-36C477.68,218,487.72,229.56,487.72,253.79Zm-34.55,0c0,11.47,2,27.1,12,27.1,9.46,0,11.33-16.35,11.33-27.1s-1.87-26.95-11.62-26.95S453.17,243.18,453.17,253.79Z"/><path class="cls-3" d="M541.62,269.56c0,7.74.43,13.76.58,18.93h-9.61l-.72-7.32h-.28c-2.15,3.44-7.46,8.46-14.91,8.46-12.19,0-16.92-9.46-16.92-26.66V219.1h11v42.29c0,10.9,1.72,18.92,9.32,18.92,6.45,0,9.32-6,9.89-9.17a28.62,28.62,0,0,0,.57-6.31V219.1h11Z"/><path class="cls-3" d="M557,237c0-5.88-.43-12.76-.57-17.92h9.89l.58,10.89h.28c2.3-6.59,8.17-12,14.63-12,.86,0,1.57.15,2.29.15v11.32a11.84,11.84,0,0,0-2.29-.14c-7,0-12.19,6.45-13.34,14.48a43.07,43.07,0,0,0-.43,6.31v38.42H557Z"/><path class="cls-3" d="M609.57,200.75V219.1h13.34v8.46H609.57V268.7c0,9,3.3,11.47,7.31,11.47a20.1,20.1,0,0,0,4.45-.43l.43,8.46a24.11,24.11,0,0,1-8.17,1.15c-4.3,0-8.17-1.15-10.9-4.16-2.72-3.16-4.16-7.89-4.16-17.49V227.56h-8.45V219.1h8.45V203.9Z"/></g></g></svg>