<svg xmlns="http://www.w3.org/2000/svg" viewBox="0 0 1014 1014"><defs><style>.cls-1{fill:#1a1a1a;}.cls-2{fill:#f9ff00;}.cls-3{fill:#828386;}.cls-4{fill:#fff;}</style></defs><title>inventory-management_1</title><g id="Layer_2" data-name="Layer 2"><g id="Layer_1-2" data-name="Layer 1"><rect class="cls-1" width="1014" height="1014"/><path class="cls-2" d="M497.05,713v243.8c-16.48-9.46-32-18.33-47.51-27.3Q365,880.55,280.47,831.71C274.7,828.39,272,825,272.06,818q.51-54.4,0-108.82c-.11-10.66,3.19-9.77,10.63-5.39,35.09,20.6,70.57,40.54,105.51,61.38,7.62,4.54,12.85,3.73,20-.53C437,747.41,466.19,730.82,497.05,713Z"/><path class="cls-2" d="M512.54,956V714.87c6.07.38,10.31,4,14.86,6.67,25.36,14.58,50.77,29.07,75.83,44.16,6.32,3.81,10.85,3.65,17.1,0,35.06-20.72,70.4-41,105.66-61.38,3.15-1.82,6.41-3.43,11.47-6.12v15.08c0,34.83-.08,69.67.06,104.5,0,5.47-.6,9.5-6.18,12.71Q624.47,891.92,517.85,953.87A47.51,47.51,0,0,1,512.54,956Z"/><path class="cls-3" d="M148.51,462.78c3.89.22,7.1-1.45,10.36-3.35Q271.27,394.2,383.65,328.92c5.86-3.42,10.13-3.63,16.06-.1,32.15,19.1,64.69,37.55,96.81,56.7,6.05,3.61,10.35,3.09,16.05-.27,31.9-18.79,64.06-37.15,96-55.89,5.49-3.22,9.81-4.5,16.08-.84q134.36,78.33,269,156.13c.93.54,1.75,1.28,4.34,3.21L779.32,557l113.5,66.14c-20.58,12.09-39.49,23.29-58.49,34.33C814.16,669.17,794,681,773.62,692.24c-6,3.34-8,7.35-7.93,14.08.29,41.87-.06,83.75.35,125.62.09,8.15-2.67,12.37-9.69,16.41Q635,918.13,514.12,988.72c-7,4.07-12,4-19-.08Q373.78,917.81,251.93,847.76c-6.51-3.74-8.29-7.94-8.23-15,.3-41.87-.07-83.75.35-125.62.07-7.75-2.66-11.83-9.14-15.5C198.5,671,162.31,650,126.07,629.06c-2.76-1.6-5.33-3.51-9.23-6.11L230,557.09c-10.9-6.36-20.27-11.85-29.66-17.32Q169.62,521.88,138.87,504c-3.17-1.83-6.7-5.88-10,0-.64-4.61-.34-9.51-6.91-10.72-3.08-.56-6.36-3.24-5.92-6.71.33-2.55,3.21-4.53,6-5.81C131.83,476.29,141.25,471.11,148.51,462.78ZM497.05,713c-30.86,17.86-60.07,34.45-88.89,51.68-7.14,4.26-12.37,5.07-20,.53-34.94-20.84-70.42-40.78-105.51-61.38-7.44-4.38-10.74-5.27-10.63,5.39q.59,54.41,0,108.82c-.06,7,2.64,10.39,8.41,13.71q84.69,48.62,169.07,97.75c15.49,9,31,17.84,47.51,27.3Zm15.49,243a47.51,47.51,0,0,0,5.31-2.08q106.73-61.75,213.49-123.42c5.58-3.21,6.2-7.24,6.18-12.71-.14-34.83-.06-69.67-.06-104.5V698.16c-5.06,2.69-8.32,4.3-11.47,6.12-35.26,20.39-70.6,40.66-105.66,61.38-6.25,3.69-10.78,3.85-17.1,0-25.06-15.09-50.47-29.58-75.83-44.16-4.55-2.62-8.79-6.29-14.86-6.67ZM496.41,696.52c-2.89-2.16-4.2-3.35-5.7-4.22Q384.54,630.74,278.39,569.16c-5.26-3.06-9.37-2.44-14.32.58-12.65,7.69-25.62,14.87-38.4,22.33-17.14,10-34.23,20.09-53.1,31.17l29.35,17Q294.64,694,387.37,747.74c5,2.88,9.44,6.75,16.21,2.74C433.83,732.58,464.33,715.11,496.41,696.52Zm21.81-282.08c3,2.06,4.15,3,5.41,3.7C592.8,458.21,662.11,498.06,731,538.57c9.24,5.43,16,6,24.68-.26s18.45-10.93,27.73-16.31c17-9.84,33.84-19.87,51-29.46,7-3.92,6.63-6.53-.18-10-5.61-2.83-10.91-6.27-16.35-9.42Q720.79,417,623.73,360.77c-3.25-1.89-6.29-4-10.24-1.68C582.2,377.3,550.88,395.47,518.22,414.44ZM167.54,487a38.8,38.8,0,0,0,4.16,3.46c29.7,17.36,59.49,34.57,89.08,52.13,5.4,3.2,8.92.55,13.08-1.87q61.93-35.92,123.9-71.77l93.45-54.16c-30.89-18-60.69-35-90.1-52.67-7.09-4.25-12.29-3.63-19.11.36-47.25,27.68-94.74,54.93-142.12,82.38C216,458.64,192.18,472.59,167.54,487ZM837.19,623.09c-33.24-19.21-64.53-37.27-95.79-55.41-4.47-2.59-7.8,0-11.25,2Q625.5,630.35,520.81,690.93c-8,4.62-6.26,6.69.37,10.47,27,15.39,54,30.84,80.55,46.88,7.41,4.47,13,4.12,20.22-.18,29.87-17.8,60.08-35,90.16-52.48Z"/><path class="cls-2" d="M496.41,696.52c-32.08,18.59-62.58,36.06-92.83,54-6.77,4-11.24.14-16.21-2.74q-92.74-53.68-185.45-107.46l-29.35-17c18.87-11.08,36-21.16,53.1-31.17,12.78-7.46,25.75-14.64,38.4-22.33,4.95-3,9.06-3.64,14.32-.58q106.08,61.7,212.32,123.14C492.21,693.17,493.52,694.36,496.41,696.52Z"/><path class="cls-2" d="M518.22,414.44c32.66-19,64-37.14,95.27-55.35,4-2.3,7-.21,10.24,1.68q97,56.22,194.12,112.37c5.44,3.15,10.74,6.59,16.35,9.42,6.81,3.45,7.18,6.06.18,10-17.11,9.59-34,19.62-51,29.46-9.28,5.38-19.07,10.06-27.73,16.31s-15.44,5.69-24.68.26c-68.91-40.51-138.22-80.36-207.39-120.43C522.37,417.41,521.22,416.5,518.22,414.44Z"/><path class="cls-2" d="M167.54,487c24.64-14.36,48.45-28.31,72.34-42.14,47.38-27.45,94.87-54.7,142.12-82.38,6.82-4,12-4.61,19.11-.36,29.41,17.66,59.21,34.69,90.1,52.67L397.76,468.9q-62,35.88-123.9,71.77c-4.16,2.42-7.68,5.07-13.08,1.87C231.19,525,201.4,507.77,171.7,490.41A38.8,38.8,0,0,1,167.54,487Z"/><path class="cls-2" d="M837.19,623.09,712.11,695.62C682,713.06,651.82,730.3,622,748.1c-7.23,4.3-12.81,4.65-20.22.18-26.6-16-53.56-31.49-80.55-46.88-6.63-3.78-8.41-5.85-.37-10.47Q625.63,630.55,730.15,569.7c3.45-2,6.78-4.61,11.25-2C772.66,585.82,804,603.88,837.19,623.09Z"/><path class="cls-4" d="M318.32,46.63v84.25H301.94V46.63Z"/><path class="cls-4" d="M331.44,88.13c0-6.75-.37-12.62-.5-18.37h14.13l.75,7h.25a17.53,17.53,0,0,1,14.87-8c11.63,0,16.25,9.25,16.25,22.87v39.25H360.82V92.63c0-5.25-1.25-10.12-6-10.12-2.75,0-5,1.87-6.13,5.5a16,16,0,0,0-.87,5.62v37.25H331.44Z"/><path class="cls-4" d="M399.69,69.76,404.32,97c.87,5.5,1.75,11,2.62,17.12h.25c.75-6.25,1.5-11.37,2.38-17.12l4.75-27.25h16.12l-16.37,61.12H398.94L382.32,69.76Z"/><path class="cls-4" d="M448.69,106.13c.25,9.5,5.75,13,13,13a36,36,0,0,0,11.62-2l2.25,11.75a50.53,50.53,0,0,1-16.87,2.75c-16.63,0-25.75-11-25.75-30.12,0-20.5,10.62-32.75,24.5-32.75,13.12,0,20.75,10.37,20.75,28.87a43.82,43.82,0,0,1-.5,8.5Zm14.62-11.5c0-7.87-2-14-6.87-14-5.38,0-7.5,7.88-7.63,14Z"/><path class="cls-4" d="M487.44,88.13c0-6.75-.38-12.62-.5-18.37h14.12l.75,7h.25a17.54,17.54,0,0,1,14.88-8c11.62,0,16.25,9.25,16.25,22.87v39.25H516.81V92.63c0-5.25-1.25-10.12-6-10.12-2.75,0-5,1.87-6.12,5.5a16,16,0,0,0-.88,5.62v37.25H487.44Z"/><path class="cls-4" d="M563.94,53.26v16.5h12V81.38h-12v27.88c0,7.12,3,8.87,6.25,8.87a22.5,22.5,0,0,0,4.25-.37l.12,12.75a38.8,38.8,0,0,1-10,1.12c-4.75,0-8.87-1.12-11.75-3.87-3.37-3.25-5.25-7.88-5.25-17.5V81.38h-7.25V69.76h7.25V57.13Z"/><path class="cls-4" d="M627.44,100.13c0,25.5-14.13,31.75-23.38,31.75-14.62,0-23.37-11.5-23.37-31.37,0-22,11.5-31.75,23.62-31.75C618.69,68.76,627.44,80.88,627.44,100.13Zm-30.5,0c0,10.5,1.62,19.25,7.5,19.25,5.25,0,6.62-10.25,6.62-19.25,0-8.37-1.37-19-6.87-19C598.19,81.13,596.94,91.76,596.94,100.13Z"/><path class="cls-4" d="M636.56,88.13c0-6.12-.25-12.75-.5-18.37h14.25l.88,8.87h.37c2.75-6.5,7.63-9.87,12.13-9.87a13.81,13.81,0,0,1,3.5.25V85.26a14.85,14.85,0,0,0-3.5-.25c-3.5,0-8.13,2.37-10,8.75a24.5,24.5,0,0,0-.63,6.12v31h-16.5Z"/><path class="cls-4" d="M688.68,69.76l6,31.75c.63,3.62,1.13,7,1.63,10.25h.25c.5-3.13,1-6.63,1.5-10l5.12-32h16l-12.5,47.12c-3,11.5-7,23.38-13.62,31.25a32.62,32.62,0,0,1-13.88,9.63l-5-14.13a24.64,24.64,0,0,0,8.13-5.12,22,22,0,0,0,5.12-7.25,6.49,6.49,0,0,0,.88-2.63,7.3,7.3,0,0,0-.5-2.25L671.06,69.76Z"/><path class="cls-4" d="M307.32,244.63c-.63-11.12-1.25-23.5-.88-33h-.5c-1.87,9.38-4.12,19.38-6.75,29.25l-10.37,39.5h-6.13l-9.87-37.87c-2.75-10.75-5.25-21.13-6.88-30.88h-.37c0,9.88-.5,21.63-1,33.63l-1.63,35.62h-8.62l5-84.25h10.37l9.88,38.5c2.87,11.13,5,19.38,6.75,29h.37c1.63-9.62,3.5-17.62,6.25-29l9.5-38.5h10.75l4.88,84.25h-9Z"/><path class="cls-4" d="M354.32,280.88l-.63-6.37h-.37c-2.63,4.62-6.88,7.37-12,7.37-8.13,0-14.38-6.87-14.38-17.25,0-15.12,12.13-21.87,25.75-22v-1.87c0-8.13-2-13.75-9.62-13.75a18.24,18.24,0,0,0-10,3.12l-2.13-6.75c2.5-1.87,8.13-4,14.13-4,12.12,0,17.37,8,17.37,21.63v26.12a95.07,95.07,0,0,0,.63,13.75Zm-1.38-31.25c-5,0-16.62.88-16.62,14,0,7.88,4,10.75,7.37,10.75,4.25,0,7.88-3.12,9-9.12a16,16,0,0,0,.25-3.38Z"/><path class="cls-4" d="M375.94,236c0-7.13-.37-10.75-.5-15.63h8.38l.5,7.25h.25a15.36,15.36,0,0,1,13.87-8.25c8.38,0,14.63,6.25,14.63,20.88v40.62h-9.63v-39c0-7.12-1.37-14.37-8.37-14.37-4,0-7.88,3.37-9.13,9.87a34.07,34.07,0,0,0-.37,5.38v38.12h-9.63Z"/><path class="cls-4" d="M450.44,280.88l-.62-6.37h-.38c-2.62,4.62-6.87,7.37-12,7.37-8.12,0-14.37-6.87-14.37-17.25,0-15.12,12.12-21.87,25.75-22v-1.87c0-8.13-2-13.75-9.63-13.75a18.27,18.27,0,0,0-10,3.12l-2.12-6.75c2.5-1.87,8.12-4,14.12-4,12.13,0,17.38,8,17.38,21.63v26.12a96.59,96.59,0,0,0,.62,13.75Zm-1.37-31.25c-5,0-16.63.88-16.63,14,0,7.88,4,10.75,7.38,10.75,4.25,0,7.87-3.12,9-9.12a16,16,0,0,0,.25-3.38Z"/><path class="cls-4" d="M509.07,220.38c-.13,4.25-.5,9.63-.5,18.88v33.87c0,15.88-2,21.88-6,26.25-3.63,4.13-9.38,6.5-16.13,6.5a28.86,28.86,0,0,1-13.25-3l2.25-7.5A24.81,24.81,0,0,0,486.69,298c7.63,0,12.38-4.75,12.38-18.5v-6.13h-.25a12.31,12.31,0,0,1-11.63,7.38c-10.75,0-17.75-12.13-17.75-29.88,0-22.25,10.13-31.5,19-31.5,6.5,0,9.5,4.25,11.25,7.88h.25l.5-6.88Zm-10,20.88a16.41,16.41,0,0,0-.5-4.38c-1.13-4.12-3.25-9.25-8.75-9.25-7,0-10.75,9.38-10.75,22.75,0,15.5,4.87,22.5,10.75,22.5,2.87,0,6.62-1.37,8.62-8.62a21.27,21.27,0,0,0,.63-5.5Z"/><path class="cls-4" d="M528.69,251.51c.12,18.5,7.37,22.5,14.37,22.5a20.25,20.25,0,0,0,10-2.38l1.5,7.13c-3.37,1.87-8.5,2.87-13.25,2.87-14.5,0-22-11.87-22-30.37,0-19.63,8.25-31.88,20.38-31.88,12.37,0,17.25,13,17.25,26.75,0,2.25,0,3.88-.13,5.38Zm19-7.13c.25-12.12-4.38-17.5-9-17.5-6.25,0-9.5,9.25-9.88,17.5Z"/><path class="cls-4" d="M567.31,236c0-7.13-.37-10.75-.5-15.63h8.38l.5,7.5h.25c2.62-4.87,7.25-8.5,13.62-8.5,5.63,0,10.38,2.75,12.63,9.25h.25a19.19,19.19,0,0,1,6-6.87,14.56,14.56,0,0,1,8.37-2.38c8.13,0,14.5,6,14.5,21.38v40.12h-9.5V243c0-7.88-1.12-15.5-8.5-15.5-4,0-7.5,3.37-8.87,9a36.72,36.72,0,0,0-.38,5.5v38.87h-9.5V241.26c0-6.75-1.25-13.75-8.37-13.75-3.88,0-7.88,3.37-9,9.75a34.46,34.46,0,0,0-.38,5.25v38.37h-9.5Z"/><path class="cls-4" d="M651.56,251.51c.13,18.5,7.38,22.5,14.38,22.5a20.31,20.31,0,0,0,10-2.38l1.5,7.13c-3.38,1.87-8.5,2.87-13.25,2.87-14.5,0-22-11.87-22-30.37,0-19.63,8.25-31.88,20.37-31.88,12.38,0,17.25,13,17.25,26.75,0,2.25,0,3.88-.12,5.38Zm19-7.13c.25-12.12-4.37-17.5-9-17.5-6.25,0-9.5,9.25-9.87,17.5Z"/><path class="cls-4" d="M690.19,236c0-7.13-.38-10.75-.5-15.63h8.37l.5,7.25h.25a15.37,15.37,0,0,1,13.88-8.25c8.37,0,14.62,6.25,14.62,20.88v40.62h-9.62v-39c0-7.12-1.38-14.37-8.38-14.37-4,0-7.87,3.37-9.12,9.87a34,34,0,0,0-.38,5.38v38.12h-9.62Z"/><path class="cls-4" d="M751.81,204.38v16h11.63v7.38H751.81v35.87c0,7.88,2.88,10,6.38,10a17.65,17.65,0,0,0,3.87-.37l.38,7.37a21,21,0,0,1-7.13,1c-3.75,0-7.12-1-9.5-3.62s-3.62-6.88-3.62-15.25v-35h-7.38v-7.38h7.38V207.13Z"/></g></g></svg>