<svg id="Layer_1" data-name="Layer 1" xmlns="http://www.w3.org/2000/svg" xmlns:xlink="http://www.w3.org/1999/xlink" viewBox="0 0 1066 1920"><defs><style>.cls-1{fill:url(#Degradado_sin_nombre_174);}.cls-2{fill:#659ad1;}.cls-3{fill:#fefefe;}.cls-4{fill:#004482;}.cls-5{fill:#01599c;}.cls-6{fill:#fff;}.cls-7{fill:#fed344;}.cls-8{fill:#3771a2;}.cls-9{fill:#d4b830;}.cls-10,.cls-11{fill:#ebebeb;opacity:0.99;isolation:isolate;}.cls-10{fill-opacity:0;}.cls-11{fill-opacity:0.92;}.cls-12{fill:#fdd83c;}</style><linearGradient id="Degradado_sin_nombre_174" x1="0.5" y1="960" x2="1065.5" y2="960" gradientUnits="userSpaceOnUse"><stop offset="0" stop-color="#34393f"/><stop offset="1" stop-color="#26272b"/></linearGradient></defs><title>languagesModal</title><rect class="cls-1" x="0.5" y="0.5" width="1065" height="1919"/><path d="M1065.81,1.1v1918H1.81V1.1h1064m1-1H.81v1920h1066Z" transform="translate(-0.81 -0.1)"/><path class="cls-2" d="M254.16,1374.11h9.52a2.76,2.76,0,0,0,.73.36,34.62,34.62,0,0,1,13.75,4.8q35.7,20.68,71.46,41.27,44.16,25.5,88.31,51a33,33,0,0,1,13.15,13.66l-48.77,28.22c-9.85,5.68-19.72,11.3-29.59,16.94a3.72,3.72,0,0,0-.85-1.93,124.54,124.54,0,0,0-24.82-30.05c-30.95-27-66.87-38.1-107.54-32.28-30.39,4.34-56,18.36-76.91,40.88a130.94,130.94,0,0,0-24.06,140.92c2,4.7,4.6,9.11,6.71,13.76-3.78,2.22-7.54,4.45-11.33,6.65q-33.28,19.26-66.57,38.48c-.44-.72-.91-1.43-1.31-2.17-2-3.66-2.92-7.69-3.9-11.66v-195.1c.72-.72.59-1.7.85-2.56,2.85-10.18,8.27-18.41,17.63-23.81q80.26-46.31,160.52-92.65a32.49,32.49,0,0,1,10.24-3.9C252.26,1374.66,253.35,1374.85,254.16,1374.11Z" transform="translate(-0.81 -0.1)"/><path class="cls-3" d="M145.25,1661.63c-2.12-4.65-4.69-9.07-6.72-13.76a131,131,0,0,1,24-141c20.89-22.51,46.53-36.53,76.91-40.88,40.66-5.82,76.59,5.26,107.54,32.28a124.5,124.5,0,0,1,24.82,30,3.67,3.67,0,0,1,.85,1.93l-55.32,32c-.54.32-1,.85-1.76.66.16-.74-.35-1.23-.69-1.71-11.95-18.33-28.75-29-50.52-30.73-22.46-1.81-41.27,6.35-55.86,23.59-17.67,20.86-20.08,52.18-6,74.92.16.31.3.64.49,1a65.59,65.59,0,0,0,90.12,22c.54-.32,1.07-.66,1.6-1a61.58,61.58,0,0,0,21-22c.81-.47,1.36.17,1.95.51q26.87,15.52,53.71,31.08c.54.31,1.24.48,1.48,1.17-.54.86-1.08,1.71-1.6,2.57-27.73,45.65-82.31,70.5-134.59,60.86-39.21-7.23-69.2-28.17-90.24-62C146.06,1662.61,145.63,1662.13,145.25,1661.63Z" transform="translate(-0.81 -0.1)"/><path class="cls-4" d="M145.25,1661.63c.38.51.81,1,1.14,1.53,21,33.84,51,54.81,90.24,62,52.29,9.64,106.86-15.21,134.59-60.87.52-.85,1.07-1.7,1.6-2.56,3.32,1.86,6.65,3.7,9.95,5.6q17.37,10,34.72,20.07,15.78,9.11,31.58,18.21c.67.39,1.4.78,1.58,1.71a33.28,33.28,0,0,1-12.94,13q-39.09,22.5-78.13,45.1-40.47,23.34-80.92,46.73a37.57,37.57,0,0,1-18.64,5.12,40.51,40.51,0,0,1-21.88-6q-78.78-45.69-157.73-91.1a33.59,33.59,0,0,1-13.09-13.39l66.57-38.48Q139.58,1664.95,145.25,1661.63Z" transform="translate(-0.81 -0.1)"/><path class="cls-5" d="M450.64,1707.31c-.18-.86-.92-1.28-1.58-1.71q-15.78-9.12-31.58-18.21-17.37-10-34.72-20.07c-3.31-1.9-6.63-3.74-9.95-5.6-.24-.7-.94-.85-1.48-1.18q-26.85-15.54-53.72-31.07c-.59-.34-1.14-1-1.95-.51a3.3,3.3,0,0,0-1.28-1.12q-18.5-10.63-37-21.34c-6-3.49-12-7-18-10.54.53-.36,1-.75,1.59-1.08l51.95-30c1-.55,2.17-.85,2.72-2,.74.18,1.22-.34,1.76-.66q27.67-16,55.32-32c9.87-5.65,19.74-11.26,29.59-17q24.4-14.05,48.77-28.21a32.75,32.75,0,0,1,5.07,15.61c.05.71,0,1.44,0,2.16v185.91A33.49,33.49,0,0,1,450.64,1707.31Zm-27.25-133.37c-1.93,0-3.89.07-5.83,0-1.23,0-1.6.34-1.58,1.58.07,3.67-.05,7.35.06,11,0,1.56-.29,2.15-2,2.08-3.67-.14-7.35,0-11-.07-1.21,0-1.64.34-1.62,1.59.06,3.75.1,7.49,0,11.23-.05,1.54.58,1.79,1.9,1.76,3.67-.07,7.35,0,11-.05,1.3,0,1.75.35,1.71,1.71-.09,3.67,0,7.34-.06,11-.05,1.47.29,2,1.86,2,3.67-.11,7.35-.1,11,0,1.39,0,1.86-.31,1.82-1.77-.1-3.67,0-7.35-.07-11-.05-1.57.49-1.92,2-1.88,3.67.1,7.35,0,11,.06,1.32,0,1.7-.39,1.7-1.71q-.12-5.51,0-11c0-1.37-.31-1.89-1.79-1.85-3.6.11-7.21-.07-10.8.08-1.8.07-2.15-.57-2.1-2.19.12-3.67,0-7.35.06-11,0-1.12-.28-1.53-1.44-1.47C427.29,1574,425.31,1573.94,423.39,1573.94Zm-62.05,6.76c0,2.3-.08,4.18,0,6,.09,1.42-.39,1.87-1.82,1.84-3.74-.1-7.5,0-11.24-.06-1.17,0-1.65.24-1.62,1.52.08,3.83.07,7.64,0,11.47,0,1.2.32,1.61,1.56,1.58,3.61-.07,7.21.06,10.81-.06,1.71-.06,2.41.35,2.33,2.22-.16,3.61,0,7.22-.07,10.82,0,1.14.2,1.66,1.51,1.64,3.82-.09,7.64-.11,11.46,0,1.45,0,1.63-.56,1.61-1.77-.07-3.6.05-7.21-.06-10.81,0-1.57.33-2.16,2-2.1,3.67.12,7.35,0,11,.06,1.2,0,1.64-.28,1.61-1.54-.07-3.82-.07-7.65,0-11.46,0-1.23-.37-1.59-1.58-1.57-3.75.06-7.5,0-11.24.06-1.46,0-1.86-.46-1.82-1.86.08-3.73,0-7.49.05-11.24,0-1.22-.34-1.64-1.57-1.58-1.95.1-3.89,0-5.84,0-2.29,0-5.37-.78-6.67.38C360.32,1575.65,361.56,1578.79,361.34,1580.7Z" transform="translate(-0.81 -0.1)"/><path class="cls-2" d="M315.64,1562.94c-.55,1.14-1.75,1.42-2.72,2q-26,15-52,30c-.55.33-1.06.72-1.58,1.08s-1.06.44-1.55.72q-23.82,13.73-47.62,27.49c-2.56,1.51-5.38,2.71-7.68,4.72-14.05-22.74-11.65-54.06,6-74.92,14.58-17.24,33.4-25.4,55.86-23.59,21.76,1.71,38.6,12.41,50.52,30.73C315.29,1561.71,315.79,1562.2,315.64,1562.94Z" transform="translate(-0.81 -0.1)"/><path class="cls-4" d="M202.55,1629c2.29-2,5.08-3.21,7.68-4.72q23.78-13.79,47.62-27.49c.48-.28,1-.47,1.54-.72,6,3.51,12,7,18.05,10.54q18.46,10.68,37,21.34a3.51,3.51,0,0,1,1.28,1.11,61.47,61.47,0,0,1-21,21.93,65.6,65.6,0,0,1-90.7-19.46l-1-1.58C202.85,1629.6,202.7,1629.27,202.55,1629Z" transform="translate(-0.81 -0.1)"/><path class="cls-3" d="M423.39,1573.94c1.95,0,3.9.07,5.84,0,1.16,0,1.46.36,1.44,1.48-.07,3.67.05,7.34-.06,11-.05,1.63.3,2.27,2.09,2.19,3.6-.15,7.21,0,10.81-.08,1.48,0,1.82.48,1.79,1.86q-.12,5.5,0,11c0,1.34-.39,1.71-1.71,1.71-3.67-.08-7.34,0-11-.06-1.47,0-2,.32-2,1.89.11,3.67,0,7.35.07,11,0,1.46-.44,1.8-1.82,1.76-3.67-.09-7.35-.11-11,0-1.57.06-1.91-.48-1.87-2,.11-3.67,0-7.35.06-11,0-1.34-.41-1.71-1.7-1.71-3.67.08-7.35,0-11,0-1.32,0-1.95-.22-1.91-1.75.12-3.74.08-7.49,0-11.24,0-1.24.42-1.6,1.63-1.58,3.67.06,7.35-.07,11,.06,1.7.07,2-.52,2-2.08-.11-3.67,0-7.35-.06-11,0-1.23.35-1.63,1.58-1.58C419.5,1574,421.46,1573.94,423.39,1573.94Z" transform="translate(-0.81 -0.1)"/><path class="cls-3" d="M361.34,1580.7c.22-1.91-1-5,.48-6.38,1.31-1.16,4.38-.35,6.68-.37,1.94,0,3.89.06,5.83,0,1.23-.06,1.6.36,1.57,1.58-.06,3.74,0,7.5,0,11.24,0,1.4.36,1.88,1.82,1.85,3.75-.1,7.49,0,11.24-.06,1.21,0,1.61.34,1.59,1.57q-.12,5.71,0,11.46c0,1.27-.42,1.57-1.61,1.55-3.67-.07-7.35.06-11-.07-1.71,0-2.07.54-2,2.1.12,3.6,0,7.21.06,10.81,0,1.22-.16,1.81-1.61,1.77-3.81-.1-7.68-.09-11.45,0-1.32,0-1.54-.49-1.51-1.64.06-3.6-.1-7.21.06-10.81.08-1.88-.59-2.28-2.33-2.22-3.6.12-7.2,0-10.8.06-1.25,0-1.58-.39-1.56-1.59.07-3.82.07-7.68,0-11.46,0-1.29.44-1.55,1.61-1.53,3.75.07,7.5,0,11.24.06,1.43,0,1.91-.42,1.83-1.84C361.3,1584.88,361.34,1583,361.34,1580.7Z" transform="translate(-0.81 -0.1)"/><path class="cls-6" d="M553.85,1361.69h6.45v46.15h-6.45Zm3.81,40.15h12.51c3.28,0,5.67-.62,7.17-1.88a6.45,6.45,0,0,0,2.25-5.26v-.1a9.19,9.19,0,0,0-.81-4,5.66,5.66,0,0,0-2.55-2.59,9.75,9.75,0,0,0-4.48-.9H557.66v-5.84h14.09a7.71,7.71,0,0,0,5.42-1.68,6.49,6.49,0,0,0,1.82-5,6.4,6.4,0,0,0-2-5.17q-2-1.71-6.09-1.71H557.66v-6H572a16.66,16.66,0,0,1,7.49,1.52,10.18,10.18,0,0,1,4.51,4.32,14,14,0,0,1,1.49,6.66,10.83,10.83,0,0,1-.92,4.46,9.23,9.23,0,0,1-2.81,3.56,10.46,10.46,0,0,1-4.68,2,10.14,10.14,0,0,1,7.93,5.9,11.9,11.9,0,0,1,1.08,5.08v.1a12.9,12.9,0,0,1-1.65,6.6,11.12,11.12,0,0,1-4.73,4.41,15.6,15.6,0,0,1-7.17,1.56H557.66Z" transform="translate(-0.81 -0.1)"/><path class="cls-6" d="M604.1,1408.31l-3.24-1.71a11.42,11.42,0,0,1-4.94-5,17.41,17.41,0,0,1-1.69-8v-3.76a19.49,19.49,0,0,1,1.63-8.35,11.81,11.81,0,0,1,4.74-5.27,14.82,14.82,0,0,1,7.49-1.8,12,12,0,0,1,7,2.06,12.75,12.75,0,0,1,4.46,6,25.32,25.32,0,0,1,1.54,9.36V1394H598.92v-5.21H615a11,11,0,0,0-2.08-6.27,5.83,5.83,0,0,0-4.81-2.23,7,7,0,0,0-5.69,2.41,10.46,10.46,0,0,0-2,6.82v4.19a8.56,8.56,0,0,0,2.16,6.28,8.2,8.2,0,0,0,6.13,2.19,10.07,10.07,0,0,0,3.9-.79,11.19,11.19,0,0,0,3.46-2.22l4.25,4.25a17.89,17.89,0,0,1-5.49,3.64,15.68,15.68,0,0,1-6.12,1.28Z" transform="translate(-0.81 -0.1)"/><path class="cls-6" d="M638.82,1408.31l-3.19-1.68a11.33,11.33,0,0,1-4.87-4.89,16.33,16.33,0,0,1-1.69-7.74v-5.43a16,16,0,0,1,1.69-7.65,11.27,11.27,0,0,1,4.87-4.84,16.37,16.37,0,0,1,7.69-1.66,18.41,18.41,0,0,1,4.84.61,14.89,14.89,0,0,1,4.08,1.8,11.15,11.15,0,0,1,3,2.85l-4.67,4.19a9.81,9.81,0,0,0-3.27-2.44,9.36,9.36,0,0,0-3.9-.86,7.79,7.79,0,0,0-5.81,2.1,8.09,8.09,0,0,0-2.06,5.9V1394a8.34,8.34,0,0,0,2.05,6,7.7,7.7,0,0,0,5.82,2.12,8.66,8.66,0,0,0,3.93-.92,9.51,9.51,0,0,0,3.24-2.6l4.67,4.51a11.62,11.62,0,0,1-3,2.81,14.21,14.21,0,0,1-4.08,1.76,18.6,18.6,0,0,1-4.81.6Z" transform="translate(-0.81 -0.1)"/><path class="cls-6" d="M663.83,1405.84q-3-2.52-3-7.67c0-3.25.92-5.7,2.76-7.33s4.63-2.44,8.35-2.44h9.36l.45,5.2H672a5.55,5.55,0,0,0-3.79,1.13,4.37,4.37,0,0,0-1.25,3.44,4.3,4.3,0,0,0,1.66,3.72,8.63,8.63,0,0,0,5.06,1.2,14.5,14.5,0,0,0,5.54-.79,2.6,2.6,0,0,0,1.83-2.48l.66,4.64a7.47,7.47,0,0,1-2.11,2.19,8.87,8.87,0,0,1-2.9,1.28,14.48,14.48,0,0,1-3.71.43C668.87,1408.31,665.84,1407.47,663.83,1405.84ZM681,1387a7,7,0,0,0-1.73-5,6.57,6.57,0,0,0-4.91-1.79,12.54,12.54,0,0,0-3.85.6,11.46,11.46,0,0,0-3.35,1.68l-4.73-3.23a12.38,12.38,0,0,1,4.94-3.51,17.76,17.76,0,0,1,6.8-1.25,15.79,15.79,0,0,1,7,1.44,10,10,0,0,1,4.44,4.19,13.37,13.37,0,0,1,1.52,6.62v21.14H681Z" transform="translate(-0.81 -0.1)"/><path class="cls-6" d="M703.47,1394.92a7.6,7.6,0,0,0,1.76,5.35,6.44,6.44,0,0,0,5,1.88,6.81,6.81,0,0,0,4.92-1.68,6.37,6.37,0,0,0,1.74-4.79l.45,6.89a9.44,9.44,0,0,1-3.3,4.09,9.32,9.32,0,0,1-5.62,1.65q-5.46,0-8.43-3.51t-3-9.88v-20h6.48Zm13.39-20h6.44v33h-6.44Z" transform="translate(-0.81 -0.1)"/><path class="cls-6" d="M741.87,1408.31l-2.55-.57a19.76,19.76,0,0,1-4.78-1.71,19,19,0,0,1-4.09-2.86l3.84-4.73a21.36,21.36,0,0,0,5.3,3,14.06,14.06,0,0,0,5.2,1,11.07,11.07,0,0,0,5.76-1.19,3.92,3.92,0,0,0,1.92-3.57,2.8,2.8,0,0,0-1.05-2.38,5.88,5.88,0,0,0-2.6-1.06c-1-.18-2.49-.34-4.38-.49h-1.58a26.26,26.26,0,0,1-5.43-.93,7.39,7.39,0,0,1-3.7-2.56,8.51,8.51,0,0,1-1.48-5.36,11,11,0,0,1,1.43-5.81,8.72,8.72,0,0,1,4.26-3.48,18.92,18.92,0,0,1,7.07-1.15,24.54,24.54,0,0,1,4.91.47,21.52,21.52,0,0,1,8.55,3.78l-3.9,4.73a22,22,0,0,0-4.87-2.38,14.67,14.67,0,0,0-4.69-.8,8.91,8.91,0,0,0-5,1.13,3.83,3.83,0,0,0-1.65,3.38,2.27,2.27,0,0,0,.94,2,5.48,5.48,0,0,0,2.36.89c1,.15,2.31.27,4.07.38h1.2a28.67,28.67,0,0,1,5.89.92,8,8,0,0,1,4.08,2.77,9.35,9.35,0,0,1,1.65,6,10.53,10.53,0,0,1-1.53,5.89,9.23,9.23,0,0,1-4.58,3.51,21.68,21.68,0,0,1-7.7,1.17Z" transform="translate(-0.81 -0.1)"/><path class="cls-6" d="M775.77,1408.31l-3.24-1.71a11.45,11.45,0,0,1-4.93-5,17.26,17.26,0,0,1-1.7-8v-3.76a19.49,19.49,0,0,1,1.63-8.35,11.77,11.77,0,0,1,4.75-5.27,14.82,14.82,0,0,1,7.49-1.8,11.8,11.8,0,0,1,7,2.06,12.69,12.69,0,0,1,4.46,6,25.32,25.32,0,0,1,1.54,9.36V1394H770.59v-5.21h16.06a11.12,11.12,0,0,0-2.07-6.27,5.84,5.84,0,0,0-4.81-2.23,7,7,0,0,0-5.7,2.41,10.35,10.35,0,0,0-2,6.82v4.19a8.56,8.56,0,0,0,2.16,6.28,8.2,8.2,0,0,0,6.13,2.19,10.07,10.07,0,0,0,3.9-.79,11.19,11.19,0,0,0,3.46-2.22l4.25,4.25a17.71,17.71,0,0,1-5.49,3.64,15.68,15.68,0,0,1-6.12,1.28Z" transform="translate(-0.81 -0.1)"/><path class="cls-6" d="M799.32,1401h6.79v6.8h-6.79Z" transform="translate(-0.81 -0.1)"/><path class="cls-6" d="M814,1401h6.8v6.8H814Z" transform="translate(-0.81 -0.1)"/><path class="cls-6" d="M828.77,1401h6.79v6.8h-6.79Z" transform="translate(-0.81 -0.1)"/><path class="cls-6" d="M861.65,1361.69h4.45l9.45,36.18,8.16-36.18h6.73l-11.27,46.15h-6.6l-8.51-32.25-8.88,32.25h-6.6l-11.27-46.15H844l8.15,36.18Z" transform="translate(-0.81 -0.1)"/><path class="cls-6" d="M896.47,1361.69h6.47v46.15h-6.47Zm20,26.18a7.48,7.48,0,0,0-1.81-5.39,6.65,6.65,0,0,0-5.07-1.91,6.88,6.88,0,0,0-4.91,1.65,6.15,6.15,0,0,0-1.73,4.67l-.66-6.35a11.62,11.62,0,0,1,4-4.52,9.73,9.73,0,0,1,5.44-1.6c3.58,0,6.35,1.16,8.3,3.5s2.94,5.65,2.94,9.92v20h-6.48Z" transform="translate(-0.81 -0.1)"/><path class="cls-6" d="M934.21,1405.84q-3-2.52-3-7.67c0-3.25.92-5.7,2.76-7.33s4.62-2.44,8.35-2.44h9.36l.45,5.2h-9.78a5.55,5.55,0,0,0-3.79,1.13,4.41,4.41,0,0,0-1.26,3.44,4.3,4.3,0,0,0,1.7,3.67,8.63,8.63,0,0,0,5.06,1.2,14.5,14.5,0,0,0,5.54-.79,2.6,2.6,0,0,0,1.83-2.48l.66,4.64a7.47,7.47,0,0,1-2.11,2.19,9,9,0,0,1-3,1.24,14.61,14.61,0,0,1-3.72.43Q937.22,1408.32,934.21,1405.84ZM951.38,1387a7,7,0,0,0-1.73-5,6.57,6.57,0,0,0-4.91-1.79,12.54,12.54,0,0,0-3.85.6,11.46,11.46,0,0,0-3.35,1.68l-4.73-3.23a12.34,12.34,0,0,1,4.93-3.51,17.84,17.84,0,0,1,6.81-1.25,15.79,15.79,0,0,1,7,1.44,10,10,0,0,1,4.44,4.19,13.37,13.37,0,0,1,1.52,6.62v21.09h-6.15Z" transform="translate(-0.81 -0.1)"/><path class="cls-6" d="M964.83,1374.89h14.86v5.84H964.83Zm5.26,30.9c-1.24-1.47-1.86-3.65-1.86-6.52v-34h6.47v34a3.11,3.11,0,0,0,.48,1.86,1.63,1.63,0,0,0,1.4.65h3.11v6.15h-3.75c-2.66.06-4.62-.67-5.85-2.09Z" transform="translate(-0.81 -0.1)"/><path class="cls-6" d="M993.78,1390a19,19,0,0,1,1.84-4.45c.72-1.2,1.66-2.59,2.82-4.15.85-1.17,1.52-2.12,2-2.87a11.62,11.62,0,0,0,1.21-2.51,9,9,0,0,0,.48-3h0a6.1,6.1,0,0,0-1.42-4.29,5.15,5.15,0,0,0-4-1.52,4.67,4.67,0,0,0-4,1.89,9.05,9.05,0,0,0-1.45,5.35h-6.57a17.54,17.54,0,0,1,1.59-7.16,10.36,10.36,0,0,1,4.1-4.52,12,12,0,0,1,6.25-1.56,13.91,13.91,0,0,1,6.47,1.4,9.51,9.51,0,0,1,4.11,4,13.53,13.53,0,0,1,1.42,6.4h0a13,13,0,0,1-.59,4.06,13.37,13.37,0,0,1-1.43,3.15,38,38,0,0,1-2.3,3.23,41.43,41.43,0,0,0-2.57,3.61,15.43,15.43,0,0,0-1.65,3.77,17.61,17.61,0,0,0-.67,5.1H993A21.61,21.61,0,0,1,993.78,1390Zm-.92,11h6.79v6.8h-6.79Z" transform="translate(-0.81 -0.1)"/><path class="cls-6" d="M567.72,1467.08v18.76h-6.47v-18.76l-14.06-27.39h7.2l10.1,20.82,10.09-20.82h7.2Z" transform="translate(-0.81 -0.1)"/><path class="cls-6" d="M588.35,1484.63a11.12,11.12,0,0,1-4.65-4.9,17.44,17.44,0,0,1-1.6-7.76v-5.37a17,17,0,0,1,1.6-7.66,11,11,0,0,1,4.65-4.86,17,17,0,0,1,14.67,0,11,11,0,0,1,4.65,4.86,17,17,0,0,1,1.6,7.66v5.46a17.18,17.18,0,0,1-1.6,7.7,11.16,11.16,0,0,1-4.65,4.87,16.85,16.85,0,0,1-14.67,0Zm12.59-6.6a8.77,8.77,0,0,0,1.85-6v-5.46a8.64,8.64,0,0,0-1.85-5.93,7.63,7.63,0,0,0-10.51,0,8.64,8.64,0,0,0-1.85,5.93V1472a8.77,8.77,0,0,0,1.85,6A7.57,7.57,0,0,0,600.94,1478Z" transform="translate(-0.81 -0.1)"/><path class="cls-6" d="M624.15,1472.92a7.55,7.55,0,0,0,1.77,5.35,6.44,6.44,0,0,0,5,1.88,6.76,6.76,0,0,0,4.92-1.68,6.31,6.31,0,0,0,1.75-4.79l.44,6.89a9.44,9.44,0,0,1-3.3,4.09,9.32,9.32,0,0,1-5.62,1.65c-3.64,0-6.44-1.17-8.42-3.51s-3-5.63-3-9.88v-20h6.47Zm13.4-20H644v33h-6.44Z" transform="translate(-0.81 -0.1)"/><path class="cls-6" d="M668.75,1452.89H683.6v5.84H668.75Zm5.25,30.95c-1.24-1.47-1.86-3.65-1.86-6.52v-34h6.48v34a3.2,3.2,0,0,0,.47,1.86,1.63,1.63,0,0,0,1.4.65h3.11V1486h-3.75C677.19,1486,675.24,1485.27,674,1483.84Z" transform="translate(-0.81 -0.1)"/><path class="cls-6" d="M692.49,1439.69H699v46.15h-6.47Zm20,26.18a7.48,7.48,0,0,0-1.81-5.39,6.67,6.67,0,0,0-5.08-1.91,6.84,6.84,0,0,0-4.9,1.65,6.15,6.15,0,0,0-1.73,4.67l-.67-6.35a11.78,11.78,0,0,1,4-4.52,9.73,9.73,0,0,1,5.44-1.6c3.58,0,6.34,1.16,8.3,3.5s2.94,5.65,2.94,9.92v20H712.5Z" transform="translate(-0.81 -0.1)"/><path class="cls-6" d="M734.1,1484.63a11,11,0,0,1-4.65-4.9,17.31,17.31,0,0,1-1.61-7.76v-5.37a16.89,16.89,0,0,1,1.61-7.66,10.93,10.93,0,0,1,4.65-4.86,17,17,0,0,1,14.66,0,11,11,0,0,1,4.65,4.86,16.88,16.88,0,0,1,1.6,7.66v5.46a16.89,16.89,0,0,1-1.6,7.7,11.16,11.16,0,0,1-4.65,4.87,16.83,16.83,0,0,1-14.66,0Zm12.58-6.6a8.78,8.78,0,0,0,1.86-6v-5.46a8.6,8.6,0,0,0-1.86-5.93,7.63,7.63,0,0,0-10.51,0,8.64,8.64,0,0,0-1.85,5.93V1472a8.82,8.82,0,0,0,1.85,6A7.57,7.57,0,0,0,746.68,1478Z" transform="translate(-0.81 -0.1)"/><path class="cls-6" d="M769.9,1472.92a7.5,7.5,0,0,0,1.76,5.35,6.44,6.44,0,0,0,5,1.88,6.8,6.8,0,0,0,4.91-1.68,6.31,6.31,0,0,0,1.75-4.79l.44,6.89a9.3,9.3,0,0,1-8.91,5.74q-5.46,0-8.43-3.51t-3-9.88v-20h6.48Zm13.39-20h6.44v33h-6.44Z" transform="translate(-0.81 -0.1)"/><path class="cls-6" d="M803.84,1484.84a10,10,0,0,1-3.89-4.59,17.77,17.77,0,0,1-1.33-7.24v-7.26a18.29,18.29,0,0,1,1.3-7.27,10,10,0,0,1,3.79-4.59,11,11,0,0,1,6-1.57,9.89,9.89,0,0,1,5.29,1.52,11.24,11.24,0,0,1,3.92,4.29l-.66,6.73a7.94,7.94,0,0,0-.76-3.59,5.32,5.32,0,0,0-2.21-2.27,7.25,7.25,0,0,0-3.51-.78,6.29,6.29,0,0,0-5,2,8.26,8.26,0,0,0-1.77,5.62V1473a8,8,0,0,0,1.77,5.54,6.33,6.33,0,0,0,5,2,7,7,0,0,0,3.51-.81,5.3,5.3,0,0,0,2.21-2.33,8.2,8.2,0,0,0,.76-3.65l.44,7a9.28,9.28,0,0,1-3.22,4.1,9,9,0,0,1-5.51,1.65A11.52,11.52,0,0,1,803.84,1484.84Zm3.06,14.39-2.9-1.39a10.63,10.63,0,0,1-4.56-3.89l4.38-4a8.93,8.93,0,0,0,3,2.7,7.63,7.63,0,0,0,3.7,1,7.74,7.74,0,0,0,5.75-2,7.9,7.9,0,0,0,2-5.8v-32.91h6.47v32a16.74,16.74,0,0,1-1.66,7.78,11.33,11.33,0,0,1-4.84,4.92,16.08,16.08,0,0,1-7.65,1.68Z" transform="translate(-0.81 -0.1)"/><path class="cls-6" d="M834.61,1439.69h6.48v46.15h-6.48Zm20,26.18a7.57,7.57,0,0,0-1.81-5.39,6.67,6.67,0,0,0-5.08-1.91,6.88,6.88,0,0,0-4.91,1.65,6.18,6.18,0,0,0-1.72,4.67l-.67-6.35a11.62,11.62,0,0,1,4-4.52,9.76,9.76,0,0,1,5.45-1.6c3.57,0,6.34,1.16,8.3,3.5s2.93,5.65,2.93,9.92v20h-6.47Z" transform="translate(-0.81 -0.1)"/><path class="cls-6" d="M868.38,1452.89h14.85v5.84H868.38Zm5.25,30.9c-1.23-1.47-1.85-3.65-1.85-6.52v-34h6.47v34a3.11,3.11,0,0,0,.48,1.86,1.61,1.61,0,0,0,1.39.65h3.11v6.15h-3.74q-4,.06-5.86-2.09Z" transform="translate(-0.81 -0.1)"/><path class="cls-6" d="M907,1452.89h14.85v5.84H907Zm5.25,30.9c-1.24-1.47-1.86-3.65-1.86-6.52v-34h6.48v34a3.2,3.2,0,0,0,.47,1.86,1.63,1.63,0,0,0,1.4.65h3.11v6.15h-3.74q-4,.06-5.82-2.09Z" transform="translate(-0.81 -0.1)"/><path class="cls-6" d="M930.78,1439.69h6.47v46.15h-6.47Zm20,26.18a7.48,7.48,0,0,0-1.81-5.39,6.69,6.69,0,0,0-5.07-1.91,6.88,6.88,0,0,0-4.91,1.65,6.15,6.15,0,0,0-1.73,4.67l-.66-6.35a11.62,11.62,0,0,1,4-4.52,9.73,9.73,0,0,1,5.44-1.6c3.58,0,6.34,1.16,8.3,3.5s2.94,5.65,2.94,9.92v20H950.8Z" transform="translate(-0.81 -0.1)"/><path class="cls-6" d="M976,1486.31l-3.23-1.71a11.42,11.42,0,0,1-4.94-5,17.39,17.39,0,0,1-1.7-8v-3.76a19.35,19.35,0,0,1,1.64-8.35,11.81,11.81,0,0,1,4.74-5.27,14.82,14.82,0,0,1,7.49-1.8,12,12,0,0,1,7,2.06,12.75,12.75,0,0,1,4.46,6,25.32,25.32,0,0,1,1.54,9.36V1472H970.83v-5.21h16.06a11,11,0,0,0-2.08-6.27,5.83,5.83,0,0,0-4.81-2.23,7,7,0,0,0-5.69,2.41,10.46,10.46,0,0,0-2,6.82v4.19a8.56,8.56,0,0,0,2.16,6.28,8.23,8.23,0,0,0,6.12,2.19,10.12,10.12,0,0,0,3.91-.79,11.19,11.19,0,0,0,3.46-2.22l4.25,4.25a17.89,17.89,0,0,1-5.49,3.64,15.77,15.77,0,0,1-6.13,1.28Z" transform="translate(-0.81 -0.1)"/><path class="cls-6" d="M1001.94,1452.89h6.47v33h-6.47Zm16,6.22a7.86,7.86,0,0,0-3-.54,6.44,6.44,0,0,0-4.77,1.7,6.35,6.35,0,0,0-1.7,4.71l-.67-6.34a12.05,12.05,0,0,1,3.94-4.59,9.31,9.31,0,0,1,5.33-1.63,12,12,0,0,1,4.08.65,9.14,9.14,0,0,1,3.19,1.92l-4.22,5.71a5.42,5.42,0,0,0-2.22-1.59Z" transform="translate(-0.81 -0.1)"/><path class="cls-6" d="M1038,1486.31l-3.24-1.71a11.45,11.45,0,0,1-4.93-5,17.26,17.26,0,0,1-1.7-8v-3.76a19.49,19.49,0,0,1,1.63-8.35,11.77,11.77,0,0,1,4.75-5.27,14.82,14.82,0,0,1,7.49-1.8,11.8,11.8,0,0,1,7,2.06,12.75,12.75,0,0,1,4.46,6,25.32,25.32,0,0,1,1.54,9.36V1472h-22.21v-5.21h16a11.12,11.12,0,0,0-2.07-6.27,5.84,5.84,0,0,0-4.81-2.23,7,7,0,0,0-5.7,2.41,10.35,10.35,0,0,0-2,6.82v4.19a8.56,8.56,0,0,0,2.16,6.28,8.21,8.21,0,0,0,6.13,2.19,10.07,10.07,0,0,0,3.9-.79,11.19,11.19,0,0,0,3.46-2.22l4.25,4.25a17.71,17.71,0,0,1-5.49,3.64,15.68,15.68,0,0,1-6.12,1.28Z" transform="translate(-0.81 -0.1)"/><path class="cls-6" d="M550.36,1530.89h6.76l5.84,23.52,8.22-23.52h4.51l8.22,23.52,5.84-23.52h6.76l-10.16,33h-4.88l-8-22.76-8,22.76h-4.89Z" transform="translate(-0.81 -0.1)"/><path class="cls-6" d="M608.16,1562.63a11.12,11.12,0,0,1-4.65-4.9,17.17,17.17,0,0,1-1.6-7.76v-5.37a16.88,16.88,0,0,1,1.6-7.66,11,11,0,0,1,4.65-4.86,17,17,0,0,1,14.66,0,11,11,0,0,1,4.65,4.86,16.88,16.88,0,0,1,1.6,7.66v5.46a16.89,16.89,0,0,1-1.6,7.7,11.16,11.16,0,0,1-4.65,4.87,16.83,16.83,0,0,1-14.66,0Zm12.58-6.6a8.78,8.78,0,0,0,1.86-6v-5.46a8.6,8.6,0,0,0-1.86-5.93,7.61,7.61,0,0,0-10.5,0,8.6,8.6,0,0,0-1.86,5.93V1550a8.78,8.78,0,0,0,1.86,6A7.55,7.55,0,0,0,620.74,1556Z" transform="translate(-0.81 -0.1)"/><path class="cls-6" d="M644,1550.92a7.6,7.6,0,0,0,1.76,5.35,6.44,6.44,0,0,0,5,1.88,6.81,6.81,0,0,0,4.92-1.68,6.37,6.37,0,0,0,1.74-4.79l.45,6.89a9.44,9.44,0,0,1-3.3,4.09,9.32,9.32,0,0,1-5.62,1.65q-5.46,0-8.43-3.51t-3-9.88v-20H644Zm13.39-20h6.45v33h-6.45Z" transform="translate(-0.81 -0.1)"/><path class="cls-6" d="M680.11,1555.33a2.93,2.93,0,0,0,.52,1.86,1.79,1.79,0,0,0,1.48.65h3V1564H681.3a7.19,7.19,0,0,1-5.7-2.28,9.42,9.42,0,0,1-2-6.44v-37.58h6.48Z" transform="translate(-0.81 -0.1)"/><path class="cls-6" d="M696.72,1562.84a9.88,9.88,0,0,1-3.88-4.59,17.78,17.78,0,0,1-1.34-7.24v-7.26a18.47,18.47,0,0,1,1.3-7.27,10,10,0,0,1,3.8-4.59,11,11,0,0,1,6-1.57,9.92,9.92,0,0,1,5.35,1.52,11.38,11.38,0,0,1,3.92,4.29l-.67,6.73a7.69,7.69,0,0,0-.76-3.59,5.21,5.21,0,0,0-2.21-2.27,7.32,7.32,0,0,0-3.5-.78,6.29,6.29,0,0,0-5,2,8.21,8.21,0,0,0-1.73,5.62V1551a8,8,0,0,0,1.76,5.54,6.33,6.33,0,0,0,5,2,7,7,0,0,0,3.5-.81,5.3,5.3,0,0,0,2.21-2.33,7.93,7.93,0,0,0,.76-3.65l.45,7a9.37,9.37,0,0,1-3.23,4.1,8.94,8.94,0,0,1-5.5,1.65A11.68,11.68,0,0,1,696.72,1562.84Zm14.46-45.15h6.48v46.15h-6.48Z" transform="translate(-0.81 -0.1)"/><path class="cls-6" d="M745,1517.69h6.47v46.15H745Zm9.39,45.15a8.69,8.69,0,0,1-3.36-4.18l.44-6.88a7.88,7.88,0,0,0,.77,3.61,5.29,5.29,0,0,0,2.2,2.29,7.12,7.12,0,0,0,3.51.79,6.33,6.33,0,0,0,5-2,8,8,0,0,0,1.76-5.51v-7.12a8.29,8.29,0,0,0-1.76-5.62,6.29,6.29,0,0,0-5-2,7.37,7.37,0,0,0-3.51.76,5,5,0,0,0-2.2,2.23,7.62,7.62,0,0,0-.77,3.54l-.66-6.34a11.35,11.35,0,0,1,3.9-4.46,9.63,9.63,0,0,1,5.37-1.57,11,11,0,0,1,6,1.57,9.81,9.81,0,0,1,3.79,4.58,18.29,18.29,0,0,1,1.3,7.27V1551a17.49,17.49,0,0,1-1.33,7.18,9.93,9.93,0,0,1-3.9,4.55,11.58,11.58,0,0,1-6.16,1.57,9.74,9.74,0,0,1-5.44-1.43Z" transform="translate(-0.81 -0.1)"/><path class="cls-6" d="M789.23,1564.31,786,1562.6a11.42,11.42,0,0,1-4.94-5,17.39,17.39,0,0,1-1.7-8v-3.76a19.35,19.35,0,0,1,1.64-8.35,11.81,11.81,0,0,1,4.74-5.27,14.82,14.82,0,0,1,7.49-1.8,12,12,0,0,1,7,2.06,12.75,12.75,0,0,1,4.46,6,25.32,25.32,0,0,1,1.54,9.36V1550H784.05v-5.21h16.06a11,11,0,0,0-2.08-6.27,5.83,5.83,0,0,0-4.81-2.23,7,7,0,0,0-5.69,2.41,10.46,10.46,0,0,0-2,6.82v4.19a8.56,8.56,0,0,0,2.16,6.28,8.2,8.2,0,0,0,6.13,2.19,10.07,10.07,0,0,0,3.9-.79,11.19,11.19,0,0,0,3.46-2.22l4.25,4.25a17.89,17.89,0,0,1-5.49,3.64,15.68,15.68,0,0,1-6.12,1.28Z" transform="translate(-0.81 -0.1)"/><path class="cls-6" d="M834,1561.84q-3-2.52-3-7.67c0-3.25.92-5.7,2.77-7.33s4.62-2.44,8.34-2.44h9.37l.44,5.2h-9.78a5.55,5.55,0,0,0-3.79,1.13,4.44,4.44,0,0,0-1.25,3.44,4.3,4.3,0,0,0,1.66,3.72,8.68,8.68,0,0,0,5.07,1.2,14.45,14.45,0,0,0,5.53-.79,2.6,2.6,0,0,0,1.83-2.48l.67,4.64a7.59,7.59,0,0,1-2.11,2.19,9.13,9.13,0,0,1-2.91,1.28,14.48,14.48,0,0,1-3.71.43Q837.06,1564.32,834,1561.84ZM851.17,1543a7,7,0,0,0-1.73-5,6.53,6.53,0,0,0-4.9-1.79,12.65,12.65,0,0,0-3.86.6,11.46,11.46,0,0,0-3.35,1.68l-4.73-3.23a12.38,12.38,0,0,1,4.94-3.51,17.84,17.84,0,0,1,6.81-1.25,15.79,15.79,0,0,1,7,1.44,10,10,0,0,1,4.44,4.19,13.38,13.38,0,0,1,1.53,6.62v21.09h-6.16Z" transform="translate(-0.81 -0.1)"/><path class="cls-6" d="M895.61,1564.31l-3.63-2.12a14.44,14.44,0,0,1-5.64-6,19.61,19.61,0,0,1-2-9v-12.66a19.64,19.64,0,0,1,2-9,14.56,14.56,0,0,1,5.64-6,16.33,16.33,0,0,1,8.42-2.14,16,16,0,0,1,7.3,1.7,15.38,15.38,0,0,1,5.57,4.81,17.89,17.89,0,0,1,3,7.2h-6.64a10.28,10.28,0,0,0-2-3.85,10.08,10.08,0,0,0-3.32-2.62,9.33,9.33,0,0,0-8.89.44,9.14,9.14,0,0,0-3.3,3.83,13.31,13.31,0,0,0-1.17,5.73v12.66a13.2,13.2,0,0,0,1.17,5.71,8.7,8.7,0,0,0,8.25,5.18,9.35,9.35,0,0,0,7.26-3.4,10,10,0,0,0,2-4h6.64a17.89,17.89,0,0,1-3,7.2,15.58,15.58,0,0,1-12.86,6.51Z" transform="translate(-0.81 -0.1)"/><path class="cls-6" d="M950,1539.49v6.16H924.24v-6.16Zm-9.65,16h-6.47v-25.77h6.47Z" transform="translate(-0.81 -0.1)"/><path class="cls-6" d="M984.35,1539.49v6.16H958.58v-6.16Zm-9.65,16h-6.47v-25.77h6.47Z" transform="translate(-0.81 -0.1)"/><path class="cls-6" d="M548.78,1649.07h3.61a1.62,1.62,0,0,0,1.38-.65,3,3,0,0,0,.5-1.86v-37.67h6.47v37.61a9.42,9.42,0,0,1-2,6.44,7.17,7.17,0,0,1-5.7,2.29h-4.25Zm5.42-53.38h6.6v6.47h-6.6Z" transform="translate(-0.81 -0.1)"/><path class="cls-6" d="M575.94,1640.63a11.12,11.12,0,0,1-4.65-4.9,17.44,17.44,0,0,1-1.6-7.76v-5.37a17,17,0,0,1,1.6-7.66,11,11,0,0,1,4.65-4.86,17,17,0,0,1,14.67,0,11,11,0,0,1,4.65,4.86,17,17,0,0,1,1.6,7.66v5.46a17.18,17.18,0,0,1-1.6,7.7,11.16,11.16,0,0,1-4.65,4.87,16.85,16.85,0,0,1-14.67,0Zm12.59-6.6a8.77,8.77,0,0,0,1.85-6v-5.46a8.64,8.64,0,0,0-1.85-5.93,7.63,7.63,0,0,0-10.51,0,8.64,8.64,0,0,0-1.85,5.93V1628a8.82,8.82,0,0,0,1.85,6A7.57,7.57,0,0,0,588.53,1634Z" transform="translate(-0.81 -0.1)"/><path class="cls-6" d="M606.06,1595.69h6.48v46.15h-6.48Zm2.8,33.64,16.94-20.44h7.62l-25,28.12Zm7.65-6.51,4.15-4.31L635,1641.84h-7Z" transform="translate(-0.81 -0.1)"/><path class="cls-6" d="M649.35,1642.31l-3.23-1.71a11.42,11.42,0,0,1-4.94-5,17.39,17.39,0,0,1-1.7-8v-3.76a19.35,19.35,0,0,1,1.64-8.35,11.81,11.81,0,0,1,4.74-5.27,14.82,14.82,0,0,1,7.49-1.8,12,12,0,0,1,7,2.06,12.75,12.75,0,0,1,4.46,6,25.74,25.74,0,0,1,1.54,9.36V1628H644.18v-5.21h16.06a11,11,0,0,0-2.08-6.27,5.83,5.83,0,0,0-4.81-2.23,7,7,0,0,0-5.69,2.41,10.46,10.46,0,0,0-2,6.82v4.19a8.56,8.56,0,0,0,2.16,6.28,8.23,8.23,0,0,0,6.12,2.19,10.12,10.12,0,0,0,3.91-.79,11.19,11.19,0,0,0,3.46-2.22l4.25,4.25a17.89,17.89,0,0,1-5.49,3.64,15.77,15.77,0,0,1-6.13,1.28Z" transform="translate(-0.81 -0.1)"/><path class="cls-6" d="M672.9,1635h6.8v6.8h-6.8Z" transform="translate(-0.81 -0.1)"/><path class="cls-6" d="M553.85,1673.69h5.88l22.56,35.67-.76.83v-36.5h6.41v46.15H582l-22.51-35.13.77-.83v36h-6.42Z" transform="translate(-0.81 -0.1)"/><path class="cls-6" d="M604,1718.63a11.12,11.12,0,0,1-4.65-4.9,17.17,17.17,0,0,1-1.6-7.76v-5.37a16.88,16.88,0,0,1,1.6-7.66,11,11,0,0,1,4.65-4.86,17,17,0,0,1,14.67,0,11,11,0,0,1,4.65,4.86,17,17,0,0,1,1.6,7.66v5.46a17.18,17.18,0,0,1-1.6,7.7,11.16,11.16,0,0,1-4.65,4.87,16.85,16.85,0,0,1-14.67,0Zm12.59-6.6a8.82,8.82,0,0,0,1.85-6v-5.46a8.64,8.64,0,0,0-1.85-5.93,7.63,7.63,0,0,0-10.51,0,8.6,8.6,0,0,0-1.86,5.93V1706a8.78,8.78,0,0,0,1.86,6A7.57,7.57,0,0,0,616.59,1712Z" transform="translate(-0.81 -0.1)"/><path class="cls-6" d="M631.77,1713h6.79v10.29l-6.79,7Z" transform="translate(-0.81 -0.1)"/><path class="cls-6" d="M662.21,1686.89H669l5.84,23.52,8.22-23.52h4.51l8.22,23.52,5.84-23.52h6.76l-10.16,33h-4.89l-8-22.76-8,22.76h-4.89Z" transform="translate(-0.81 -0.1)"/><path class="cls-6" d="M723.62,1720.31l-3.24-1.71a11.45,11.45,0,0,1-4.93-5,17.39,17.39,0,0,1-1.7-8v-3.76a19.35,19.35,0,0,1,1.64-8.35,11.81,11.81,0,0,1,4.74-5.27,14.82,14.82,0,0,1,7.49-1.8,12,12,0,0,1,7,2.06,12.82,12.82,0,0,1,4.46,6,25.74,25.74,0,0,1,1.54,9.36V1706H718.45v-5.21h16.06a11.13,11.13,0,0,0-2.08-6.27,5.84,5.84,0,0,0-4.81-2.23,7,7,0,0,0-5.7,2.41,10.35,10.35,0,0,0-2,6.82v4.19a8.56,8.56,0,0,0,2.16,6.28,8.23,8.23,0,0,0,6.12,2.19,10.12,10.12,0,0,0,3.91-.79,11.19,11.19,0,0,0,3.46-2.22l4.25,4.25a17.89,17.89,0,0,1-5.49,3.64,15.77,15.77,0,0,1-6.13,1.28Z" transform="translate(-0.81 -0.1)"/><path class="cls-6" d="M767,1686.89h6.47v33H767Zm16,6.22a7.86,7.86,0,0,0-3-.54,6.47,6.47,0,0,0-4.78,1.7,6.36,6.36,0,0,0-1.7,4.71l-.66-6.34a12,12,0,0,1,3.93-4.59,9.38,9.38,0,0,1,5.33-1.63,12,12,0,0,1,4.08.65,9,9,0,0,1,3.19,1.92l-4.22,5.71A5.45,5.45,0,0,0,783,1693.11Z" transform="translate(-0.81 -0.1)"/><path class="cls-6" d="M803,1720.31l-3.24-1.71a11.45,11.45,0,0,1-4.93-5,17.39,17.39,0,0,1-1.7-8v-3.76a19.35,19.35,0,0,1,1.64-8.35,11.75,11.75,0,0,1,4.74-5.27,14.82,14.82,0,0,1,7.49-1.8,11.94,11.94,0,0,1,7,2.06,12.82,12.82,0,0,1,4.46,6,25.52,25.52,0,0,1,1.53,9.36V1706H797.86v-5.21h16.06a11.13,11.13,0,0,0-2.08-6.27,5.84,5.84,0,0,0-4.81-2.23,7,7,0,0,0-5.7,2.41,10.35,10.35,0,0,0-2,6.82v4.19a8.56,8.56,0,0,0,2.16,6.28,8.19,8.19,0,0,0,6.12,2.19,10.12,10.12,0,0,0,3.91-.79,11,11,0,0,0,3.45-2.22l4.26,4.25a17.89,17.89,0,0,1-5.49,3.64,15.77,15.77,0,0,1-6.13,1.28Z" transform="translate(-0.81 -0.1)"/><path class="cls-6" d="M837.69,1720.31l-2.56-.57a19.69,19.69,0,0,1-4.77-1.71,19.09,19.09,0,0,1-4.1-2.86l3.84-4.73a21.67,21.67,0,0,0,5.3,3,14.32,14.32,0,0,0,5.21,1,11.07,11.07,0,0,0,5.76-1.19,3.92,3.92,0,0,0,1.92-3.57,2.81,2.81,0,0,0-1-2.38,5.88,5.88,0,0,0-2.6-1.06c-1-.18-2.5-.34-4.38-.49h-1.59a26.28,26.28,0,0,1-5.42-.93,7.33,7.33,0,0,1-3.7-2.56,8.51,8.51,0,0,1-1.48-5.36,11,11,0,0,1,1.43-5.81,8.65,8.65,0,0,1,4.25-3.48,19,19,0,0,1,7.08-1.15,24.37,24.37,0,0,1,4.9.47,22.45,22.45,0,0,1,4.46,1.41,22.89,22.89,0,0,1,4.1,2.37l-3.91,4.73a22,22,0,0,0-4.87-2.38,14.65,14.65,0,0,0-4.68-.8,8.91,8.91,0,0,0-5,1.13,3.83,3.83,0,0,0-1.65,3.38,2.27,2.27,0,0,0,.94,2,5.48,5.48,0,0,0,2.36.89c1,.15,2.31.27,4.06.38h1.21a28.67,28.67,0,0,1,5.89.92,8,8,0,0,1,4.08,2.77,9.35,9.35,0,0,1,1.65,6,10.53,10.53,0,0,1-1.53,5.89,9.23,9.23,0,0,1-4.58,3.51,21.68,21.68,0,0,1-7.7,1.17Z" transform="translate(-0.81 -0.1)"/><path class="cls-6" d="M862.67,1686.89h6.47v46.34h-6.47Zm9.39,32a8.69,8.69,0,0,1-3.36-4.18l.44-6.88a8,8,0,0,0,.76,3.61,5.37,5.37,0,0,0,2.21,2.29,7.12,7.12,0,0,0,3.51.79,6.33,6.33,0,0,0,5-2,7.92,7.92,0,0,0,1.77-5.51v-7.17a8.26,8.26,0,0,0-1.77-5.62,6.29,6.29,0,0,0-5-2,7.37,7.37,0,0,0-3.51.76,5.23,5.23,0,0,0-2.21,2.23,7.76,7.76,0,0,0-.76,3.54l-.66-6.34a11.35,11.35,0,0,1,3.9-4.46,9.62,9.62,0,0,1,5.36-1.57,11,11,0,0,1,6,1.57,9.81,9.81,0,0,1,3.79,4.58,18.29,18.29,0,0,1,1.3,7.27V1707a17.49,17.49,0,0,1-1.33,7.18,9.85,9.85,0,0,1-3.91,4.55,11.52,11.52,0,0,1-6.15,1.57,9.73,9.73,0,0,1-5.38-1.43Z" transform="translate(-0.81 -0.1)"/><path class="cls-6" d="M906.94,1720.31l-3.23-1.71a11.42,11.42,0,0,1-4.94-5,17.39,17.39,0,0,1-1.7-8v-3.76a19.35,19.35,0,0,1,1.64-8.35,11.81,11.81,0,0,1,4.74-5.27,14.82,14.82,0,0,1,7.49-1.8,12,12,0,0,1,7,2.06,12.82,12.82,0,0,1,4.46,6,25.75,25.75,0,0,1,1.6,9.36V1706H901.77v-5.21h16.06a11.13,11.13,0,0,0-2.08-6.27,5.84,5.84,0,0,0-4.81-2.23,7,7,0,0,0-5.7,2.41,10.35,10.35,0,0,0-2,6.82v4.19a8.56,8.56,0,0,0,2.16,6.28,8.23,8.23,0,0,0,6.12,2.19,10.12,10.12,0,0,0,3.91-.79,11.19,11.19,0,0,0,3.46-2.22l4.25,4.25a17.89,17.89,0,0,1-5.49,3.64,15.77,15.77,0,0,1-6.13,1.28Z" transform="translate(-0.81 -0.1)"/><path class="cls-6" d="M941.66,1720.31l-3.19-1.68a11.38,11.38,0,0,1-4.87-4.89,16.44,16.44,0,0,1-1.68-7.74v-5.43a16.23,16.23,0,0,1,1.68-7.65,11.43,11.43,0,0,1,4.87-4.84,16.41,16.41,0,0,1,7.7-1.66,18.41,18.41,0,0,1,4.84.61,14.89,14.89,0,0,1,4.08,1.8,11,11,0,0,1,3,2.85l-4.66,4.19a9.81,9.81,0,0,0-3.27-2.44,9.36,9.36,0,0,0-3.9-.86,7.79,7.79,0,0,0-5.81,2.1,8,8,0,0,0-2.06,5.9V1706a8.36,8.36,0,0,0,2,6,7.72,7.72,0,0,0,5.83,2.12,8.66,8.66,0,0,0,3.93-.92,9.51,9.51,0,0,0,3.24-2.6l4.66,4.51a11.62,11.62,0,0,1-3,2.81,14.21,14.21,0,0,1-4.08,1.76,18.6,18.6,0,0,1-4.81.6Z" transform="translate(-0.81 -0.1)"/><path class="cls-6" d="M962.71,1686.89h14.85v5.84H962.71Zm5.29,30.95c-1.24-1.47-1.86-3.65-1.86-6.52v-34h6.48v34a3.2,3.2,0,0,0,.47,1.86,1.63,1.63,0,0,0,1.4.65h3.11V1720h-3.75C971.16,1720,969.21,1719.27,968,1717.84Z" transform="translate(-0.81 -0.1)"/><path class="cls-6" d="M558.52,1796.63a11.12,11.12,0,0,1-4.65-4.9,17.17,17.17,0,0,1-1.6-7.76v-5.37a16.88,16.88,0,0,1,1.6-7.66,11,11,0,0,1,4.65-4.86,17,17,0,0,1,14.66,0,11,11,0,0,1,4.65,4.86,16.89,16.89,0,0,1,1.61,7.66v5.46a17,17,0,0,1-1.61,7.7,11.16,11.16,0,0,1-4.65,4.87,16.83,16.83,0,0,1-14.66,0Zm12.58-6.6a8.78,8.78,0,0,0,1.86-6v-5.46a8.6,8.6,0,0,0-1.86-5.93,7.61,7.61,0,0,0-10.5,0,8.6,8.6,0,0,0-1.86,5.93V1784a8.78,8.78,0,0,0,1.86,6A7.55,7.55,0,0,0,571.1,1790Z" transform="translate(-0.81 -0.1)"/><path class="cls-6" d="M594.32,1784.92a7.6,7.6,0,0,0,1.76,5.35,6.44,6.44,0,0,0,5,1.88,6.81,6.81,0,0,0,4.92-1.68,6.37,6.37,0,0,0,1.74-4.79l.45,6.89a9.44,9.44,0,0,1-3.3,4.09,9.32,9.32,0,0,1-5.62,1.65q-5.46,0-8.43-3.51t-3-9.88v-20h6.47Zm13.39-20h6.45v33h-6.45Z" transform="translate(-0.81 -0.1)"/><path class="cls-6" d="M624,1764.89h6.47v33H624Zm16,6.22a7.86,7.86,0,0,0-3-.54,6.44,6.44,0,0,0-4.77,1.7,6.36,6.36,0,0,0-1.7,4.71l-.67-6.34a12.05,12.05,0,0,1,3.94-4.59,9.31,9.31,0,0,1,5.33-1.63,12,12,0,0,1,4.08.65,9,9,0,0,1,3.19,1.92l-4.22,5.71A5.48,5.48,0,0,0,640,1771.11Z" transform="translate(-0.81 -0.1)"/><path class="cls-6" d="M678.11,1798.31l-3.24-1.71a11.45,11.45,0,0,1-4.93-5,17.26,17.26,0,0,1-1.7-8v-3.76a19.49,19.49,0,0,1,1.63-8.35,11.77,11.77,0,0,1,4.75-5.27,14.82,14.82,0,0,1,7.49-1.8,11.8,11.8,0,0,1,7,2.06,12.75,12.75,0,0,1,4.46,6,25.32,25.32,0,0,1,1.54,9.36V1784H672.94v-5.21H689a11.13,11.13,0,0,0-2.08-6.27,5.84,5.84,0,0,0-4.81-2.23,7,7,0,0,0-5.7,2.41,10.35,10.35,0,0,0-2,6.82v4.19a8.6,8.6,0,0,0,2.15,6.28,8.2,8.2,0,0,0,6.13,2.19,10.07,10.07,0,0,0,3.9-.79,11.19,11.19,0,0,0,3.46-2.22l4.26,4.25a17.89,17.89,0,0,1-5.49,3.64,15.77,15.77,0,0,1-6.13,1.28Z" transform="translate(-0.81 -0.1)"/><path class="cls-6" d="M710.51,1789.33a2.94,2.94,0,0,0,.53,1.86,1.77,1.77,0,0,0,1.47.65h3V1798H711.7a7.18,7.18,0,0,1-5.69-2.28,9.41,9.41,0,0,1-2-6.44v-37.58h6.47Z" transform="translate(-0.81 -0.1)"/><path class="cls-6" d="M727.13,1796.84a10,10,0,0,1-3.89-4.59,17.77,17.77,0,0,1-1.33-7.24v-7.26a18.29,18.29,0,0,1,1.3-7.27,10,10,0,0,1,3.79-4.59,11,11,0,0,1,6-1.57,9.92,9.92,0,0,1,5.35,1.52,11.24,11.24,0,0,1,3.92,4.29l-.66,6.73a7.82,7.82,0,0,0-.77-3.59,5.19,5.19,0,0,0-2.2-2.27,7.25,7.25,0,0,0-3.51-.78,6.32,6.32,0,0,0-5,2,8.29,8.29,0,0,0-1.76,5.62V1785a8,8,0,0,0,1.76,5.54,6.33,6.33,0,0,0,5,2,7,7,0,0,0,3.51-.81,5.22,5.22,0,0,0,2.2-2.33,8.07,8.07,0,0,0,.77-3.65l.44,7a9.46,9.46,0,0,1-3.22,4.1,9,9,0,0,1-5.51,1.65A11.55,11.55,0,0,1,727.13,1796.84Zm14.46-45.15h6.47v46.15h-6.47Z" transform="translate(-0.81 -0.1)"/><path class="cls-6" d="M766.82,1798.31l-3.24-1.71a11.45,11.45,0,0,1-4.93-5,17.26,17.26,0,0,1-1.7-8v-3.76a19.49,19.49,0,0,1,1.63-8.35,11.77,11.77,0,0,1,4.75-5.27,14.82,14.82,0,0,1,7.49-1.8,11.8,11.8,0,0,1,7,2.06,12.69,12.69,0,0,1,4.46,6,25.32,25.32,0,0,1,1.54,9.36V1784H761.64v-5.21H777.7a11.12,11.12,0,0,0-2.07-6.27,5.84,5.84,0,0,0-4.81-2.23,7,7,0,0,0-5.7,2.41,10.35,10.35,0,0,0-2,6.82v4.19a8.56,8.56,0,0,0,2.16,6.28,8.2,8.2,0,0,0,6.13,2.19,10.07,10.07,0,0,0,3.9-.79,11.19,11.19,0,0,0,3.46-2.22l4.25,4.25a17.71,17.71,0,0,1-5.49,3.64,15.68,15.68,0,0,1-6.12,1.28Z" transform="translate(-0.81 -0.1)"/><path class="cls-6" d="M792.75,1764.89h6.47v33h-6.47Zm16,6.22a7.86,7.86,0,0,0-3-.54,6.47,6.47,0,0,0-4.78,1.7,6.36,6.36,0,0,0-1.7,4.71l-.66-6.34a12,12,0,0,1,3.93-4.59,9.38,9.38,0,0,1,5.33-1.63,12,12,0,0,1,4.08.65,9,9,0,0,1,3.19,1.92l-4.22,5.71a5.39,5.39,0,0,0-2.21-1.59Z" transform="translate(-0.81 -0.1)"/><path class="cls-6" d="M829.22,1798.31l-2.56-.57a19.76,19.76,0,0,1-4.78-1.71,19,19,0,0,1-4.09-2.86l3.84-4.73a21.67,21.67,0,0,0,5.3,3,14.11,14.11,0,0,0,5.21,1,11.07,11.07,0,0,0,5.76-1.19,3.92,3.92,0,0,0,1.92-3.57,2.8,2.8,0,0,0-1.05-2.38,6,6,0,0,0-2.6-1.06c-1-.18-2.5-.34-4.38-.49H830.2a26.26,26.26,0,0,1-5.43-.93,7.39,7.39,0,0,1-3.7-2.56,8.57,8.57,0,0,1-1.47-5.36,10.86,10.86,0,0,1,1.43-5.81,8.65,8.65,0,0,1,4.25-3.48,19,19,0,0,1,7.08-1.15,24.37,24.37,0,0,1,4.9.47,21.59,21.59,0,0,1,8.55,3.78l-3.9,4.73a22,22,0,0,0-4.87-2.38,15.23,15.23,0,0,0-4.68-.8,8.91,8.91,0,0,0-5,1.13,3.83,3.83,0,0,0-1.65,3.38,2.3,2.3,0,0,0,.93,2,5.47,5.47,0,0,0,2.37.89c1,.15,2.3.27,4.06.38h1.21a28.47,28.47,0,0,1,5.88.92,8,8,0,0,1,4.08,2.77,9.35,9.35,0,0,1,1.65,6,10.6,10.6,0,0,1-1.52,5.89,9.25,9.25,0,0,1-4.59,3.51,21.62,21.62,0,0,1-7.69,1.17Z" transform="translate(-0.81 -0.1)"/><path class="cls-6" d="M853.08,1791h6.79v6.8h-6.79Z" transform="translate(-0.81 -0.1)"/><path class="cls-6" d="M35.62,735.29h6.44v46.15H35.62Zm3.81,40.15H51.91c3.28,0,5.67-.62,7.17-1.88a6.45,6.45,0,0,0,2.26-5.26v-.1a9.36,9.36,0,0,0-.81-4A5.73,5.73,0,0,0,58,761.61a9.71,9.71,0,0,0-4.47-.9H39.43v-5.87H53.52a7.73,7.73,0,0,0,5.39-1.68,6.47,6.47,0,0,0,1.82-5,6.4,6.4,0,0,0-2-5.17q-2-1.71-6.09-1.71H39.43v-6H53.8a16.69,16.69,0,0,1,7.49,1.52,10.18,10.18,0,0,1,4.51,4.32,14.12,14.12,0,0,1,1.49,6.66,11,11,0,0,1-.92,4.46,9.16,9.16,0,0,1-2.81,3.56,10.51,10.51,0,0,1-4.68,2,10.37,10.37,0,0,1,4.83,2,10.53,10.53,0,0,1,3.11,3.92,12.24,12.24,0,0,1,1.09,5v.1a13.1,13.1,0,0,1-1.65,6.6,11.16,11.16,0,0,1-4.72,4.41,15.62,15.62,0,0,1-7.2,1.56H39.43Z" transform="translate(-0.81 -0.1)"/><path class="cls-6" d="M85.91,781.91l-3.24-1.71a11.35,11.35,0,0,1-4.93-5,17.26,17.26,0,0,1-1.7-8v-3.76a19.34,19.34,0,0,1,1.63-8.35,11.77,11.77,0,0,1,4.75-5.27,14.79,14.79,0,0,1,7.49-1.8,11.87,11.87,0,0,1,7,2.06,12.82,12.82,0,0,1,4.46,6,25.74,25.74,0,0,1,1.54,9.36v2.16H80.69v-5.21h16a11.12,11.12,0,0,0-2.07-6.27,5.86,5.86,0,0,0-4.71-2.26,7,7,0,0,0-5.7,2.41,10.35,10.35,0,0,0-2,6.82v4.19a8.51,8.51,0,0,0,2.15,6.28,8.2,8.2,0,0,0,6.13,2.19,10.07,10.07,0,0,0,3.9-.79,11.19,11.19,0,0,0,3.46-2.22l4.26,4.25a17.87,17.87,0,0,1-5.5,3.64,15.76,15.76,0,0,1-6.12,1.28Z" transform="translate(-0.81 -0.1)"/><path class="cls-6" d="M120.58,781.91l-3.19-1.68a11.22,11.22,0,0,1-4.87-4.89,16.44,16.44,0,0,1-1.68-7.74v-5.43a16.11,16.11,0,0,1,1.68-7.65,11.27,11.27,0,0,1,4.87-4.84,16.39,16.39,0,0,1,7.7-1.66,18.83,18.83,0,0,1,4.84.61,14.89,14.89,0,0,1,4.08,1.8,11.3,11.3,0,0,1,3,2.85l-4.65,4.16a10,10,0,0,0-3.27-2.44,9.44,9.44,0,0,0-3.91-.86,7.78,7.78,0,0,0-5.81,2.1,8,8,0,0,0-2.06,5.9v5.43a8.31,8.31,0,0,0,2,6,7.67,7.67,0,0,0,5.82,2.12,8.73,8.73,0,0,0,3.94-.92,9.61,9.61,0,0,0,3.24-2.6l4.66,4.51a11.49,11.49,0,0,1-3.05,2.81,14.15,14.15,0,0,1-4.07,1.76,18.6,18.6,0,0,1-4.81.6Z" transform="translate(-0.81 -0.1)"/><path class="cls-6" d="M145.59,779.44c-2-1.68-3-4.23-3-7.67,0-3.25.92-5.7,2.76-7.33S150,762,153.69,762h9.37l.44,5.2h-9.77a5.56,5.56,0,0,0-3.8,1.13,4.4,4.4,0,0,0-1.25,3.44,4.27,4.27,0,0,0,1.66,3.72,8.64,8.64,0,0,0,5.07,1.2,14.5,14.5,0,0,0,5.54-.79,2.61,2.61,0,0,0,1.82-2.48l.67,4.64a7.59,7.59,0,0,1-2.11,2.19,9.18,9.18,0,0,1-2.92,1.19,14.53,14.53,0,0,1-3.71.43Q148.61,781.92,145.59,779.44Zm17.17-18.84a7,7,0,0,0-1.73-5,6.55,6.55,0,0,0-4.9-1.79,12.6,12.6,0,0,0-3.86.6,11.21,11.21,0,0,0-3.35,1.68l-4.73-3.23a12.31,12.31,0,0,1,4.94-3.51,17.81,17.81,0,0,1,6.81-1.25,15.82,15.82,0,0,1,7,1.44,10,10,0,0,1,4.44,4.19,13.49,13.49,0,0,1,1.53,6.62v21.09h-6.16Z" transform="translate(-0.81 -0.1)"/><path class="cls-6" d="M185.23,768.52a7.5,7.5,0,0,0,1.76,5.35,6.42,6.42,0,0,0,5,1.88,6.79,6.79,0,0,0,4.92-1.68,6.37,6.37,0,0,0,1.74-4.79l.45,6.89a9.51,9.51,0,0,1-3.3,4.09,9.32,9.32,0,0,1-5.62,1.65q-5.46,0-8.43-3.51t-3-9.88v-20h6.47Zm13.39-20h6.45v33h-6.45Z" transform="translate(-0.81 -0.1)"/><path class="cls-6" d="M223.63,781.91l-2.55-.57a19.76,19.76,0,0,1-4.78-1.71,18.78,18.78,0,0,1-4.09-2.86l3.84-4.73a21.18,21.18,0,0,0,5.3,3,14.22,14.22,0,0,0,5.2,1,11.07,11.07,0,0,0,5.76-1.19,3.9,3.9,0,0,0,1.93-3.57,2.81,2.81,0,0,0-1.05-2.38,6,6,0,0,0-2.6-1.06c-1-.18-2.5-.34-4.38-.49h-.54a3.29,3.29,0,0,1-.54-.05h-.47a25.61,25.61,0,0,1-5.43-.93,7.39,7.39,0,0,1-3.7-2.56,8.45,8.45,0,0,1-1.47-5.36,10.77,10.77,0,0,1,1.43-5.81,8.65,8.65,0,0,1,4.25-3.48,18.93,18.93,0,0,1,7.08-1.15,24.51,24.51,0,0,1,4.9.47,21.59,21.59,0,0,1,8.55,3.78l-3.9,4.73a22.2,22.2,0,0,0-4.87-2.38,15.23,15.23,0,0,0-4.68-.8,8.87,8.87,0,0,0-5,1.13,3.79,3.79,0,0,0-1.65,3.38,2.25,2.25,0,0,0,.93,2,5.47,5.47,0,0,0,2.37.89c1,.15,2.3.27,4.06.38h1.2a28.67,28.67,0,0,1,5.89.92,8.05,8.05,0,0,1,4.08,2.77,9.35,9.35,0,0,1,1.65,6,10.68,10.68,0,0,1-1.52,5.89,9.29,9.29,0,0,1-4.59,3.51,21.71,21.71,0,0,1-7.7,1.17Z" transform="translate(-0.81 -0.1)"/><path class="cls-6" d="M257.53,781.91l-3.24-1.71a11.45,11.45,0,0,1-4.93-5,17.26,17.26,0,0,1-1.7-8v-3.76a19.06,19.06,0,0,1,1.64-8.35,11.69,11.69,0,0,1,4.74-5.27,14.79,14.79,0,0,1,7.49-1.8,12,12,0,0,1,7.05,2.06,12.93,12.93,0,0,1,4.46,6,26,26,0,0,1,1.53,9.37v2.16H252.36V762.4h16.06a11.2,11.2,0,0,0-2.08-6.27,5.86,5.86,0,0,0-4.81-2.23,7,7,0,0,0-5.7,2.41,10.35,10.35,0,0,0-2,6.82v4.19A8.52,8.52,0,0,0,256,773.6a8.18,8.18,0,0,0,6.12,2.19A10.12,10.12,0,0,0,266,775a11.26,11.26,0,0,0,3.45-2.22l4.26,4.25a18,18,0,0,1-5.49,3.64,15.8,15.8,0,0,1-6.13,1.28Z" transform="translate(-0.81 -0.1)"/><path class="cls-6" d="M308,781.44h-6.48V735.29H308Z" transform="translate(-0.81 -0.1)"/><path class="cls-6" d="M316.12,735.29h6.79v10.28l-6.79,7Z" transform="translate(-0.81 -0.1)"/><path class="cls-6" d="M328.15,748.49h6.47v33h-6.47Zm19.68,13a7.8,7.8,0,0,0-1.72-5.39,6.19,6.19,0,0,0-4.85-1.91,6.77,6.77,0,0,0-4.91,1.68,6.28,6.28,0,0,0-1.73,4.73l-.66-6.34a11.72,11.72,0,0,1,4-4.61A9.63,9.63,0,0,1,343.4,748a10.71,10.71,0,0,1,5.91,1.57,9.91,9.91,0,0,1,3.73,4.58,18.85,18.85,0,0,1,1.28,7.27v20h-6.47Zm19.67,0a7.58,7.58,0,0,0-1.8-5.39,6.72,6.72,0,0,0-5.08-1.91A6,6,0,0,0,356,756a7.56,7.56,0,0,0-1.65,5.21l-1.3-6.35a12.66,12.66,0,0,1,4.11-5.06,9.62,9.62,0,0,1,5.63-1.79,11.3,11.3,0,0,1,6.08,1.57,10,10,0,0,1,3.84,4.58,18.27,18.27,0,0,1,1.32,7.27v20H367.5Z" transform="translate(-0.81 -0.1)"/><path class="cls-6" d="M402.7,779.44c-2-1.68-3-4.23-3-7.67,0-3.25.92-5.7,2.76-7.33s4.62-2.44,8.34-2.44h9.37l.44,5.2h-9.77a5.55,5.55,0,0,0-3.79,1.13,4.34,4.34,0,0,0-1.26,3.44,4.28,4.28,0,0,0,1.67,3.72,8.63,8.63,0,0,0,5.06,1.2,14.5,14.5,0,0,0,5.54-.79,2.61,2.61,0,0,0,1.82-2.48l.67,4.64a7.59,7.59,0,0,1-2.11,2.19,9,9,0,0,1-2.91,1.28,14.53,14.53,0,0,1-3.71.43Q405.72,781.92,402.7,779.44Zm17.21-18.89a7,7,0,0,0-1.73-5,6.55,6.55,0,0,0-4.9-1.79,12.6,12.6,0,0,0-3.86.6,11.28,11.28,0,0,0-3.34,1.68l-4.74-3.23a12.31,12.31,0,0,1,4.94-3.51,17.81,17.81,0,0,1,6.81-1.25,15.82,15.82,0,0,1,7,1.44,10.07,10.07,0,0,1,4.45,4.19,13.59,13.59,0,0,1,1.52,6.62v21.14h-6.15Z" transform="translate(-0.81 -0.1)"/><path class="cls-6" d="M35.62,813.29h6.47v46.15H35.62Zm4,20.34H65.26v6.16H39.65ZM61.8,813.29h6.51v46.15H61.83Z" transform="translate(-0.81 -0.1)"/><path class="cls-6" d="M80.53,857.44c-2-1.68-3-4.23-3-7.67,0-3.25.92-5.7,2.76-7.33S84.92,840,88.64,840H98l.45,5.2h-9.8a5.55,5.55,0,0,0-3.74,1.08,4.37,4.37,0,0,0-1.25,3.44,4.28,4.28,0,0,0,1.61,3.72,8.63,8.63,0,0,0,5.06,1.2,14.5,14.5,0,0,0,5.54-.79,2.62,2.62,0,0,0,1.83-2.48l.66,4.64a7.59,7.59,0,0,1-2.11,2.19,9,9,0,0,1-2.9,1.28,14.53,14.53,0,0,1-3.71.43C85.57,859.91,82.54,859.07,80.53,857.44ZM97.7,838.6a7,7,0,0,0-1.73-5,6.57,6.57,0,0,0-4.91-1.79,12.54,12.54,0,0,0-3.85.6,11.22,11.22,0,0,0-3.3,1.6l-4.73-3.23a12.24,12.24,0,0,1,4.94-3.51,17.76,17.76,0,0,1,6.8-1.25,15.76,15.76,0,0,1,7,1.42,10,10,0,0,1,4.44,4.19,13.48,13.48,0,0,1,1.52,6.62v21.19H97.7Z" transform="translate(-0.81 -0.1)"/><path class="cls-6" d="M113.69,826.49h6.48v33h-6.48Zm16,6.22a7.93,7.93,0,0,0-3-.54,6.48,6.48,0,0,0-4.77,1.7,6.32,6.32,0,0,0-1.7,4.71l-.67-6.34a12.13,12.13,0,0,1,3.94-4.59,9.26,9.26,0,0,1,5.33-1.63,12.1,12.1,0,0,1,4.08.65,9.29,9.29,0,0,1,3.19,1.92l-4.22,5.71a5.72,5.72,0,0,0-2.21-1.59Z" transform="translate(-0.81 -0.1)"/><path class="cls-6" d="M141.43,826.49h6.48v33h-6.48Zm16,6.22a7.93,7.93,0,0,0-3-.54,6.48,6.48,0,0,0-4.77,1.7,6.32,6.32,0,0,0-1.7,4.71l-.67-6.34a12.13,12.13,0,0,1,3.94-4.59,9.26,9.26,0,0,1,5.33-1.63,12.1,12.1,0,0,1,4.08.65,9.29,9.29,0,0,1,3.19,1.92l-4.22,5.71a5.72,5.72,0,0,0-2.21-1.59Z" transform="translate(-0.81 -0.1)"/><path class="cls-6" d="M165.68,826.49h6.6l10.13,28.63-3.59,7Zm29.17,0-14,40.66a9.77,9.77,0,0,1-2,3.57,7,7,0,0,1-3,1.89,14.53,14.53,0,0,1-4.44.57h-1.3V867h1.3a5,5,0,0,0,2.87-.73,6,6,0,0,0,1.86-2.51l12.19-37.23Z" transform="translate(-0.81 -0.1)"/><path class="cls-6" d="M218.65,813.29h6.48v46.15h-6.48ZM222,835.38h14.76a6.76,6.76,0,0,0,3.68-1,6.52,6.52,0,0,0,2.46-2.79,9.32,9.32,0,0,0,.88-4.16,9.48,9.48,0,0,0-.88-4.19,6.67,6.67,0,0,0-2.46-2.8,6.76,6.76,0,0,0-3.68-1H222v-6.16h14.54a14.75,14.75,0,0,1,7.27,1.76,12.34,12.34,0,0,1,4.87,5,16.8,16.8,0,0,1,0,14.83,12.13,12.13,0,0,1-4.87,4.94,14.77,14.77,0,0,1-7.27,1.75H222Z" transform="translate(-0.81 -0.1)"/><path class="cls-6" d="M260.91,858.23a11.07,11.07,0,0,1-4.65-4.9,17.15,17.15,0,0,1-1.61-7.76V840.2a16.76,16.76,0,0,1,1.61-7.66,11,11,0,0,1,4.65-4.86,17,17,0,0,1,14.66,0,11.08,11.08,0,0,1,4.65,4.86,17,17,0,0,1,1.6,7.66v5.46a17.15,17.15,0,0,1-1.6,7.7,11.16,11.16,0,0,1-4.65,4.87A16.83,16.83,0,0,1,260.91,858.23Zm12.58-6.6a8.83,8.83,0,0,0,1.86-6v-5.46a8.65,8.65,0,0,0-1.86-5.93,7.61,7.61,0,0,0-10.5,0,8.6,8.6,0,0,0-1.86,5.93v5.46a8.78,8.78,0,0,0,1.86,6A7.55,7.55,0,0,0,273.49,851.63Z" transform="translate(-0.81 -0.1)"/><path class="cls-6" d="M288.51,826.49h14.85v5.84H288.51Zm5.25,30.9c-1.24-1.47-1.86-3.65-1.86-6.52v-34h6.48v34a3.1,3.1,0,0,0,.47,1.86,1.63,1.63,0,0,0,1.4.65h3.11v6.15h-3.74c-2.67,0-4.62-.65-5.86-2.09Z" transform="translate(-0.81 -0.1)"/><path class="cls-6" d="M309.71,826.49h14.85v5.84H309.71Zm5.25,30.9c-1.24-1.47-1.86-3.65-1.86-6.52v-34h6.48v34a3,3,0,0,0,.48,1.86,1.6,1.6,0,0,0,1.39.65h3.11v6.15h-3.74c-2.68,0-4.63-.65-5.86-2.09Z" transform="translate(-0.81 -0.1)"/><path class="cls-6" d="M342.37,859.91l-3.24-1.71a11.35,11.35,0,0,1-4.93-5,17.26,17.26,0,0,1-1.7-8v-3.76a19.34,19.34,0,0,1,1.63-8.35,11.77,11.77,0,0,1,4.75-5.27,14.79,14.79,0,0,1,7.49-1.8,11.87,11.87,0,0,1,7,2.06,12.82,12.82,0,0,1,4.46,6,25.77,25.77,0,0,1,1.58,9.36v2.16H337.19v-5.21h16.06a11.05,11.05,0,0,0-2.08-6.27,5.82,5.82,0,0,0-4.8-2.23,7,7,0,0,0-5.7,2.41,10.35,10.35,0,0,0-2,6.82v4.19a8.52,8.52,0,0,0,2.16,6.28,8.2,8.2,0,0,0,6.13,2.19,10.07,10.07,0,0,0,3.9-.79,11.19,11.19,0,0,0,3.46-2.22l4.25,4.25a18,18,0,0,1-5.49,3.64,15.76,15.76,0,0,1-6.12,1.28Z" transform="translate(-0.81 -0.1)"/><path class="cls-6" d="M368.3,826.49h6.47v33H368.3Zm16,6.22a7.93,7.93,0,0,0-3-.54,6.47,6.47,0,0,0-4.78,1.7,6.36,6.36,0,0,0-1.7,4.71l-.66-6.34a11.94,11.94,0,0,1,3.93-4.59,9.34,9.34,0,0,1,5.33-1.63,12.1,12.1,0,0,1,4.08.65,9.14,9.14,0,0,1,3.19,1.92l-4.22,5.71a5.39,5.39,0,0,0-2.21-1.59Z" transform="translate(-0.81 -0.1)"/><path class="cls-6" d="M410.91,826.49h16.48V832H410.91Zm3.5-4.47c0-2.92.66-5.1,2-6.56s3.4-2.17,6.2-2.17h4.77v6.15h-4.64a1.56,1.56,0,0,0-1.39.69,3.12,3.12,0,0,0-.48,1.81v37.5H414.4Z" transform="translate(-0.81 -0.1)"/><path class="cls-6" d="M435.52,857.44c-2-1.68-3-4.23-3-7.67,0-3.25.93-5.7,2.77-7.33s4.62-2.44,8.34-2.44H453l.44,5.2h-9.78a5.55,5.55,0,0,0-3.79,1.13,4.4,4.4,0,0,0-1.25,3.44,4.27,4.27,0,0,0,1.66,3.72,8.64,8.64,0,0,0,5.07,1.2,14.5,14.5,0,0,0,5.54-.79,2.61,2.61,0,0,0,1.82-2.48l.67,4.64a7.59,7.59,0,0,1-2.11,2.19,9,9,0,0,1-2.91,1.28,14.53,14.53,0,0,1-3.71.43Q438.53,859.92,435.52,857.44Zm17.17-18.84a7,7,0,0,0-1.73-5,6.55,6.55,0,0,0-4.9-1.79,12.6,12.6,0,0,0-3.86.6,11.21,11.21,0,0,0-3.35,1.68l-4.73-3.23a12.31,12.31,0,0,1,4.94-3.51,17.81,17.81,0,0,1,6.81-1.25,15.82,15.82,0,0,1,7,1.44,10,10,0,0,1,4.44,4.19,13.49,13.49,0,0,1,1.53,6.62v21.09h-6.16Z" transform="translate(-0.81 -0.1)"/><path class="cls-6" d="M468.69,826.49h6.47v33h-6.47Zm20,13a7.57,7.57,0,0,0-1.81-5.39,7.84,7.84,0,0,0-10-.23,6.28,6.28,0,0,0-1.73,4.73l-.67-6.34a11.72,11.72,0,0,1,4-4.61,9.63,9.63,0,0,1,5.44-1.61c3.57,0,6.34,1.16,8.3,3.5s2.94,5.65,2.94,9.92v20H488.7Z" transform="translate(-0.81 -0.1)"/><path class="cls-6" d="M36.41,935.44c-2-1.68-3-4.23-3-7.67,0-3.25.92-5.7,2.76-7.33S40.79,918,44.51,918h9.4l.44,5.2H44.54a5.56,5.56,0,0,0-3.8,1.13,4.4,4.4,0,0,0-1.25,3.44,4.23,4.23,0,0,0,1.67,3.67,8.63,8.63,0,0,0,5.06,1.2,14.5,14.5,0,0,0,5.54-.79,2.61,2.61,0,0,0,1.82-2.48l.67,4.64a7.59,7.59,0,0,1-2.11,2.19,9.14,9.14,0,0,1-2.91,1.24,14.53,14.53,0,0,1-3.71.43Q39.43,937.92,36.41,935.44ZM53.58,916.6a7,7,0,0,0-1.73-5,6.55,6.55,0,0,0-4.9-1.79,12.6,12.6,0,0,0-3.86.6,11.21,11.21,0,0,0-3.35,1.68L35,908.86a12.39,12.39,0,0,1,4.9-3.59A17.81,17.81,0,0,1,46.72,904a15.82,15.82,0,0,1,7,1.44,10,10,0,0,1,4.44,4.19,13.49,13.49,0,0,1,1.53,6.62v21.17H53.58Z" transform="translate(-0.81 -0.1)"/><path class="cls-6" d="M69.58,904.49h6.47v33H69.58Zm20,13a7.57,7.57,0,0,0-1.81-5.39,7.84,7.84,0,0,0-10-.23,6.28,6.28,0,0,0-1.73,4.73l-.66-6.34a11.72,11.72,0,0,1,4-4.61A9.63,9.63,0,0,1,84.84,904c3.58,0,6.34,1.16,8.3,3.5s2.94,5.65,2.94,9.92v20H89.57Z" transform="translate(-0.81 -0.1)"/><path class="cls-6" d="M110.15,936.44a9.93,9.93,0,0,1-3.88-4.59,17.61,17.61,0,0,1-1.34-7.24v-7.26a18.29,18.29,0,0,1,1.3-7.27,9.91,9.91,0,0,1,3.8-4.59,11,11,0,0,1,6-1.57,10,10,0,0,1,5.35,1.52,11.46,11.46,0,0,1,3.92,4.29l-.69,6.71a7.94,7.94,0,0,0-.76-3.59,5.27,5.27,0,0,0-2.21-2.27,7.35,7.35,0,0,0-3.5-.78,6.27,6.27,0,0,0-5,2,8.15,8.15,0,0,0-1.73,5.64v7.17a8,8,0,0,0,1.76,5.54,6.32,6.32,0,0,0,5,2,7,7,0,0,0,3.5-.81,5.3,5.3,0,0,0,2.21-2.33,8.2,8.2,0,0,0,.76-3.65l.45,7a9.37,9.37,0,0,1-3.23,4.1,9,9,0,0,1-5.5,1.65A11.66,11.66,0,0,1,110.15,936.44Zm14.46-45.15h6.48v46.15h-6.48Z" transform="translate(-0.81 -0.1)"/><path class="cls-6" d="M165.49,937.44H159V891.29h6.47Z" transform="translate(-0.81 -0.1)"/><path class="cls-6" d="M191.2,904.49h14.85v5.84H191.2Zm5.25,30.9c-1.24-1.47-1.86-3.65-1.86-6.52v-34h6.48v34a3.1,3.1,0,0,0,.47,1.86,1.63,1.63,0,0,0,1.4.65h3.11v6.15h-3.74c-2.67,0-4.62-.65-5.86-2.09Z" transform="translate(-0.81 -0.1)"/><path class="cls-6" d="M214.91,891.29h6.47v46.15h-6.47Zm20,26.15a7.57,7.57,0,0,0-1.81-5.39,6.66,6.66,0,0,0-5.07-1.91,6.86,6.86,0,0,0-4.91,1.65,6.15,6.15,0,0,0-1.73,4.67l-.66-6.35a11.62,11.62,0,0,1,4-4.52,9.7,9.7,0,0,1,5.44-1.6c3.58,0,6.34,1.16,8.3,3.5s2.94,5.65,2.94,9.92v20h-6.5Z" transform="translate(-0.81 -0.1)"/><path class="cls-6" d="M256.55,936.23a11.07,11.07,0,0,1-4.65-4.9,17.15,17.15,0,0,1-1.61-7.76V918.2a16.77,16.77,0,0,1,1.62-7.66,11,11,0,0,1,4.65-4.86,17,17,0,0,1,14.66,0,11.07,11.07,0,0,1,4.69,4.86,17,17,0,0,1,1.6,7.66v5.46a17.15,17.15,0,0,1-1.6,7.7,11.16,11.16,0,0,1-4.65,4.87,16.83,16.83,0,0,1-14.66,0Zm12.58-6.6a8.83,8.83,0,0,0,1.86-6v-5.46a8.65,8.65,0,0,0-1.86-5.93,7.61,7.61,0,0,0-10.5,0,8.6,8.6,0,0,0-1.86,5.93v5.46a8.78,8.78,0,0,0,1.86,6A7.55,7.55,0,0,0,269.13,929.63Z" transform="translate(-0.81 -0.1)"/><path class="cls-6" d="M292.35,924.52a7.5,7.5,0,0,0,1.76,5.35,6.42,6.42,0,0,0,5,1.88,6.84,6.84,0,0,0,4.92-1.68,6.37,6.37,0,0,0,1.74-4.79l.45,6.89a9.51,9.51,0,0,1-3.3,4.09,9.32,9.32,0,0,1-5.62,1.65q-5.46,0-8.43-3.51t-3-9.88v-20h6.48Zm13.39-20h6.44v33h-6.44Z" transform="translate(-0.81 -0.1)"/><path class="cls-6" d="M326.29,936.44a9.9,9.9,0,0,1-3.89-4.59,17.94,17.94,0,0,1-1.33-7.24v-7.26a18.11,18.11,0,0,1,1.3-7.27,9.89,9.89,0,0,1,3.79-4.59,11,11,0,0,1,6-1.57,10,10,0,0,1,5.35,1.52,11.55,11.55,0,0,1,3.92,4.29l-.67,6.73a7.94,7.94,0,0,0-.76-3.59,5.32,5.32,0,0,0-2.21-2.27,7.27,7.27,0,0,0-3.51-.78,6.27,6.27,0,0,0-5,2,8.17,8.17,0,0,0-1.76,5.62v7.17a8,8,0,0,0,1.76,5.54,6.32,6.32,0,0,0,5,2,7,7,0,0,0,3.51-.81A5.35,5.35,0,0,0,340,929a8.2,8.2,0,0,0,.76-3.65l.44,7a9.35,9.35,0,0,1-3.22,4.1,9,9,0,0,1-5.5,1.65A11.59,11.59,0,0,1,326.29,936.44Zm3.06,14.39-2.93-1.39a10.57,10.57,0,0,1-4.56-3.89l4.38-4a8.83,8.83,0,0,0,3,2.7,7.46,7.46,0,0,0,3.69,1,7.75,7.75,0,0,0,5.75-2,7.9,7.9,0,0,0,2-5.8V904.49h6.47v32a17,17,0,0,1-1.66,7.78,11.28,11.28,0,0,1-4.84,4.92,16.11,16.11,0,0,1-7.65,1.68Z" transform="translate(-0.81 -0.1)"/><path class="cls-6" d="M357.06,891.29h6.48v46.15h-6.48Zm20,26.18a7.57,7.57,0,0,0-1.81-5.39,6.72,6.72,0,0,0-5.08-1.91,6.84,6.84,0,0,0-4.9,1.65,6.1,6.1,0,0,0-1.73,4.67l-.63-6.35a11.62,11.62,0,0,1,4-4.52,9.74,9.74,0,0,1,5.45-1.6c3.57,0,6.34,1.16,8.3,3.5s2.93,5.65,2.93,9.92v20h-6.47Z" transform="translate(-0.81 -0.1)"/><path class="cls-6" d="M390.83,904.49h14.86v5.84H390.83Zm5.25,30.9c-1.23-1.47-1.85-3.65-1.85-6.52v-34h6.47v34a3,3,0,0,0,.48,1.86,1.62,1.62,0,0,0,1.4.65h3.11v6.15h-3.78c-2.67,0-4.61-.65-5.83-2.09Z" transform="translate(-0.81 -0.1)"/><path class="cls-6" d="M432,891.29h6.47v6.47H432Zm0,13.2h6.47v33H432Z" transform="translate(-0.81 -0.1)"/><path class="cls-6" d="M445.8,904.49h14.86v5.84H445.8Zm5.26,30.9c-1.24-1.47-1.86-3.65-1.86-6.52v-34h6.47v34a3,3,0,0,0,.48,1.86,1.62,1.62,0,0,0,1.4.65h3.11v6.15h-3.75c-2.67,0-4.62-.65-5.85-2.09Z" transform="translate(-0.81 -0.1)"/><path class="cls-6" d="M35,969.29h6.48v46.15H35Zm20,26.18a7.57,7.57,0,0,0-1.81-5.39,6.72,6.72,0,0,0-5.08-1.91,6.84,6.84,0,0,0-4.9,1.65,6.1,6.1,0,0,0-1.73,4.67l-.67-6.35a11.62,11.62,0,0,1,4-4.52,9.74,9.74,0,0,1,5.45-1.6c3.57,0,6.34,1.16,8.3,3.5s2.93,5.65,2.93,9.92v20H55Z" transform="translate(-0.81 -0.1)"/><path class="cls-6" d="M72.72,1013.44c-2-1.68-3-4.23-3-7.67,0-3.25.92-5.7,2.77-7.33S77.11,996,80.83,996H90.2l.44,5.2h-9.8a5.55,5.55,0,0,0-3.79,1.13,4.4,4.4,0,0,0-1.25,3.44,4.27,4.27,0,0,0,1.66,3.72,8.64,8.64,0,0,0,5.07,1.2,14.47,14.47,0,0,0,5.53-.79,2.62,2.62,0,0,0,1.83-2.48l.67,4.64a7.86,7.86,0,0,1-2.11,2.19,9,9,0,0,1-2.91,1.28,14.53,14.53,0,0,1-3.71.43Q75.74,1015.92,72.72,1013.44Zm17.19-18.89a7,7,0,0,0-1.73-5,6.55,6.55,0,0,0-4.9-1.79,12.6,12.6,0,0,0-3.86.6A11.21,11.21,0,0,0,76.07,990l-4.73-3.23a12.31,12.31,0,0,1,4.94-3.51,17.81,17.81,0,0,1,6.81-1.25,15.82,15.82,0,0,1,7,1.44,10,10,0,0,1,4.44,4.19,13.49,13.49,0,0,1,1.53,6.62v21.14H89.91Z" transform="translate(-0.81 -0.1)"/><path class="cls-6" d="M110.15,1014.44a9.93,9.93,0,0,1-3.88-4.59,17.61,17.61,0,0,1-1.34-7.24v-7.26a18.29,18.29,0,0,1,1.3-7.27,9.91,9.91,0,0,1,3.8-4.59,11,11,0,0,1,6-1.57,10,10,0,0,1,5.35,1.52,11.46,11.46,0,0,1,3.92,4.29l-.69,6.71a7.94,7.94,0,0,0-.76-3.59,5.27,5.27,0,0,0-2.21-2.27,7.35,7.35,0,0,0-3.5-.78,6.27,6.27,0,0,0-5,2,8.15,8.15,0,0,0-1.73,5.64v7.17a8,8,0,0,0,1.76,5.54,6.32,6.32,0,0,0,5,2,7,7,0,0,0,3.5-.81,5.3,5.3,0,0,0,2.21-2.33,8.2,8.2,0,0,0,.76-3.65l.45,7a9.37,9.37,0,0,1-3.23,4.1,9,9,0,0,1-5.5,1.65A11.66,11.66,0,0,1,110.15,1014.44Zm14.46-45.15h6.48v46.15h-6.48Z" transform="translate(-0.81 -0.1)"/><path class="cls-6" d="M167.11,1015.91l-2.56-.57a19.69,19.69,0,0,1-4.77-1.71,18.84,18.84,0,0,1-4.1-2.86l3.84-4.73a21.18,21.18,0,0,0,5.3,3,14.07,14.07,0,0,0,5.21,1,11.07,11.07,0,0,0,5.76-1.19,3.92,3.92,0,0,0,1.92-3.57,2.81,2.81,0,0,0-1.05-2.38,5.88,5.88,0,0,0-2.6-1.06c-1-.18-2.5-.34-4.38-.49h-.54a3.29,3.29,0,0,1-.54-.05h-.51a26,26,0,0,1-5.42-.93,7.29,7.29,0,0,1-3.7-2.56,8.39,8.39,0,0,1-1.48-5.36,10.86,10.86,0,0,1,1.43-5.81,8.65,8.65,0,0,1,4.25-3.48,18.93,18.93,0,0,1,7.08-1.15,24.51,24.51,0,0,1,4.9.47,22.66,22.66,0,0,1,4.46,1.41,23.24,23.24,0,0,1,4.1,2.37L179.8,991a22.2,22.2,0,0,0-4.87-2.38,15.23,15.23,0,0,0-4.68-.8,8.87,8.87,0,0,0-5,1.13,3.81,3.81,0,0,0-1.65,3.38,2.25,2.25,0,0,0,.94,2,5.39,5.39,0,0,0,2.36.89c1,.15,2.31.27,4.06.38h1.21a28.67,28.67,0,0,1,5.89.92,8,8,0,0,1,4.07,2.77,9.35,9.35,0,0,1,1.65,6,10.6,10.6,0,0,1-1.52,5.89,9.17,9.17,0,0,1-4.58,3.51,21.71,21.71,0,0,1-7.7,1.17Z" transform="translate(-0.81 -0.1)"/><path class="cls-6" d="M197.39,1014.23a11.07,11.07,0,0,1-4.65-4.9,17.15,17.15,0,0,1-1.61-7.76V996.2a16.76,16.76,0,0,1,1.61-7.66,11,11,0,0,1,4.65-4.86,17,17,0,0,1,14.66,0,11.08,11.08,0,0,1,4.65,4.86,17,17,0,0,1,1.6,7.66v5.46a17.15,17.15,0,0,1-1.6,7.7,11.16,11.16,0,0,1-4.65,4.87A16.83,16.83,0,0,1,197.39,1014.23Zm12.58-6.6a8.83,8.83,0,0,0,1.86-6v-5.46a8.65,8.65,0,0,0-1.86-5.93,7.61,7.61,0,0,0-10.5,0,8.6,8.6,0,0,0-1.86,5.93v5.46a8.78,8.78,0,0,0,1.86,6A7.55,7.55,0,0,0,210,1007.63Z" transform="translate(-0.81 -0.1)"/><path class="cls-6" d="M227.51,982.49H234v33h-6.47Zm19.67,13a7.84,7.84,0,0,0-1.71-5.39,6.21,6.21,0,0,0-4.86-1.91,6.74,6.74,0,0,0-4.9,1.68A6.28,6.28,0,0,0,234,994.6l-.67-6.34a11.72,11.72,0,0,1,4-4.61,9.79,9.79,0,0,1,5.44-1.61,10.7,10.7,0,0,1,5.9,1.57,9.85,9.85,0,0,1,3.73,4.58,18.64,18.64,0,0,1,1.29,7.27v20h-6.48Zm19.73,0a7.57,7.57,0,0,0-1.81-5.39,6.69,6.69,0,0,0-5.08-1.91,6,6,0,0,0-4.66,1.84,7.56,7.56,0,0,0-1.65,5.21l-1.3-6.35a12.43,12.43,0,0,1,4.11-5.06,9.62,9.62,0,0,1,5.63-1.79,11.3,11.3,0,0,1,6.08,1.57,10,10,0,0,1,3.84,4.58,18.27,18.27,0,0,1,1.32,7.27v20h-6.48Z" transform="translate(-0.81 -0.1)"/><path class="cls-6" d="M292.09,1015.91l-3.23-1.71a11.37,11.37,0,0,1-4.94-5,17.26,17.26,0,0,1-1.7-8v-3.76a19.35,19.35,0,0,1,1.64-8.35,11.75,11.75,0,0,1,4.74-5.27,14.79,14.79,0,0,1,7.49-1.8,12,12,0,0,1,7.05,2.06,12.82,12.82,0,0,1,4.46,6,25.74,25.74,0,0,1,1.54,9.36v2.16H286.91v-5.21H303a11.05,11.05,0,0,0-2.08-6.27,5.86,5.86,0,0,0-4.81-2.23,7,7,0,0,0-5.69,2.41,10.4,10.4,0,0,0-2,6.82v4.19a8.52,8.52,0,0,0,2.16,6.28,8.18,8.18,0,0,0,6.12,2.19,10.12,10.12,0,0,0,3.91-.79,11.31,11.31,0,0,0,3.46-2.22l4.25,4.25a18,18,0,0,1-5.49,3.64,15.62,15.62,0,0,1-6.13,1.28Z" transform="translate(-0.81 -0.1)"/><path class="cls-6" d="M315.49,982.49h14.85v5.84H315.49Zm5.25,30.9c-1.24-1.47-1.86-3.65-1.86-6.52v-34h6.48v34a3,3,0,0,0,.47,1.86,1.62,1.62,0,0,0,1.4.65h3.11v6.15h-3.75c-2.66,0-4.61-.65-5.85-2.09Z" transform="translate(-0.81 -0.1)"/><path class="cls-6" d="M339.23,969.29h6.47v46.15h-6.47Zm20,26.18a7.57,7.57,0,0,0-1.81-5.39,6.69,6.69,0,0,0-5.08-1.91,6.84,6.84,0,0,0-4.9,1.65,6.15,6.15,0,0,0-1.73,4.67l-.67-6.35a11.69,11.69,0,0,1,4-4.52,9.7,9.7,0,0,1,5.44-1.6c3.58,0,6.34,1.16,8.3,3.5s2.94,5.65,2.94,9.92v20h-6.48Z" transform="translate(-0.81 -0.1)"/><path class="cls-6" d="M375.53,969.29H382v6.47h-6.48Zm0,13.2H382v33h-6.48Z" transform="translate(-0.81 -0.1)"/><path class="cls-6" d="M391.85,982.49h6.47v33h-6.47Zm20,13A7.57,7.57,0,0,0,410,990.1a7.84,7.84,0,0,0-10-.23,6.28,6.28,0,0,0-1.73,4.73l-.66-6.34a11.72,11.72,0,0,1,4-4.61,9.79,9.79,0,0,1,5.44-1.61c3.58,0,6.34,1.16,8.3,3.5s2.94,5.65,2.94,9.92v20h-6.48Z" transform="translate(-0.81 -0.1)"/><path class="cls-6" d="M432.42,1014.44a9.93,9.93,0,0,1-3.88-4.59,17.61,17.61,0,0,1-1.34-7.24v-7.26a18.12,18.12,0,0,1,1.31-7.27,9.84,9.84,0,0,1,3.79-4.59,11,11,0,0,1,6-1.57,10,10,0,0,1,5.35,1.52,11.46,11.46,0,0,1,3.92,4.29l-.66,6.71a7.94,7.94,0,0,0-.76-3.59,5.27,5.27,0,0,0-2.21-2.27,7.35,7.35,0,0,0-3.5-.78,6.27,6.27,0,0,0-5,2,8.23,8.23,0,0,0-1.76,5.62v7.17a8,8,0,0,0,1.76,5.54,6.32,6.32,0,0,0,5,2,7,7,0,0,0,3.5-.81,5.3,5.3,0,0,0,2.21-2.33,8.2,8.2,0,0,0,.76-3.65l.45,7a9.37,9.37,0,0,1-3.23,4.1,9,9,0,0,1-5.5,1.65A11.67,11.67,0,0,1,432.42,1014.44Zm3.07,14.39-2.94-1.38a10.55,10.55,0,0,1-4.55-3.89l4.38-4a8.64,8.64,0,0,0,3,2.7,7.49,7.49,0,0,0,3.7,1,7.73,7.73,0,0,0,5.74-2,7.9,7.9,0,0,0,2-5.8v-33h6.48v32a16.87,16.87,0,0,1-1.67,7.78,11.22,11.22,0,0,1-4.84,4.92,16.11,16.11,0,0,1-7.65,1.68Z" transform="translate(-0.81 -0.1)"/><path class="cls-6" d="M32.44,1060.49H47.3v5.84H32.44Zm5.26,30.9c-1.24-1.47-1.86-3.65-1.86-6.52v-34h6.47v34a3,3,0,0,0,.48,1.86,1.62,1.62,0,0,0,1.4.65H47.3v6.15H43.55c-2.64.06-4.64-.67-5.85-2.09Z" transform="translate(-0.81 -0.1)"/><path class="cls-6" d="M61.48,1092.23a11.07,11.07,0,0,1-4.65-4.9,17.3,17.3,0,0,1-1.6-7.76v-5.37a16.91,16.91,0,0,1,1.6-7.66,11,11,0,0,1,4.65-4.86,15.18,15.18,0,0,1,7.34-1.66,15.19,15.19,0,0,1,7.33,1.66,11.08,11.08,0,0,1,4.65,4.86,17,17,0,0,1,1.6,7.66v5.46a17.18,17.18,0,0,1-1.6,7.7,11.16,11.16,0,0,1-4.65,4.87,15,15,0,0,1-7.33,1.68A14.86,14.86,0,0,1,61.48,1092.23Zm12.59-6.6a8.82,8.82,0,0,0,1.85-6v-5.46a8.64,8.64,0,0,0-1.85-5.93,6.7,6.7,0,0,0-5.25-2.1,6.64,6.64,0,0,0-5.26,2.1,8.66,8.66,0,0,0-1.85,5.93v5.46a8.82,8.82,0,0,0,1.85,6,6.6,6.6,0,0,0,5.26,2.12,6.6,6.6,0,0,0,5.25-2.12Z" transform="translate(-0.81 -0.1)"/><path class="cls-6" d="M113.33,1092.44a9.9,9.9,0,0,1-3.89-4.59,17.6,17.6,0,0,1-1.33-7.24v-7.26a18.11,18.11,0,0,1,1.3-7.27,9.89,9.89,0,0,1,3.79-4.59,11,11,0,0,1,6-1.57,10,10,0,0,1,5.35,1.52,11.24,11.24,0,0,1,3.92,4.29l-.66,6.73a7.82,7.82,0,0,0-.77-3.59,5.24,5.24,0,0,0-2.2-2.27,7.39,7.39,0,0,0-3.51-.78,6.31,6.31,0,0,0-5,2,8.23,8.23,0,0,0-1.76,5.62v7.17a8,8,0,0,0,1.76,5.54,6.32,6.32,0,0,0,5,2,7,7,0,0,0,3.51-.81A5.33,5.33,0,0,0,127,1085a8.07,8.07,0,0,0,.77-3.65l.44,7a9.48,9.48,0,0,1-3.22,4.1,9,9,0,0,1-5.51,1.65A11.52,11.52,0,0,1,113.33,1092.44Zm14.46-45.15h6.47v46.15h-6.47Z" transform="translate(-0.81 -0.1)"/><path class="cls-6" d="M149.4,1092.23a11.07,11.07,0,0,1-4.65-4.9,17.17,17.17,0,0,1-1.6-7.76v-5.37a16.75,16.75,0,0,1,1.6-7.66,11,11,0,0,1,4.65-4.86,17,17,0,0,1,14.66,0,11.08,11.08,0,0,1,4.65,4.86,17,17,0,0,1,1.6,7.66v5.46a17.15,17.15,0,0,1-1.6,7.7,11.16,11.16,0,0,1-4.65,4.87,16.83,16.83,0,0,1-14.66,0Zm12.58-6.6a8.78,8.78,0,0,0,1.86-6v-5.46a8.65,8.65,0,0,0-1.86-5.93,7.61,7.61,0,0,0-10.5,0,8.6,8.6,0,0,0-1.86,5.93v5.46a8.78,8.78,0,0,0,1.86,6A7.55,7.55,0,0,0,162,1085.63Z" transform="translate(-0.81 -0.1)"/><path class="cls-6" d="M194.12,1060.49h6.79l5.84,23.52,8.22-23.52h4.51L227.7,1084l5.84-23.52h6.76l-10.16,33h-4.89l-8-22.76-8,22.76h-4.89Z" transform="translate(-0.81 -0.1)"/><path class="cls-6" d="M247.25,1047.29h6.47v6.47h-6.47Zm0,13.2h6.47v33h-6.47Z" transform="translate(-0.81 -0.1)"/><path class="cls-6" d="M261,1060.49h14.89v5.84H261Zm5.26,30.9c-1.24-1.47-1.86-3.65-1.86-6.52v-34h6.49v34a3,3,0,0,0,.48,1.86,1.62,1.62,0,0,0,1.4.65h3.12v6.15h-3.75c-2.69,0-4.65-.65-5.88-2.09Z" transform="translate(-0.81 -0.1)"/><path class="cls-6" d="M284.76,1047.29h6.48v46.15h-6.48Zm20,26.18a7.57,7.57,0,0,0-1.81-5.39,6.72,6.72,0,0,0-5.08-1.91,6.84,6.84,0,0,0-4.9,1.65,6.1,6.1,0,0,0-1.73,4.67l-.67-6.35a11.62,11.62,0,0,1,4-4.52A9.74,9.74,0,0,1,300,1060c3.57,0,6.34,1.16,8.3,3.5s2.93,5.65,2.93,9.92v20h-6.47Z" transform="translate(-0.81 -0.1)"/><path class="cls-6" d="M35.62,1125.29h6.47v46.15H35.62Zm3.29,22.09h14.8a6.76,6.76,0,0,0,3.68-1,6.52,6.52,0,0,0,2.46-2.79,9.45,9.45,0,0,0,.87-4.16,9.64,9.64,0,0,0-.87-4.19,6.67,6.67,0,0,0-2.46-2.8,6.76,6.76,0,0,0-3.68-1H38.91v-6.16H53.49a14.71,14.71,0,0,1,7.26,1.76,12.36,12.36,0,0,1,4.88,5,16.8,16.8,0,0,1,0,14.83,12.22,12.22,0,0,1-4.88,4.94,14.7,14.7,0,0,1-7.26,1.75H38.91Z" transform="translate(-0.81 -0.1)"/><path class="cls-6" d="M75.29,1169.44c-2-1.68-3-4.23-3-7.67,0-3.25.93-5.7,2.77-7.33s4.62-2.44,8.34-2.44h9.37l.44,5.2h-9.8a5.55,5.55,0,0,0-3.79,1.13,4.4,4.4,0,0,0-1.25,3.44,4.27,4.27,0,0,0,1.66,3.72,8.64,8.64,0,0,0,5.07,1.2,14.5,14.5,0,0,0,5.54-.79,2.61,2.61,0,0,0,1.82-2.48l.67,4.64a7.59,7.59,0,0,1-2.11,2.19,9.12,9.12,0,0,1-2.91,1.19,14.53,14.53,0,0,1-3.71.43Q78.31,1171.92,75.29,1169.44Zm17.17-18.84a7,7,0,0,0-1.73-5,6.55,6.55,0,0,0-4.9-1.79,12.6,12.6,0,0,0-3.86.6,11.21,11.21,0,0,0-3.35,1.68l-4.71-3.31a12.31,12.31,0,0,1,4.94-3.51,17.81,17.81,0,0,1,6.81-1.25,15.82,15.82,0,0,1,7,1.44,10,10,0,0,1,4.44,4.19,13.49,13.49,0,0,1,1.53,6.62v21.17H92.46Z" transform="translate(-0.81 -0.1)"/><path class="cls-6" d="M108.46,1138.49h6.45v33h-6.47Zm16,6.22a7.93,7.93,0,0,0-3-.54,6.47,6.47,0,0,0-4.78,1.7,6.36,6.36,0,0,0-1.7,4.71l-.67-6.34a12.13,12.13,0,0,1,3.94-4.59,9.34,9.34,0,0,1,5.33-1.63,12.1,12.1,0,0,1,4.08.65,9.14,9.14,0,0,1,3.19,1.92l-4.22,5.71a5.39,5.39,0,0,0-2.21-1.59Z" transform="translate(-0.81 -0.1)"/><path class="cls-6" d="M144.91,1171.91l-2.55-.57a19.76,19.76,0,0,1-4.78-1.71,18.78,18.78,0,0,1-4.09-2.86l3.84-4.73a21.18,21.18,0,0,0,5.3,3,14,14,0,0,0,5.2,1,11.07,11.07,0,0,0,5.76-1.19,3.92,3.92,0,0,0,1.92-3.57,2.82,2.82,0,0,0-1-2.38,6,6,0,0,0-2.61-1.06c-1-.18-2.49-.34-4.38-.49h-1.58a25.61,25.61,0,0,1-5.43-.93,7.39,7.39,0,0,1-3.7-2.56,8.45,8.45,0,0,1-1.47-5.36,10.77,10.77,0,0,1,1.43-5.81,8.65,8.65,0,0,1,4.25-3.48,18.93,18.93,0,0,1,7.08-1.15,24.51,24.51,0,0,1,4.9.47,21.59,21.59,0,0,1,8.55,3.78l-3.9,4.73a22.2,22.2,0,0,0-4.87-2.38,15.23,15.23,0,0,0-4.68-.8,8.89,8.89,0,0,0-5,1.13,3.81,3.81,0,0,0-1.65,3.38,2.27,2.27,0,0,0,.94,2,5.39,5.39,0,0,0,2.36.89c1,.15,2.31.27,4.07.38H150a28.67,28.67,0,0,1,5.89.92,8.05,8.05,0,0,1,4.08,2.77,9.35,9.35,0,0,1,1.65,6,10.68,10.68,0,0,1-1.52,5.89,9.29,9.29,0,0,1-4.59,3.51,21.71,21.71,0,0,1-7.7,1.17Z" transform="translate(-0.81 -0.1)"/><path class="cls-6" d="M178.82,1171.91l-3.24-1.71a11.35,11.35,0,0,1-4.93-5,17.26,17.26,0,0,1-1.7-8v-3.76a19.34,19.34,0,0,1,1.63-8.35,11.77,11.77,0,0,1,4.75-5.27,14.79,14.79,0,0,1,7.49-1.8,12,12,0,0,1,7.05,2.06,12.73,12.73,0,0,1,4.45,6,25.54,25.54,0,0,1,1.59,9.36v2.16H173.65v-5.21h16.06a11.2,11.2,0,0,0-2.08-6.27,5.86,5.86,0,0,0-4.81-2.23,7,7,0,0,0-5.7,2.41,10.35,10.35,0,0,0-2,6.82v4.19a8.55,8.55,0,0,0,2.15,6.28,8.24,8.24,0,0,0,6.13,2.19,10.07,10.07,0,0,0,3.9-.79,11.19,11.19,0,0,0,3.46-2.22L195,1167a18,18,0,0,1-5.49,3.64,15.8,15.8,0,0,1-6.13,1.28Z" transform="translate(-0.81 -0.1)"/><path class="cls-6" d="M211.22,1162.93a2.88,2.88,0,0,0,.53,1.86,1.77,1.77,0,0,0,1.47.65h3.05v6.15h-3.81a7.17,7.17,0,0,1-5.69-2.28,9.31,9.31,0,0,1-2-6.44v-37.58h6.47Z" transform="translate(-0.81 -0.1)"/><path class="cls-6" d="M221,1138.49h14.88v5.84H221Zm5.26,30.9c-1.24-1.47-1.86-3.65-1.86-6.52v-34h6.48v34a3,3,0,0,0,.48,1.86,1.62,1.62,0,0,0,1.4.65h3.12v6.15h-3.75c-2.68,0-4.64-.65-5.87-2.09Z" transform="translate(-0.81 -0.1)"/><path class="cls-6" d="M250.07,1170.23a11.07,11.07,0,0,1-4.65-4.9,17.17,17.17,0,0,1-1.6-7.76v-5.37a16.75,16.75,0,0,1,1.6-7.66,11,11,0,0,1,4.65-4.86,17,17,0,0,1,14.67,0,11.08,11.08,0,0,1,4.65,4.86,17,17,0,0,1,1.6,7.66v5.46a17.18,17.18,0,0,1-1.6,7.7,11.16,11.16,0,0,1-4.65,4.87,16.85,16.85,0,0,1-14.67,0Zm12.59-6.6a8.82,8.82,0,0,0,1.85-6v-5.46a8.76,8.76,0,0,0-1.85-5.93,7.63,7.63,0,0,0-10.51,0,8.6,8.6,0,0,0-1.86,5.93v5.46a8.78,8.78,0,0,0,1.86,6A7.57,7.57,0,0,0,262.66,1163.63Z" transform="translate(-0.81 -0.1)"/><path class="cls-6" d="M280.19,1138.49h6.48v33h-6.48Zm20,13a7.57,7.57,0,0,0-1.81-5.39,7.85,7.85,0,0,0-10-.23,6.24,6.24,0,0,0-1.73,4.73l-.67-6.34a11.72,11.72,0,0,1,4-4.61,9.82,9.82,0,0,1,5.45-1.61c3.57,0,6.34,1.16,8.3,3.5s2.93,5.65,2.93,9.92v20h-6.47Z" transform="translate(-0.81 -0.1)"/><path class="cls-6" d="M320.77,1170.44a9.9,9.9,0,0,1-3.89-4.59,17.6,17.6,0,0,1-1.33-7.24v-7.26a18.11,18.11,0,0,1,1.3-7.27,9.89,9.89,0,0,1,3.79-4.59,11,11,0,0,1,6-1.57,10,10,0,0,1,5.34,1.52,11.24,11.24,0,0,1,3.92,4.29l-.66,6.73a7.82,7.82,0,0,0-.77-3.59,5.24,5.24,0,0,0-2.2-2.27,7.27,7.27,0,0,0-3.51-.78,6.27,6.27,0,0,0-5,2,8.16,8.16,0,0,0-1.77,5.62v7.17a7.94,7.94,0,0,0,1.77,5.54,6.31,6.31,0,0,0,5,2,7,7,0,0,0,3.51-.81,5.33,5.33,0,0,0,2.2-2.33,8.07,8.07,0,0,0,.77-3.65l.44,7a9.48,9.48,0,0,1-3.22,4.1,9,9,0,0,1-5.51,1.65A11.49,11.49,0,0,1,320.77,1170.44Zm3.06,14.39-2.92-1.39a10.57,10.57,0,0,1-4.56-3.89l4.38-4a8.83,8.83,0,0,0,3,2.7,7.6,7.6,0,0,0,3.7,1,7.75,7.75,0,0,0,5.75-2,7.9,7.9,0,0,0,2-5.8v-32.91h6.47v32a17,17,0,0,1-1.66,7.78,11.3,11.3,0,0,1-4.85,4.92,16.07,16.07,0,0,1-7.64,1.68Z" transform="translate(-0.81 -0.1)"/><path class="cls-6" d="M358,1158.52a7.5,7.5,0,0,0,1.77,5.35,6.42,6.42,0,0,0,5,1.88,6.79,6.79,0,0,0,4.92-1.68,6.34,6.34,0,0,0,1.75-4.79l.44,6.89a9.3,9.3,0,0,1-8.92,5.74c-3.64,0-6.44-1.17-8.42-3.51s-3-5.63-3-9.88v-20H358Zm13.4-20h6.44v33h-6.44Z" transform="translate(-0.81 -0.1)"/><path class="cls-6" d="M396.61,1171.91l-3.24-1.71a11.35,11.35,0,0,1-4.93-5,17.26,17.26,0,0,1-1.7-8v-3.76a19.34,19.34,0,0,1,1.63-8.35,11.77,11.77,0,0,1,4.75-5.27,14.79,14.79,0,0,1,7.49-1.8,11.87,11.87,0,0,1,7,2.06,12.75,12.75,0,0,1,4.46,6,25.53,25.53,0,0,1,1.54,9.36v2.16H391.43v-5.21h16.06a11.12,11.12,0,0,0-2.07-6.27,5.86,5.86,0,0,0-4.81-2.23,7,7,0,0,0-5.7,2.41,10.35,10.35,0,0,0-2,6.82v4.19a8.52,8.52,0,0,0,2.16,6.28,8.2,8.2,0,0,0,6.13,2.19,10.07,10.07,0,0,0,3.9-.79,11.19,11.19,0,0,0,3.46-2.22l4.25,4.25a17.71,17.71,0,0,1-5.49,3.64,15.76,15.76,0,0,1-6.12,1.28Z" transform="translate(-0.81 -0.1)"/><path class="cls-6" d="M420.16,1164.64h6.75v6.8h-6.79Z" transform="translate(-0.81 -0.1)"/><path class="cls-7" d="M1025.38,991c-1.47,6.14-2.28,12.4-4,18.49-4.27,15.11-10.63,29.07-22.19,40.11-12,11.38-26.23,17-42.78,17q-74.68-.09-149.36-.13c-2.2,0-2.81.66-2.7,2.77.16,3.26.15,6.54,0,9.81-.08,2,.46,2.77,2.56,2.62,2.39-.17,4.81,0,7.21,0q47.29,0,94.57-.07c2.73,0,3.58.66,3.56,3.48-.08,16.22.16,32.49,0,48.73-.09,11.37-6.14,19.77-14.63,26.58-10.67,8.53-23.3,12.87-36.42,15.75-23.23,5.12-46.78,6-70.47,4.83-15.48-.74-30.77-2.61-45.64-7.07-13.7-4.09-26.46-10-36.24-20.85-8.06-8.92-12.45-19.26-11.27-31.58.1-1,0-2.1,0-3.16v-94.58c0-11.09,2.23-21.57,8.13-31,8-12.92,20.25-19.83,34.58-23.53a75.78,75.78,0,0,1,19.08-2.35q52.2.06,104.39,0c11.57,0,22.78-1.75,33.08-7.39,15.36-8.43,23.53-22.1,27.5-38.68a77.08,77.08,0,0,0,2-18.29c-.08-16.22,0-32.48-.08-48.73,0-2.29.63-2.9,2.89-2.87,11,.11,21.92.18,32.88,0,14.37-.21,26.37,5.25,36.54,15,11,10.56,17.25,23.9,21.52,38.22a140.61,140.61,0,0,1,4.78,22.78,6,6,0,0,0,.51,1.29ZM885.15,1127.85a19.52,19.52,0,0,0-18.3-19.31c-13-.64-20.7,9.21-20.7,19.43a19.5,19.5,0,0,0,19.68,19.19C876.32,1147.26,885.13,1138.32,885.15,1127.85Z" transform="translate(-0.81 -0.1)"/><path class="cls-8" d="M725.34,853.75c25.6,0,51.14,0,76.7.06,2.56,0,3.33-.62,3.14-3.16a75.44,75.44,0,0,1,0-9.51c.11-2-.52-2.56-2.56-2.56-12,.09-23.84,0-35.76,0H700.29c-2.24,0-2.92-.52-2.92-2.85.06-16.53-.15-33.07,0-49.6.06-9.52,4.63-17.07,11.35-23.44,9.34-8.84,20.85-13.55,33-16.9,20.64-5.71,41.82-7,63.09-6.93,19.55.06,39,1.56,57.89,6.9,13.26,3.75,25.73,9.13,35.75,19,9.43,9.24,14.33,20.27,13.72,33.81-.51,11.41-.11,22.88-.11,34.31,0,21.54.21,43.07-.1,64.6-.39,28.16-15.77,47-43.07,53.7a79.25,79.25,0,0,1-18.78,2.28q-52.35-.07-104.68,0c-12,0-23.54,2-34,8.13-14.51,8.54-22.26,21.82-26.1,37.74a75.7,75.7,0,0,0-2.13,18.05c0,16.22,0,32.5.08,48.74,0,2.56-.48,3.41-3.25,3.41-10.57-.18-21.15-.23-31.72,0-17,.32-30.46-6.82-41.33-19.33-10.39-12-16.16-26.28-19.44-41.56-6.83-32-7.32-64,.26-96,3.83-16.13,10.74-30.85,23.11-42.4,11.5-10.72,25.16-16.38,41-16.44,24.51-.1,49,0,73.53,0Zm18.18-42a19.42,19.42,0,1,0-.55,0Z" transform="translate(-0.81 -0.1)"/><g id="g5193"><path id="path5113" class="cls-9" d="M98.31,497.25,62.14,99.07l389.67.13L416,496.93l-159.29,45Zm288.3-21.74,30.24-341H257.32l1.17,376.11Zm-144.24-291H203.63l-.46,204.09L128,368.08l.15,46.65,114.28,30.85V184.48Z" transform="translate(-0.81 -0.1)"/><path id="path5159" class="cls-10" d="M229.61,441.78c-5-1.53-29.78-8.21-55-15l-45.74-12.32V391.47c0-22.5,0-23,2.28-22.19,1.21.45,17.92,5,37.08,10.34l34.8,9.57.31-101.83.3-101.82h38V315c0,102.89-.3,129.49-1.36,129.49C239.5,444.36,234.63,443.14,229.61,441.78Z" transform="translate(-0.81 -0.1)"/><path id="path5157" class="cls-11" d="M128.1,414.72,128,368.05s48,13.52,75.22,20.49l.46-204h38.75v261Z" transform="translate(-0.81 -0.1)"/><path id="path5117" class="cls-12" d="M257.32,134.33h159.6l-30.31,341L257.32,510.47ZM378.4,418.22l10.49-127.51-77.51,8.66V231.29l82.67-.31,3.35-46.5-124.78.61,1.71,169.3,75.38-12.92-1.07,37.68-76,20.22.76,46.2,105-27.36Z" transform="translate(-0.81 -0.1)"/></g><path class="cls-6" d="M547.71,141.18h6.45v46.15h-6.45Zm3.85,40.15h12.51q4.92,0,7.17-1.88a6.45,6.45,0,0,0,2.25-5.26v-.1a9.33,9.33,0,0,0-.8-4,5.73,5.73,0,0,0-2.56-2.59,9.71,9.71,0,0,0-4.47-.9h-14.1v-5.87h14.15a7.78,7.78,0,0,0,5.41-1.68,6.49,6.49,0,0,0,1.82-5,6.4,6.4,0,0,0-2-5.17c-1.35-1.14-3.39-1.71-6.09-1.71H551.56v-6h14.38a16.66,16.66,0,0,1,7.49,1.52,10.18,10.18,0,0,1,4.51,4.32,14,14,0,0,1,1.49,6.66,10.9,10.9,0,0,1-.92,4.46,9.14,9.14,0,0,1-2.81,3.56,10.58,10.58,0,0,1-4.68,2,10.12,10.12,0,0,1,7.93,5.9,12,12,0,0,1,1.08,5.08v.1a12.92,12.92,0,0,1-1.65,6.6,11.07,11.07,0,0,1-4.73,4.41,15.72,15.72,0,0,1-7.17,1.56H551.56Z" transform="translate(-0.81 -0.1)"/><path class="cls-6" d="M598,187.8l-3.24-1.71a11.47,11.47,0,0,1-4.94-5,17.43,17.43,0,0,1-1.69-8v-3.76a19.49,19.49,0,0,1,1.63-8.35,11.67,11.67,0,0,1,4.75-5.27,14.62,14.62,0,0,1,7.49-1.8,11.8,11.8,0,0,1,7,2.06,12.82,12.82,0,0,1,4.46,6,25.58,25.58,0,0,1,1.54,9.37v2.16H592.82v-5.21h16.06A11,11,0,0,0,606.8,162a5.82,5.82,0,0,0-4.8-2.23,7,7,0,0,0-5.7,2.41,10.42,10.42,0,0,0-2,6.82v4.19a8.56,8.56,0,0,0,2.16,6.28,8.24,8.24,0,0,0,6.13,2.19,10.07,10.07,0,0,0,3.9-.79,11.38,11.38,0,0,0,3.46-2.22l4.25,4.25a18.07,18.07,0,0,1-5.49,3.64,15.72,15.72,0,0,1-6.12,1.28Z" transform="translate(-0.81 -0.1)"/><path class="cls-6" d="M632.71,187.8l-3.19-1.68a11.3,11.3,0,0,1-4.81-4.89,16.6,16.6,0,0,1-1.69-7.74v-5.43a16.21,16.21,0,0,1,1.69-7.65,11.27,11.27,0,0,1,4.87-4.84,16.41,16.41,0,0,1,7.7-1.66,18.41,18.41,0,0,1,4.84.61,14.13,14.13,0,0,1,4.07,1.8,11,11,0,0,1,3,2.85l-4.7,4.16a9.68,9.68,0,0,0-3.27-2.44,9.2,9.2,0,0,0-3.9-.86,7.79,7.79,0,0,0-5.81,2.1,8.05,8.05,0,0,0-2.06,5.9v5.43a8.33,8.33,0,0,0,2,6,7.7,7.7,0,0,0,5.82,2.12,8.67,8.67,0,0,0,3.94-.92,9.6,9.6,0,0,0,3.23-2.6l4.67,4.51a11.67,11.67,0,0,1-3.05,2.81,14.21,14.21,0,0,1-4.08,1.76,18.52,18.52,0,0,1-4.8.6Z" transform="translate(-0.81 -0.1)"/><path class="cls-6" d="M657.71,185.33q-3-2.52-3-7.67c0-3.25.92-5.7,2.76-7.33s4.63-2.44,8.35-2.44h9.36l.45,5.2h-9.78a5.55,5.55,0,0,0-3.79,1.13,4.37,4.37,0,0,0-1.25,3.44,4.3,4.3,0,0,0,1.66,3.72,8.68,8.68,0,0,0,5.07,1.2,14.45,14.45,0,0,0,5.53-.79,2.62,2.62,0,0,0,1.83-2.48l.66,4.64a7.47,7.47,0,0,1-2.11,2.19,9.08,9.08,0,0,1-2.9,1.28,14.48,14.48,0,0,1-3.71.43C662.77,187.8,659.71,187,657.71,185.33Zm17.17-18.84a7,7,0,0,0-1.73-5,6.53,6.53,0,0,0-4.9-1.79,12.65,12.65,0,0,0-3.86.6A11.46,11.46,0,0,0,661,162l-4.73-3.23a12.38,12.38,0,0,1,4.94-3.51,17.76,17.76,0,0,1,6.8-1.25,15.79,15.79,0,0,1,7,1.44,10,10,0,0,1,4.44,4.19,13.38,13.38,0,0,1,1.53,6.62v21.09h-6.16Z" transform="translate(-0.81 -0.1)"/><path class="cls-6" d="M697.37,174.41a7.6,7.6,0,0,0,1.76,5.35,6.47,6.47,0,0,0,5,1.88,6.81,6.81,0,0,0,4.92-1.68,6.37,6.37,0,0,0,1.74-4.79l.45,6.89a9.5,9.5,0,0,1-3.3,4.09,9.38,9.38,0,0,1-5.62,1.65q-5.46,0-8.43-3.51t-3-9.88v-20h6.48Zm13.39-20h6.45v32.92h-6.45Z" transform="translate(-0.81 -0.1)"/><path class="cls-6" d="M735.77,187.8l-2.55-.57a19.76,19.76,0,0,1-4.78-1.71,19,19,0,0,1-4.09-2.86l3.84-4.73a21.67,21.67,0,0,0,5.3,3,14.48,14.48,0,0,0,5.2,1,11.07,11.07,0,0,0,5.76-1.19,3.94,3.94,0,0,0,1.92-3.57,2.81,2.81,0,0,0-1-2.38,5.92,5.92,0,0,0-2.61-1.06c-1-.18-2.49-.34-4.38-.49H736.8a26.26,26.26,0,0,1-5.43-.93,7.46,7.46,0,0,1-3.7-2.56,8.57,8.57,0,0,1-1.47-5.36,10.85,10.85,0,0,1,1.42-5.81,8.72,8.72,0,0,1,4.26-3.48A18.92,18.92,0,0,1,739,154a24.54,24.54,0,0,1,4.91.47,22.45,22.45,0,0,1,4.46,1.41,23.16,23.16,0,0,1,4.09,2.37l-3.9,4.73a22,22,0,0,0-4.87-2.38,14.67,14.67,0,0,0-4.69-.8,8.83,8.83,0,0,0-5,1.13,3.81,3.81,0,0,0-1.65,3.38,2.31,2.31,0,0,0,.94,2,5.56,5.56,0,0,0,2.36.89c1,.15,2.31.27,4.07.38h1a.61.61,0,0,1,.19,0,28.67,28.67,0,0,1,5.89.92,8,8,0,0,1,4.08,2.77,9.35,9.35,0,0,1,1.65,6,10.6,10.6,0,0,1-1.52,5.89,9.29,9.29,0,0,1-4.59,3.51,21.68,21.68,0,0,1-7.7,1.17Z" transform="translate(-0.81 -0.1)"/><path class="cls-6" d="M769.71,187.8l-3.24-1.71a11.45,11.45,0,0,1-4.93-5,17.29,17.29,0,0,1-1.7-8v-3.76a19.49,19.49,0,0,1,1.63-8.35,11.67,11.67,0,0,1,4.75-5.27,14.62,14.62,0,0,1,7.49-1.8,11.8,11.8,0,0,1,7,2.06,12.75,12.75,0,0,1,4.46,6,25.53,25.53,0,0,1,1.54,9.36v2.16H764.5v-5.21h16.06a11.2,11.2,0,0,0-2.08-6.27,5.84,5.84,0,0,0-4.81-2.23,7,7,0,0,0-5.7,2.41,10.35,10.35,0,0,0-2,6.82v4.19a8.55,8.55,0,0,0,2.15,6.28,8.24,8.24,0,0,0,6.13,2.19,10.07,10.07,0,0,0,3.9-.79,11.19,11.19,0,0,0,3.46-2.22l4.26,4.25a17.94,17.94,0,0,1-5.5,3.64,15.72,15.72,0,0,1-6.12,1.28Z" transform="translate(-0.81 -0.1)"/><path class="cls-6" d="M810.52,154.38h14.85v5.84H810.52Zm5.25,30.9c-1.24-1.47-1.86-3.65-1.86-6.52v-34h6.48v34a3.22,3.22,0,0,0,.47,1.86,1.63,1.63,0,0,0,1.4.65h3.11v6.15h-3.75q-4,.06-5.85-2.09Z" transform="translate(-0.81 -0.1)"/><path class="cls-6" d="M834.26,141.18h6.45v46.15h-6.47Zm20,26.18a7.47,7.47,0,0,0-1.81-5.39,6.67,6.67,0,0,0-5.08-1.91,6.79,6.79,0,0,0-4.9,1.65,6.14,6.14,0,0,0-1.73,4.67l-.67-6.35a11.78,11.78,0,0,1,4-4.52,9.73,9.73,0,0,1,5.44-1.6c3.58,0,6.34,1.16,8.3,3.5s2.9,5.65,2.9,9.92v20h-6.48Z" transform="translate(-0.81 -0.1)"/><path class="cls-6" d="M879.48,187.8l-3.23-1.71a11.47,11.47,0,0,1-4.94-5,17.44,17.44,0,0,1-1.7-8v-3.76a19.35,19.35,0,0,1,1.64-8.35,11.81,11.81,0,0,1,4.74-5.27,14.72,14.72,0,0,1,7.49-1.8,11.87,11.87,0,0,1,7,2.06,12.82,12.82,0,0,1,4.46,6,25.79,25.79,0,0,1,1.54,9.37v2.16H874.31v-5.21h16.06a11,11,0,0,0-2.08-6.27,5.83,5.83,0,0,0-4.81-2.23,7,7,0,0,0-5.69,2.41,10.42,10.42,0,0,0-2,6.82v4.19a8.56,8.56,0,0,0,2.16,6.28,8.23,8.23,0,0,0,6.12,2.19,10.12,10.12,0,0,0,3.91-.79,11.38,11.38,0,0,0,3.46-2.22l4.25,4.25a18.07,18.07,0,0,1-5.49,3.64,15.77,15.77,0,0,1-6.13,1.28Z" transform="translate(-0.81 -0.1)"/><path class="cls-6" d="M929.34,178.82a2.94,2.94,0,0,0,.53,1.86,1.77,1.77,0,0,0,1.47.65h3v6.15h-3.81a7.18,7.18,0,0,1-5.69-2.28,9.37,9.37,0,0,1-2-6.44V141.18h6.47Z" transform="translate(-0.81 -0.1)"/><path class="cls-6" d="M941.71,141.18h6.48v6.47h-6.48Zm0,13.2h6.48v33h-6.48Z" transform="translate(-0.81 -0.1)"/><path class="cls-6" d="M966.71,187.8l-2.55-.57a19.76,19.76,0,0,1-4.78-1.71,19,19,0,0,1-4.09-2.86l3.84-4.73a21.67,21.67,0,0,0,5.3,3,14.48,14.48,0,0,0,5.2,1,11.07,11.07,0,0,0,5.76-1.19,3.94,3.94,0,0,0,1.92-3.57,2.81,2.81,0,0,0-1-2.38,5.92,5.92,0,0,0-2.61-1.06c-1-.18-2.49-.34-4.38-.49h-1.58a26.26,26.26,0,0,1-5.43-.93,7.46,7.46,0,0,1-3.7-2.56,8.57,8.57,0,0,1-1.47-5.36,10.85,10.85,0,0,1,1.42-5.81,8.72,8.72,0,0,1,4.26-3.48,18.92,18.92,0,0,1,7.07-1.15,24.54,24.54,0,0,1,4.91.47,22.45,22.45,0,0,1,4.46,1.41,23.16,23.16,0,0,1,4.09,2.37l-3.9,4.73a22,22,0,0,0-4.87-2.38,14.67,14.67,0,0,0-4.69-.8,8.81,8.81,0,0,0-4.95,1.13,3.81,3.81,0,0,0-1.65,3.38,2.28,2.28,0,0,0,.94,2,5.56,5.56,0,0,0,2.36.89c1,.15,2.31.27,4.07.38h1a.61.61,0,0,1,.19,0,28.67,28.67,0,0,1,5.89.92,8,8,0,0,1,4.08,2.77,9.35,9.35,0,0,1,1.65,6,10.53,10.53,0,0,1-1.53,5.89,9.23,9.23,0,0,1-4.58,3.51,21.68,21.68,0,0,1-7.7,1.17Z" transform="translate(-0.81 -0.1)"/><path class="cls-6" d="M989.17,154.38H1004v5.84H989.17Zm5.25,30.9c-1.23-1.47-1.85-3.65-1.85-6.52v-34H999v34a3.13,3.13,0,0,0,.48,1.86,1.65,1.65,0,0,0,1.39.65H1004v6.15h-3.74q-4,.06-5.86-2.09Z" transform="translate(-0.81 -0.1)"/><path class="cls-6" d="M552.42,264.12a11.18,11.18,0,0,1-4.65-4.9,17.2,17.2,0,0,1-1.6-7.76v-5.37a16.75,16.75,0,0,1,1.6-7.66,10.93,10.93,0,0,1,4.65-4.86,17,17,0,0,1,14.66,0,11,11,0,0,1,4.63,4.86,16.86,16.86,0,0,1,1.61,7.66v5.46a17.06,17.06,0,0,1-1.61,7.7,11.22,11.22,0,0,1-4.65,4.87,16.83,16.83,0,0,1-14.66,0Zm12.58-6.6a8.78,8.78,0,0,0,1.86-6v-5.46a8.6,8.6,0,0,0-1.86-5.93,7.61,7.61,0,0,0-10.5,0,8.6,8.6,0,0,0-1.86,5.93v5.46a8.78,8.78,0,0,0,1.86,6A7.55,7.55,0,0,0,565,257.52Z" transform="translate(-0.81 -0.1)"/><path class="cls-6" d="M580,232.38h16.47v5.52H580Zm3.49-4.47q0-4.38,2-6.56c1.33-1.45,3.4-2.18,6.2-2.17h4.76v6.15h-4.63a1.59,1.59,0,0,0-1.4.7,3.19,3.19,0,0,0-.47,1.81v37.49h-6.48Z" transform="translate(-0.81 -0.1)"/><path class="cls-6" d="M621.23,219.18h6.48v46.15h-6.47Zm3.17,0h25.87v6.15H624.4Zm0,20.56h22.38v6.16H624.4Z" transform="translate(-0.81 -0.1)"/><path class="cls-6" d="M656.93,232.38h6.48v32.95h-6.48Zm16,6.22a7.7,7.7,0,0,0-3-.54,6.44,6.44,0,0,0-4.77,1.7,6.35,6.35,0,0,0-1.7,4.71l-.75-6.34a12.05,12.05,0,0,1,3.94-4.59,9.23,9.23,0,0,1,5.33-1.63,12,12,0,0,1,4.08.65,8.9,8.9,0,0,1,3.19,1.92L675,240.19a5.39,5.39,0,0,0-2.13-1.59Z" transform="translate(-0.81 -0.1)"/><path class="cls-6" d="M686.1,263.33q-3-2.52-3-7.67c0-3.25.92-5.7,2.76-7.33s4.62-2.44,8.35-2.44h9.36l.44,5.2h-9.77a5.58,5.58,0,0,0-3.8,1.13,4.44,4.44,0,0,0-1.25,3.44,4.28,4.28,0,0,0,1.67,3.72,8.63,8.63,0,0,0,5.06,1.2,14.69,14.69,0,0,0,5.54-.79,2.61,2.61,0,0,0,1.82-2.48L704,262a7.72,7.72,0,0,1-2.11,2.19,9.13,9.13,0,0,1-2.91,1.28,14.48,14.48,0,0,1-3.71.43Q689.12,265.8,686.1,263.33Zm17.17-18.84a6.89,6.89,0,0,0-1.73-5,6.53,6.53,0,0,0-4.9-1.79,12.65,12.65,0,0,0-3.86.6,11.46,11.46,0,0,0-3.35,1.68l-4.72-3.31a12.27,12.27,0,0,1,4.93-3.51,17.65,17.65,0,0,1,6.81-1.25,15.65,15.65,0,0,1,7,1.44,10,10,0,0,1,4.45,4.19,13.59,13.59,0,0,1,1.52,6.62v21.17h-6.16Z" transform="translate(-0.81 -0.1)"/><path class="cls-6" d="M719.27,232.38h6.44v32.95h-6.47Zm19.68,13a7.73,7.73,0,0,0-1.72-5.39,6.19,6.19,0,0,0-4.85-1.91,6.74,6.74,0,0,0-4.91,1.68,6.32,6.32,0,0,0-1.73,4.73l-.66-6.34a11.72,11.72,0,0,1,4-4.61,9.66,9.66,0,0,1,5.44-1.61,10.71,10.71,0,0,1,5.91,1.57,9.85,9.85,0,0,1,3.73,4.58,18.6,18.6,0,0,1,1.28,7.27v20H739Zm19.67,0a7.47,7.47,0,0,0-1.81-5.39,6.65,6.65,0,0,0-5.07-1.91,6,6,0,0,0-4.67,1.84,7.56,7.56,0,0,0-1.65,5.21l-1.3-6.35a12.59,12.59,0,0,1,4.11-5.06,9.55,9.55,0,0,1,5.63-1.79,11.22,11.22,0,0,1,6.08,1.57,9.88,9.88,0,0,1,3.84,4.58,18.1,18.1,0,0,1,1.32,7.27v20h-6.48Z" transform="translate(-0.81 -0.1)"/><path class="cls-6" d="M783.86,265.8l-3.24-1.71a11.47,11.47,0,0,1-4.94-5,17.43,17.43,0,0,1-1.69-8v-3.76a19.49,19.49,0,0,1,1.63-8.35,11.81,11.81,0,0,1,4.74-5.27,14.75,14.75,0,0,1,7.5-1.8,11.8,11.8,0,0,1,7,2.06,12.82,12.82,0,0,1,4.46,6,25.58,25.58,0,0,1,1.54,9.37v2.16H778.71v-5.21h16a11,11,0,0,0-2.08-6.27,5.82,5.82,0,0,0-4.8-2.23,7,7,0,0,0-5.7,2.41,10.42,10.42,0,0,0-2,6.82v4.19a8.56,8.56,0,0,0,2.16,6.28,8.24,8.24,0,0,0,6.13,2.19,10.07,10.07,0,0,0,3.9-.79,11.38,11.38,0,0,0,3.46-2.22l4.25,4.25a18.07,18.07,0,0,1-5.49,3.64,15.72,15.72,0,0,1-6.12,1.28Z" transform="translate(-0.81 -0.1)"/><path class="cls-6" d="M805.71,232.38h6.76l5.84,23.52,8.22-23.52H831l8.22,23.52,5.84-23.52h6.76l-10.21,32.95h-4.89l-8-22.76-8,22.76h-4.88Z" transform="translate(-0.81 -0.1)"/><path class="cls-6" d="M863.46,264.12a11,11,0,0,1-4.65-4.9,17.31,17.31,0,0,1-1.61-7.76v-5.37a16.89,16.89,0,0,1,1.61-7.66,10.93,10.93,0,0,1,4.65-4.86,17,17,0,0,1,14.66,0,10.93,10.93,0,0,1,4.65,4.86,16.88,16.88,0,0,1,1.6,7.66v5.46a16.92,16.92,0,0,1-1.6,7.7,11.22,11.22,0,0,1-4.65,4.87,16.83,16.83,0,0,1-14.66,0Zm12.58-6.6a8.78,8.78,0,0,0,1.86-6v-5.46a8.6,8.6,0,0,0-1.86-5.93,7.63,7.63,0,0,0-10.51,0,8.64,8.64,0,0,0-1.85,5.93v5.46a8.84,8.84,0,0,0,1.85,6A7.57,7.57,0,0,0,876,257.52Z" transform="translate(-0.81 -0.1)"/><path class="cls-6" d="M893.58,232.38h6.47v32.95h-6.47Zm16,6.22a7.7,7.7,0,0,0-3-.54,6.44,6.44,0,0,0-4.77,1.7,6.35,6.35,0,0,0-1.7,4.71l-.67-6.34a12.05,12.05,0,0,1,3.94-4.59,9.23,9.23,0,0,1,5.33-1.63,12,12,0,0,1,4.08.65,8.9,8.9,0,0,1,3.19,1.92l-4.27,5.71a5.35,5.35,0,0,0-2.17-1.59Z" transform="translate(-0.81 -0.1)"/><path class="cls-6" d="M921.31,219.18h6.48v46.15h-6.48Zm2.8,33.64,17-20.44h7.6l-25,28.12Zm7.65-6.51,4.15-4.31,14.38,23.33h-7Z" transform="translate(-0.81 -0.1)"/><path class="cls-6" d="M964.42,265.8l-2.56-.57a20.19,20.19,0,0,1-4.78-1.71,19,19,0,0,1-4.09-2.86l3.84-4.73a22,22,0,0,0,5.3,3,14.53,14.53,0,0,0,5.21,1,11,11,0,0,0,5.75-1.19,3.9,3.9,0,0,0,1.92-3.57,2.78,2.78,0,0,0-1-2.38,5.88,5.88,0,0,0-2.6-1.06c-1-.18-2.5-.34-4.38-.49h-1.59a26.26,26.26,0,0,1-5.43-.93,7.46,7.46,0,0,1-3.7-2.56,8.57,8.57,0,0,1-1.47-5.36,10.84,10.84,0,0,1,1.43-5.81,8.65,8.65,0,0,1,4.25-3.48A18.77,18.77,0,0,1,967.6,232a24.44,24.44,0,0,1,4.9.47,21.59,21.59,0,0,1,8.55,3.78l-3.9,4.73a21.55,21.55,0,0,0-4.87-2.38,14.65,14.65,0,0,0-4.68-.8,8.83,8.83,0,0,0-5,1.13,3.79,3.79,0,0,0-1.65,3.38,2.3,2.3,0,0,0,.93,2,5.6,5.6,0,0,0,2.37.89c1,.15,2.3.27,4.06.38h1.2a28.67,28.67,0,0,1,5.89.92,8,8,0,0,1,4.08,2.77,9.35,9.35,0,0,1,1.65,6,10.6,10.6,0,0,1-1.52,5.89,9.29,9.29,0,0,1-4.59,3.51,21.85,21.85,0,0,1-7.69,1.17Z" transform="translate(-0.81 -0.1)"/><path class="cls-6" d="M547.12,297.18h6.47v6.47h-6.47Zm0,13.2h6.47v32.95h-6.47Z" transform="translate(-0.81 -0.1)"/><path class="cls-6" d="M572.16,343.8l-2.55-.57a19.76,19.76,0,0,1-4.78-1.71,19,19,0,0,1-4.09-2.86l3.84-4.73a21.18,21.18,0,0,0,5.3,3,14.48,14.48,0,0,0,5.2,1,11.07,11.07,0,0,0,5.76-1.19,3.94,3.94,0,0,0,1.92-3.57,2.78,2.78,0,0,0-1-2.38,5.88,5.88,0,0,0-2.6-1.06c-1-.18-2.49-.34-4.38-.49h-.54l-.54-.05h-.5a26.26,26.26,0,0,1-5.43-.93,7.39,7.39,0,0,1-3.7-2.56,8.51,8.51,0,0,1-1.48-5.36,10.93,10.93,0,0,1,1.43-5.81,8.72,8.72,0,0,1,4.26-3.48,18.92,18.92,0,0,1,7.07-1.15,24.54,24.54,0,0,1,4.91.47,22.45,22.45,0,0,1,4.46,1.41,23.16,23.16,0,0,1,4.09,2.37l-3.9,4.73A22,22,0,0,0,580,316.5a14.67,14.67,0,0,0-4.69-.8,8.83,8.83,0,0,0-5,1.13,3.81,3.81,0,0,0-1.65,3.38,2.28,2.28,0,0,0,.94,2,5.56,5.56,0,0,0,2.36.89c1,.15,2.31.27,4.07.38h1.2a28.67,28.67,0,0,1,5.89.92,8,8,0,0,1,4.08,2.77,9.35,9.35,0,0,1,1.65,6,10.53,10.53,0,0,1-1.53,5.89,9.23,9.23,0,0,1-4.58,3.51,21.68,21.68,0,0,1-7.7,1.17Z" transform="translate(-0.81 -0.1)"/><path class="cls-6" d="M621.07,334.82a3,3,0,0,0,.52,1.86,1.79,1.79,0,0,0,1.48.65h3v6.15h-3.76a7.19,7.19,0,0,1-5.7-2.28,9.42,9.42,0,0,1-2-6.44V297.18h6.47Z" transform="translate(-0.81 -0.1)"/><path class="cls-6" d="M638.71,342.12a11.18,11.18,0,0,1-4.65-4.9,17.31,17.31,0,0,1-1.61-7.76v-5.37a16.86,16.86,0,0,1,1.61-7.66,10.93,10.93,0,0,1,4.65-4.86,17,17,0,0,1,14.66,0,10.93,10.93,0,0,1,4.65,4.86,16.88,16.88,0,0,1,1.6,7.66v5.46a16.92,16.92,0,0,1-1.6,7.7,11.22,11.22,0,0,1-4.65,4.87A16.83,16.83,0,0,1,638.71,342.12Zm12.58-6.6a8.78,8.78,0,0,0,1.86-6v-5.46a8.6,8.6,0,0,0-1.86-5.93,7.61,7.61,0,0,0-10.5,0,8.6,8.6,0,0,0-1.86,5.93v5.46a8.78,8.78,0,0,0,1.86,6A7.55,7.55,0,0,0,651.29,335.52Z" transform="translate(-0.81 -0.1)"/><path class="cls-6" d="M668.84,310.38h6.47v32.95h-6.47Zm20,13A7.47,7.47,0,0,0,687,318a7.84,7.84,0,0,0-10-.23,6.32,6.32,0,0,0-1.73,4.73l-.67-6.34a11.88,11.88,0,0,1,4-4.61,9.66,9.66,0,0,1,5.44-1.61c3.58,0,6.34,1.16,8.3,3.5s2.94,5.65,2.94,9.92v20h-6.48Z" transform="translate(-0.81 -0.1)"/><path class="cls-6" d="M709.41,342.33a9.93,9.93,0,0,1-3.88-4.59,17.78,17.78,0,0,1-1.34-7.24v-7.26a18.43,18.43,0,0,1,1.3-7.27,9.92,9.92,0,0,1,3.8-4.59,11,11,0,0,1,6-1.57,9.84,9.84,0,0,1,5.35,1.52,11.24,11.24,0,0,1,3.92,4.29l-.67,6.73a7.69,7.69,0,0,0-.76-3.59,5.21,5.21,0,0,0-2.21-2.27,7.21,7.21,0,0,0-3.5-.78,6.29,6.29,0,0,0-5,2,8.24,8.24,0,0,0-1.71,5.62v7.17a8,8,0,0,0,1.76,5.54,6.37,6.37,0,0,0,5,2,7,7,0,0,0,3.5-.81,5.3,5.3,0,0,0,2.21-2.33,7.93,7.93,0,0,0,.76-3.65l.44,6.95a9.28,9.28,0,0,1-3.22,4.1,9,9,0,0,1-5.5,1.65A11.64,11.64,0,0,1,709.41,342.33Zm3.07,14.39-2.94-1.39a10.68,10.68,0,0,1-4.55-3.89l4.38-4a8.83,8.83,0,0,0,3,2.7,7.57,7.57,0,0,0,3.69.95,7.78,7.78,0,0,0,5.75-2,7.92,7.92,0,0,0,2-5.8V310.38h6.48v32a16.87,16.87,0,0,1-1.67,7.78,11.33,11.33,0,0,1-4.84,4.92,16.2,16.2,0,0,1-7.65,1.68Z" transform="translate(-0.81 -0.1)"/><path class="cls-6" d="M749.1,343.8l-3.23-1.71a11.47,11.47,0,0,1-4.94-5,17.44,17.44,0,0,1-1.7-8v-3.76a19.35,19.35,0,0,1,1.64-8.35,11.81,11.81,0,0,1,4.74-5.27,14.62,14.62,0,0,1,7.49-1.8,11.87,11.87,0,0,1,7,2.06,12.82,12.82,0,0,1,4.46,6,25.79,25.79,0,0,1,1.54,9.37v2.16H743.93v-5.21H760a11,11,0,0,0-2.08-6.27,5.84,5.84,0,0,0-4.81-2.23,7,7,0,0,0-5.7,2.41,10.35,10.35,0,0,0-2,6.82v4.19a8.56,8.56,0,0,0,2.16,6.28,8.23,8.23,0,0,0,6.12,2.19,10.12,10.12,0,0,0,3.91-.79,11.38,11.38,0,0,0,3.46-2.22l4.25,4.25a18.07,18.07,0,0,1-5.49,3.64,15.77,15.77,0,0,1-6.13,1.28Z" transform="translate(-0.81 -0.1)"/><path class="cls-6" d="M775,310.38h6.48v32.95H775Zm16,6.22a7.89,7.89,0,0,0-3-.54,6.44,6.44,0,0,0-4.77,1.7,6.31,6.31,0,0,0-1.7,4.71l-.67-6.34a12.05,12.05,0,0,1,3.94-4.59,9.23,9.23,0,0,1,5.33-1.63,12,12,0,0,1,4.08.65,9.14,9.14,0,0,1,3.19,1.92l-4.22,5.71A5.48,5.48,0,0,0,791,316.6Z" transform="translate(-0.81 -0.1)"/><path class="cls-6" d="M817.71,310.38h14.85v5.84H817.71Zm5.25,30.9c-1.24-1.47-1.85-3.65-1.85-6.52v-34h6.47v34a3.13,3.13,0,0,0,.48,1.86,1.61,1.61,0,0,0,1.39.65h3.11v6.15h-3.74q-4,.06-5.88-2.09Z" transform="translate(-0.81 -0.1)"/><path class="cls-6" d="M841.43,297.18h6.47v46.15h-6.47Zm20,26.18a7.57,7.57,0,0,0-1.8-5.39,6.67,6.67,0,0,0-5.08-1.91,6.83,6.83,0,0,0-4.91,1.65,6.14,6.14,0,0,0-1.73,4.67l-.66-6.35a11.62,11.62,0,0,1,4-4.52,9.73,9.73,0,0,1,5.44-1.6c3.58,0,6.35,1.16,8.3,3.5s2.94,5.65,2.94,9.92v20h-6.48Z" transform="translate(-0.81 -0.1)"/><path class="cls-6" d="M879.17,341.33q-3-2.52-3-7.67c0-3.25.92-5.7,2.76-7.33s4.63-2.44,8.35-2.44h9.36l.45,5.2h-9.78a5.5,5.5,0,0,0-3.79,1.13,4.4,4.4,0,0,0-1.26,3.44,4.28,4.28,0,0,0,1.65,3.67,8.63,8.63,0,0,0,5.06,1.2,14.69,14.69,0,0,0,5.54-.79,2.62,2.62,0,0,0,1.83-2.48l.66,4.64a7.47,7.47,0,0,1-2.11,2.19,9.08,9.08,0,0,1-2.9,1.28,14.61,14.61,0,0,1-3.72.43Q882.18,343.8,879.17,341.33Zm17.17-18.84a7,7,0,0,0-1.73-5,6.57,6.57,0,0,0-4.91-1.79,12.54,12.54,0,0,0-3.85.6A11.46,11.46,0,0,0,882.5,318l-4.73-3.23a12.34,12.34,0,0,1,4.93-3.51,17.84,17.84,0,0,1,6.81-1.25,15.79,15.79,0,0,1,7,1.44,10,10,0,0,1,4.44,4.19,13.37,13.37,0,0,1,1.52,6.62v21.09h-6.15Z" transform="translate(-0.81 -0.1)"/><path class="cls-6" d="M912.33,310.38h6.48v32.95h-6.48Zm20,13a7.47,7.47,0,0,0-1.81-5.39,7.83,7.83,0,0,0-10-.23,6.28,6.28,0,0,0-1.73,4.73l-.67-6.34a11.88,11.88,0,0,1,4-4.61,9.67,9.67,0,0,1,5.45-1.61c3.57,0,6.34,1.16,8.3,3.5s2.93,5.65,2.93,9.92v20h-6.47Z" transform="translate(-0.81 -0.1)"/><path class="cls-6" d="M963.56,310.38h14.85v5.84H963.56Zm5.25,30.95c-1.24-1.47-1.86-3.65-1.86-6.52v-34h6.48v34a3.22,3.22,0,0,0,.47,1.86,1.63,1.63,0,0,0,1.4.65h3.11v6.15h-3.7C972,343.48,970.08,342.76,968.81,341.33Z" transform="translate(-0.81 -0.1)"/><path class="cls-6" d="M987.3,297.18h6.47v46.15H987.3Zm20,26.18a7.47,7.47,0,0,0-1.81-5.39,6.65,6.65,0,0,0-5.07-1.91,6.83,6.83,0,0,0-4.91,1.65,6.14,6.14,0,0,0-1.73,4.67l-.66-6.35a11.62,11.62,0,0,1,4-4.52,9.73,9.73,0,0,1,5.44-1.6c3.58,0,6.34,1.16,8.3,3.5s2.94,5.65,2.94,9.92v20h-6.48Z" transform="translate(-0.81 -0.1)"/><path class="cls-6" d="M1032.52,343.8l-3.23-1.71a11.47,11.47,0,0,1-4.94-5,17.57,17.57,0,0,1-1.7-8v-3.76a19.35,19.35,0,0,1,1.64-8.35,11.81,11.81,0,0,1,4.74-5.27,14.72,14.72,0,0,1,7.49-1.8,11.87,11.87,0,0,1,7,2.06,12.82,12.82,0,0,1,4.46,6,25.79,25.79,0,0,1,1.54,9.37v2.16H1027.3v-5.21h16.06a11,11,0,0,0-2.08-6.27,5.83,5.83,0,0,0-4.81-2.23,7,7,0,0,0-5.69,2.41,10.44,10.44,0,0,0-2,6.82v4.19a8.56,8.56,0,0,0,2.16,6.28,8.23,8.23,0,0,0,6.12,2.19,10.12,10.12,0,0,0,3.91-.79,11.38,11.38,0,0,0,3.46-2.22l4.25,4.25a18.07,18.07,0,0,1-5.49,3.64,15.77,15.77,0,0,1-6.13,1.28Z" transform="translate(-0.81 -0.1)"/><path class="cls-6" d="M555.85,421.8l-2.56-.57a20.12,20.12,0,0,1-4.77-1.71,19.09,19.09,0,0,1-4.1-2.86l3.84-4.73a22,22,0,0,0,5.3,3,14.53,14.53,0,0,0,5.21,1,11.07,11.07,0,0,0,5.76-1.19,3.94,3.94,0,0,0,1.92-3.57,2.78,2.78,0,0,0-1-2.38,5.88,5.88,0,0,0-2.6-1.06c-1-.18-2.5-.34-4.38-.49h-.54l-.54-.05h-.51a26.26,26.26,0,0,1-5.43-.93,7.33,7.33,0,0,1-3.69-2.56,8.51,8.51,0,0,1-1.48-5.36,10.93,10.93,0,0,1,1.43-5.81,8.65,8.65,0,0,1,4.25-3.48A19,19,0,0,1,559,387.9a24.44,24.44,0,0,1,4.9.47,21.82,21.82,0,0,1,4.46,1.41,22.3,22.3,0,0,1,4.1,2.37l-3.91,4.73a21.55,21.55,0,0,0-4.87-2.38,14.65,14.65,0,0,0-4.68-.8,8.81,8.81,0,0,0-4.95,1.13,3.81,3.81,0,0,0-1.65,3.38,2.28,2.28,0,0,0,.94,2,5.56,5.56,0,0,0,2.36.89c1,.15,2.31.27,4.06.38H561a28.67,28.67,0,0,1,5.89.92,8,8,0,0,1,4.07,2.77,9.35,9.35,0,0,1,1.65,6,10.6,10.6,0,0,1-1.52,5.89,9.21,9.21,0,0,1-4.59,3.51,21.62,21.62,0,0,1-7.69,1.17Z" transform="translate(-0.81 -0.1)"/><path class="cls-6" d="M589.71,421.8l-3.23-1.71a11.47,11.47,0,0,1-4.94-5,17.44,17.44,0,0,1-1.7-8v-3.76a19.35,19.35,0,0,1,1.64-8.35,11.81,11.81,0,0,1,4.74-5.27,14.72,14.72,0,0,1,7.49-1.8,11.87,11.87,0,0,1,7,2.06,12.82,12.82,0,0,1,4.46,6,25.79,25.79,0,0,1,1.54,9.37v2.16H584.57v-5.21h16.06a11,11,0,0,0-2.08-6.27,5.83,5.83,0,0,0-4.81-2.23,7,7,0,0,0-5.69,2.41,10.44,10.44,0,0,0-2,6.82v4.19a8.56,8.56,0,0,0,2.16,6.28,8.23,8.23,0,0,0,6.12,2.19,10.12,10.12,0,0,0,3.91-.79,11.54,11.54,0,0,0,3.47-2.26l4.25,4.25a18.07,18.07,0,0,1-5.49,3.64,15.77,15.77,0,0,1-6.13,1.28Z" transform="translate(-0.81 -0.1)"/><path class="cls-6" d="M615.71,388.38h6.48v32.95h-6.48Zm16,6.22a7.7,7.7,0,0,0-3-.54,6.44,6.44,0,0,0-4.77,1.7,6.35,6.35,0,0,0-1.7,4.71l-.67-6.34a12.05,12.05,0,0,1,3.94-4.59,9.23,9.23,0,0,1,5.33-1.63,12,12,0,0,1,4.08.65,8.9,8.9,0,0,1,3.19,1.92l-4.22,5.71a5.42,5.42,0,0,0-2.25-1.59Z" transform="translate(-0.81 -0.1)"/><path class="cls-6" d="M662.81,388.38h6.76l-12.38,32.95H652.3l-12.38-32.95h6.79l8,23.52Z" transform="translate(-0.81 -0.1)"/><path class="cls-6" d="M675.91,375.18h6.48v6.47h-6.48Zm0,13.2h6.48v32.95h-6.48Z" transform="translate(-0.81 -0.1)"/><path class="cls-6" d="M701,421.8l-3.19-1.68a11.28,11.28,0,0,1-4.87-4.89,16.47,16.47,0,0,1-1.68-7.74v-5.43a16.08,16.08,0,0,1,1.68-7.65,11.27,11.27,0,0,1,4.87-4.84,16.41,16.41,0,0,1,7.7-1.66,18.41,18.41,0,0,1,4.84.61,14.13,14.13,0,0,1,4.07,1.8,11,11,0,0,1,3,2.85l-4.65,4.16a9.68,9.68,0,0,0-3.27-2.44,9.2,9.2,0,0,0-3.9-.86,7.79,7.79,0,0,0-5.81,2.1,8.05,8.05,0,0,0-2.06,5.9v5.43a8.34,8.34,0,0,0,2,6,7.7,7.7,0,0,0,5.82,2.12,8.67,8.67,0,0,0,3.94-.92,9.6,9.6,0,0,0,3.23-2.6l4.67,4.51a11.62,11.62,0,0,1-3,2.81,14.21,14.21,0,0,1-4.08,1.76,18.52,18.52,0,0,1-4.8.6Z" transform="translate(-0.81 -0.1)"/><path class="cls-6" d="M733.52,421.8l-3.24-1.71a11.45,11.45,0,0,1-4.93-5,17.29,17.29,0,0,1-1.7-8v-3.76a19.49,19.49,0,0,1,1.63-8.35,11.67,11.67,0,0,1,4.75-5.27,14.62,14.62,0,0,1,7.49-1.8,11.8,11.8,0,0,1,7,2.06,12.75,12.75,0,0,1,4.46,6,25.58,25.58,0,0,1,1.54,9.37v2.16H728.35v-5.21h16.06a11.2,11.2,0,0,0-2.08-6.27,5.84,5.84,0,0,0-4.81-2.23,7,7,0,0,0-5.7,2.41,10.35,10.35,0,0,0-2,6.82v4.19a8.55,8.55,0,0,0,2.15,6.28,8.24,8.24,0,0,0,6.13,2.19,10.07,10.07,0,0,0,3.9-.79,11.19,11.19,0,0,0,3.46-2.22l4.26,4.25a17.94,17.94,0,0,1-5.5,3.64,15.72,15.72,0,0,1-6.12,1.28Z" transform="translate(-0.81 -0.1)"/><path class="cls-6" d="M768.18,421.8l-2.56-.57a20.12,20.12,0,0,1-4.77-1.71,18.84,18.84,0,0,1-4.1-2.86l3.84-4.73a22,22,0,0,0,5.3,3,14.53,14.53,0,0,0,5.21,1,11.07,11.07,0,0,0,5.76-1.19,3.94,3.94,0,0,0,1.92-3.57,2.8,2.8,0,0,0-1-2.38,5.88,5.88,0,0,0-2.6-1.06c-1-.18-2.5-.34-4.38-.49h-.54l-.54-.05h-.51a26.26,26.26,0,0,1-5.43-.93A7.33,7.33,0,0,1,760,403.7a8.51,8.51,0,0,1-1.48-5.36,10.93,10.93,0,0,1,1.43-5.81,8.65,8.65,0,0,1,4.25-3.48,18.77,18.77,0,0,1,7.08-1.15,24.44,24.44,0,0,1,4.9.47,21.82,21.82,0,0,1,4.46,1.41,23.24,23.24,0,0,1,4.1,2.37l-3.91,4.73A21.55,21.55,0,0,0,776,394.5a14.65,14.65,0,0,0-4.68-.8,8.83,8.83,0,0,0-5,1.13,3.81,3.81,0,0,0-1.65,3.38,2.3,2.3,0,0,0,.93,2,5.6,5.6,0,0,0,2.37.89c1,.15,2.3.27,4.06.38h1.21a28.47,28.47,0,0,1,5.88.92,8,8,0,0,1,4.08,2.77,9.35,9.35,0,0,1,1.65,6,10.6,10.6,0,0,1-1.52,5.89,9.25,9.25,0,0,1-4.59,3.51,21.62,21.62,0,0,1-7.69,1.17Z" transform="translate(-0.81 -0.1)"/><path class="cls-6" d="M808.07,388.38h14.86v5.84H808.07Zm5.26,30.9c-1.24-1.47-1.86-3.65-1.86-6.52v-34h6.47v34a3.13,3.13,0,0,0,.48,1.86,1.63,1.63,0,0,0,1.4.65h3.11v6.15h-3.75q-4,.06-5.85-2.09Z" transform="translate(-0.81 -0.1)"/><path class="cls-6" d="M831.81,375.18h6.48v46.15h-6.48Zm20,26.18A7.57,7.57,0,0,0,850,396a6.67,6.67,0,0,0-5.08-1.91,6.79,6.79,0,0,0-4.9,1.65,6.14,6.14,0,0,0-1.73,4.67l-.67-6.35a11.7,11.7,0,0,1,4-4.52,9.76,9.76,0,0,1,5.45-1.6c3.57,0,6.34,1.16,8.3,3.5s2.93,5.65,2.93,9.92v20h-6.49Z" transform="translate(-0.81 -0.1)"/><path class="cls-6" d="M869.55,419.33q-3-2.52-3-7.67c0-3.25.92-5.7,2.77-7.33s4.62-2.44,8.34-2.44H887l.44,5.2h-9.76a5.55,5.55,0,0,0-3.79,1.13,4.44,4.44,0,0,0-1.25,3.44,4.3,4.3,0,0,0,1.66,3.72,8.68,8.68,0,0,0,5.07,1.2,14.45,14.45,0,0,0,5.53-.79,2.62,2.62,0,0,0,1.83-2.48l.67,4.64a7.72,7.72,0,0,1-2.11,2.19,9.13,9.13,0,0,1-2.91,1.28,14.48,14.48,0,0,1-3.71.43Q872.57,421.8,869.55,419.33Zm17.16-18.89a7,7,0,0,0-1.73-5,6.53,6.53,0,0,0-4.9-1.79,12.65,12.65,0,0,0-3.86.6,11.46,11.46,0,0,0-3.35,1.68l-4.73-3.23a12.38,12.38,0,0,1,4.94-3.51,17.65,17.65,0,0,1,6.81-1.25,15.79,15.79,0,0,1,7,1.44,10,10,0,0,1,4.44,4.19,13.38,13.38,0,0,1,1.53,6.62v21.14h-6.15Z" transform="translate(-0.81 -0.1)"/><path class="cls-6" d="M900.18,388.38H915v5.84H900.18Zm5.25,30.9c-1.24-1.47-1.86-3.65-1.86-6.52v-34h6.48v34a3.22,3.22,0,0,0,.47,1.86,1.63,1.63,0,0,0,1.4.65H915v6.15h-3.74q-4,.06-5.86-2.09Z" transform="translate(-0.81 -0.1)"/><path class="cls-6" d="M947.85,408.41a7.51,7.51,0,0,0,1.76,5.35,6.47,6.47,0,0,0,5,1.88,6.81,6.81,0,0,0,4.92-1.68,6.37,6.37,0,0,0,1.74-4.79l.45,6.89a9.46,9.46,0,0,1-3.31,4.09,9.27,9.27,0,0,1-5.61,1.65q-5.46,0-8.43-3.51t-3-9.88v-20h6.48Zm13.39-20h6.47v32.92h-6.44Z" transform="translate(-0.81 -0.1)"/><path class="cls-6" d="M986.25,421.8l-2.54-.57a19.76,19.76,0,0,1-4.78-1.71,19,19,0,0,1-4.09-2.86l3.87-4.73a21.18,21.18,0,0,0,5.3,3,14.48,14.48,0,0,0,5.2,1,11.07,11.07,0,0,0,5.76-1.19,3.94,3.94,0,0,0,1.92-3.57,2.78,2.78,0,0,0-1-2.38,5.88,5.88,0,0,0-2.6-1.06c-1-.18-2.5-.34-4.38-.49h-.54l-.54-.05h-.51a26.28,26.28,0,0,1-5.42-.93,7.39,7.39,0,0,1-3.7-2.56,8.51,8.51,0,0,1-1.48-5.36,10.93,10.93,0,0,1,1.43-5.81,8.68,8.68,0,0,1,4.26-3.48,18.92,18.92,0,0,1,7.07-1.15,24.54,24.54,0,0,1,4.91.47,21.73,21.73,0,0,1,4.45,1.41,22.3,22.3,0,0,1,4.1,2.37l-3.9,4.73a21.21,21.21,0,0,0-4.88-2.38,14.65,14.65,0,0,0-4.68-.8,8.81,8.81,0,0,0-5,1.13,3.81,3.81,0,0,0-1.65,3.38,2.28,2.28,0,0,0,.94,2,5.56,5.56,0,0,0,2.36.89c1,.15,2.31.27,4.06.38h1.21a28.67,28.67,0,0,1,5.89.92,8,8,0,0,1,4.08,2.77,9.35,9.35,0,0,1,1.65,6,10.53,10.53,0,0,1-1.53,5.89,9.23,9.23,0,0,1-4.58,3.51,21.68,21.68,0,0,1-7.7,1.17Z" transform="translate(-0.81 -0.1)"/><path class="cls-6" d="M1020.15,421.8l-3.24-1.71a11.45,11.45,0,0,1-4.93-5,17.29,17.29,0,0,1-1.7-8v-3.76a19.49,19.49,0,0,1,1.63-8.35,11.67,11.67,0,0,1,4.75-5.27,14.62,14.62,0,0,1,7.49-1.8,11.8,11.8,0,0,1,7,2.06,12.75,12.75,0,0,1,4.46,6,25.58,25.58,0,0,1,1.54,9.37v2.16h-22.22v-5.21H1031a11.12,11.12,0,0,0-2.07-6.27,5.84,5.84,0,0,0-4.81-2.23,7,7,0,0,0-5.7,2.41,10.35,10.35,0,0,0-2,6.82v4.19a8.56,8.56,0,0,0,2.16,6.28,8.24,8.24,0,0,0,6.13,2.19,10.07,10.07,0,0,0,3.9-.79,11.19,11.19,0,0,0,3.46-2.22l4.26,4.25a17.94,17.94,0,0,1-5.5,3.64,15.72,15.72,0,0,1-6.12,1.28Z" transform="translate(-0.81 -0.1)"/><path class="cls-6" d="M544.58,466.38h14.85v5.84H544.58Zm5.25,30.9c-1.23-1.47-1.85-3.65-1.85-6.52v-34h6.47v34a3.13,3.13,0,0,0,.48,1.86,1.65,1.65,0,0,0,1.39.65h3.11v6.15h-3.72q-4,.06-5.88-2.09Z" transform="translate(-0.81 -0.1)"/><path class="cls-6" d="M568.32,453.18h6.48v46.15h-6.48Zm20,26.18a7.57,7.57,0,0,0-1.81-5.39,6.67,6.67,0,0,0-5.08-1.91,6.79,6.79,0,0,0-4.9,1.65,6.14,6.14,0,0,0-1.73,4.67l-.67-6.35a11.7,11.7,0,0,1,4-4.52,9.76,9.76,0,0,1,5.45-1.6c3.57,0,6.34,1.16,8.3,3.5s2.93,5.65,2.93,9.92v20h-6.47Z" transform="translate(-0.81 -0.1)"/><path class="cls-6" d="M613.55,499.8l-3.24-1.71a11.45,11.45,0,0,1-4.93-5,17.29,17.29,0,0,1-1.7-8v-3.76a19.49,19.49,0,0,1,1.63-8.35,11.67,11.67,0,0,1,4.75-5.27,14.62,14.62,0,0,1,7.49-1.8,11.8,11.8,0,0,1,7,2.06,12.75,12.75,0,0,1,4.46,6,25.58,25.58,0,0,1,1.54,9.37v2.16H608.38v-5.21h16a11.12,11.12,0,0,0-2.07-6.27,5.84,5.84,0,0,0-4.81-2.23,7,7,0,0,0-5.7,2.41,10.35,10.35,0,0,0-2,6.82v4.19a8.55,8.55,0,0,0,2.15,6.28,8.24,8.24,0,0,0,6.13,2.19,10.07,10.07,0,0,0,3.9-.79,11.19,11.19,0,0,0,3.46-2.22l4.25,4.25a17.71,17.71,0,0,1-5.49,3.64,15.72,15.72,0,0,1-6.12,1.28Z" transform="translate(-0.81 -0.1)"/><path class="cls-6" d="M639.48,466.38H646v32.95h-6.47Zm19.68,13a7.73,7.73,0,0,0-1.72-5.39,6.19,6.19,0,0,0-4.85-1.91,6.74,6.74,0,0,0-4.91,1.68,6.32,6.32,0,0,0-1.73,4.73l-.66-6.34a11.72,11.72,0,0,1,4-4.61,9.66,9.66,0,0,1,5.44-1.61,10.71,10.71,0,0,1,5.91,1.57,9.85,9.85,0,0,1,3.73,4.58,18.6,18.6,0,0,1,1.28,7.27v20h-6.47Zm19.67,0A7.47,7.47,0,0,0,677,474a6.65,6.65,0,0,0-5.07-1.91,6,6,0,0,0-4.67,1.84,7.56,7.56,0,0,0-1.65,5.21l-1.3-6.35a12.59,12.59,0,0,1,4.11-5.06,9.55,9.55,0,0,1,5.63-1.79,11.22,11.22,0,0,1,6.08,1.57,9.88,9.88,0,0,1,3.84,4.58,18.18,18.18,0,0,1,1.32,7.25v20h-6.48Z" transform="translate(-0.81 -0.1)"/><path class="cls-6" d="M694,492.53h6.79v6.8H694Z" transform="translate(-0.81 -0.1)"/></svg>