<svg xmlns="http://www.w3.org/2000/svg" xmlns:xlink="http://www.w3.org/1999/xlink" viewBox="0 0 1080.56 1080.56">
<defs>
<style>.cls-1{fill:#212121;stroke-width:0.25px;stroke:url(#linear-gradient);}.cls-1,.cls-16{stroke-miterlimit:10;}.cls-2{fill:#c09988;}.cls-3{fill:#a3796e;}.cls-4{fill:#1d2638;}.cls-5{fill:#222532;}.cls-6{fill:#2a191a;}.cls-7{fill:#201f30;}.cls-8{fill:#5d4a49;}.cls-9{fill:#322226;}.cls-10{fill:#3a2527;}.cls-11{fill:#4385b4;}.cls-12{fill:#153157;}.cls-13{fill:#111c2b;}.cls-14{fill:#101c33;}.cls-15{fill:#296d9b;}.cls-16{fill:none;stroke-width:20px;stroke:url(#linear-gradient-2);}.cls-17{fill:#242027;}.cls-18{fill:#1b1d27;}.cls-19{fill:#b7b7b7;}.cls-20{fill:#fff;}
</style>
<linearGradient id="linear-gradient" x1="9.88" y1="540.28" x2="1070.68" y2="540.28" gradientUnits="userSpaceOnUse">
<stop offset="0" stop-color="#932a8e">
<animate attributeName="stop-color" values="#932a8e;#fbb040;#ed2079;#932a8e" dur="3s" repeatCount="indefinite"></animate>
</stop>
<stop offset="0.5" stop-color="#fbb040">
<animate attributeName="stop-color" values="#fbb040;#ed2079;#932a8e;#fbb040" dur="3s" repeatCount="indefinite"></animate>
</stop>
<stop offset="1" stop-color="#ed2079">
<animate attributeName="stop-color" values="#ed2079;#932a8e;#fbb040;#ed2079" dur="3s" repeatCount="indefinite"></animate>
</stop>
</linearGradient>
<linearGradient id="linear-gradient-2" y1="540.28" x2="1080.56" y2="540.28" gradientUnits="userSpaceOnUse">
<stop offset="0" stop-color="#932a8e">
<animate attributeName="stop-color" values="#932a8e;#f7941d;#ed2079;#932a8e" dur="3s" repeatCount="indefinite"></animate>
</stop>
<stop offset="0.51" stop-color="#f7941d">
<animate attributeName="stop-color" values="#f7941d;#ed2079;#932a8e;#f7941d" dur="3s" repeatCount="indefinite"></animate>
</stop>
<stop offset="1" stop-color="#ed2079">
<animate attributeName="stop-color" values="#932a8e;#f7941d;#ed2079;#932a8e" dur="3s" repeatCount="indefinite"></animate>
</stop>
</linearGradient>
</defs><title>Asset 2</title>
<g id="Layer_2" data-name="Layer 2">
<g id="Layer_1-2" data-name="Layer 1">
<path class="cls-1" d="M1070.56,540.28c0,264.68-193.91,484.06-447.41,523.84a533.94,533.94,0,0,1-82.87,6.44H539.1q-12.29,0-24.43-.61c-172.5-8.2-323.42-98.82-414.23-233.36h0A527.84,527.84,0,0,1,10,540.28C10,247.41,247.41,10,540.28,10S1070.56,247.41,1070.56,540.28Z"/><path class="cls-2" d="M299.92,386.32s-30.24.48-36,53.76,7.2,77.76,7.2,77.76,12.48,25,26.88,34.08c0,0,2.4,90.24-13.44,97L526.48,887.44s40.8-75.36,55.2-118.56l68.64-34.08,55.56-70L735.4,608s28.08-43.56,24.84-88.2,11.16-51.84,16.92-102.24S780.4,339,780.4,339L763.84,242.2,712,222.76l-59.4-5.4L524.08,212,424,237.52l-58.68,76Z"/><path class="cls-3" d="M540.28,497.44S533.44,509,509,526.24s-28.56,31.68-27.6,56.88c0,0,2.4-32.4,21.84-42.84S538.48,506.8,540.28,497.44Z"/><path class="cls-4" d="M299.44,386.56s-5-105.84,33.12-174.24S389.44,136,389.44,136s40.32-23,80.64-32.4S517.6,88.48,557.2,92.08a328.75,328.75,0,0,1,72,15.12s64.8,22.32,83.52,37.44,42.48,36.72,49,46.8,44.64,28.08,44.64,28.08,40.32,31.68,16.56,80.64c0,0,42.48,82.8-32.4,103.68,0,0,20.88-13.68,15.12-27.36s-17.28,46.08-31.68,55.44c0,0,5-25.2,3.6-36.72,0,0,10.8-118.08-70.56-130.32,0,0-6.48,11.52-13.68,18.72,0,0,7.2-9.72,5-22.14,0,0-11.52,14.22-12.24,27.18,0,0-5-13-5-22.32,0,0-2.16-8.64-13-7.92s-2.88,25.92,10.8,33.12c0,0-28.08-5.76-42.48-25.92,0,0-18.72,15.12-5.76,51.12,0,0-18.72-28.8-22.32-46.8,0,0-22.78,22.32-41.27,28.08s-11.29,24.48-11.29,24.48-14.4-8.64-23.76-36c0,0-21.6,10.8-7.92,36.72,0,0-12.24-4.32-19.44-13,0,0-13.68,21.6-37.44,6.48,0,0,11.52,9.36,33.12-12.24,0,0-9.36-7.92-13.68-33.12,0,0-24.48,41-81.36,65.52,0,0-23,111.6-41,117.36H347.68S362.8,406,323.2,408.88C323.2,408.88,317.44,390.16,299.44,386.56Z"/><path class="cls-5" d="M347.68,454.24s-21.6,130.32,3.6,200.88S549.44,764.56,549.44,764.56,622,783.28,676,718.48,751.6,573,751.6,573s-25.2,59-54,68.4c0,0-20.88,65.52-49.68,74.88,0,0-26.64-95-150.48-30.24,0,0-56.16-24.48-34.56-90.72,0,0-3.6-26.64-67.68-67.68,0,0-33.12-23.76-31-73.44Z"/><path class="cls-5" d="M540.28,624.16s41.4,32.4,0,25.56c0,0,10.44,5.76,14,5.76s47.52,3.6,59.4,9.36a50,50,0,0,0,9.72-1.8s-17.64-5.4,5.76-18.54C629.2,644.5,584.2,645.76,540.28,624.16Z"/><path class="cls-5" d="M510.16,546.64s-31.68-3.36-28.8,36.48c0,0-.48,17.76-5.28,21.6,0,0,19.2-16.32,22.08-23s60.48-7.75,71.52-6,30.24,12.28,54.24,10.36,46.56,30.72,46.56,30.72,1.44,24.36,7.68,27.78c0,0,1.92-24.9,4.8-26.82s13.92-26.4,0-34.08-26.88-7.68-31.68-13.44-22.08-5.28-22.08-5.28-20.64-2.88-24-6.72-38.88-10.56-46.56-9.6S527,550.48,510.16,546.64Z"/><path class="cls-6" d="M571.63,532s34.17-9.36,37.41,13c0,0-6.12-5.76-8.28-5.76s-13.28-2.88-17.8-4.68S576,529.84,571.63,532Z"/><path class="cls-6" d="M638.2,555.4s10.81-4.68,16.21-7.2,15.47,0,15.47,0S671.68,546,638.2,555.4Z"/><path class="cls-7" d="M697.12,391.84S671,393,662.56,411a62.5,62.5,0,0,0,19.68,0c11.52-1.68,71.52,6.48,83.52,48.24,0,0,13.2-17.76,5.28-32.64S731.92,388.24,697.12,391.84Z"/><path class="cls-7" d="M451.6,381.52s63.14-4.32,93.73,0,55.07,12,59.39,19.68,17.76-26.88-10.08-37.92S513,336.88,480.4,357,456.4,374.32,451.6,381.52Z"/><path class="cls-8" d="M577.36,490.06s-37.26,11.34-14.22,45c0,0-30.9-22.86,8.49-48.24C571.63,486.82,564.58,493.3,577.36,490.06Z"/><path class="cls-8" d="M654.05,451.21s2.51,31.47,12.59,59.73c0,0,29.37,26.28,3.26,45.36,0,0,27.73-11.7,0-45.36C669.9,510.94,659.1,488.5,654.05,451.21Z"/><path class="cls-3" d="M685.36,540.28s-.64,35.16,4.48,44.76,1.15,33-4.51,39.12c0,0,13.7-9.24,6.87-41.94S688.72,573.28,685.36,540.28Z"/><path class="cls-3" d="M567.05,440.18a72.12,72.12,0,0,1-43,19.1S553.14,463.56,567.05,440.18Z"/><path class="cls-3" d="M662.56,462.24a65.17,65.17,0,0,0,10.56,30.88s-4.29,0-3.22-20.16c0,0,32.74,16.2,63.34,13.86C733.24,486.82,691.6,483.21,662.56,462.24Z"/><path class="cls-3" d="M481.23,425.38s35.52,13.74,70.38,10.86c0,0-8.33,8.84-56.33,3.94a26,26,0,0,0-14-3.94,24,24,0,0,1,11.65-2.72S483,429.87,481.23,425.38Z"/><path class="cls-9" d="M494.56,589.6a216.72,216.72,0,0,0,26.16,3.12c12,.48,4.08-1,6.24,0,0,0-12.48-1.68-17.76-5.76S503.68,588.4,494.56,589.6Z"/><path class="cls-9" d="M641.92,612.4s11.28,4.08,20.16,3.12A46.39,46.39,0,0,1,652,622.24S656.32,618.4,641.92,612.4Z"/><path class="cls-9" d="M549.44,596.56s13.76,2.16,17.36,2.4,14,3.84,17.94,6c0,0-4.26-1.92-16-3.12S557.28,599.44,549.44,596.56Z"/><path class="cls-9" d="M590.33,605.92s13.19,1.44,16.31,2.16,7.92-.48,15.6,0c0,0-10.31.72-16,1.68C606.29,609.76,604.05,608.93,590.33,605.92Z"/><path class="cls-9" d="M297.52,554.08s14.4,3.84,24.24,3.12c0,0,7.44,15.36,10.56,18.48,0,0-5-14.88-2.4-26.88C329.92,548.8,319.12,557.44,297.52,554.08Z"/><path class="cls-10" d="M306.16,414.64s-6.72-21.12-22.08-7.44-14.88,55.2-14.88,55.2,10.08-25.44,20.64-27.6C289.84,434.8,291.76,418,306.16,414.64Z"/><path class="cls-10" d="M267.76,470.8s-3.12,26.4,13.2,34.56,1.92,10.8,0,18.24,1,11.28,1,11.28S264.44,502.93,267.76,470.8Z"/><path class="cls-11" d="M622.14,1061.2s.46,1.09,1,2.92a533.94,533.94,0,0,1-82.87,6.44H539.1l-.62,5.76h-21.6s-.83-2.36-2.21-6.37c-172.5-8.2-323.42-98.82-414.23-233.36h0V658.72S136.72,638.56,154,629.2s43.2,0,43.2,0,1-.47,2.77-1.19l.47-.18c8.55-3.39,32.43-11.28,52.22-3.24l.06,0a39.31,39.31,0,0,1,9.28,5.31c8.27,6.38,14.44,11.75,20.1,16.65l0,0,2.56,2.21c10.48,9,20,16.63,39.22,26.47,31,15.84,182.63,136.08,203.63,207.36l1.06.82c10.19,8,90.69,71.42,93.39,85.58,2.88,15.12-41,2.88-47.52,8.64s6.48,31.68,6.48,31.68,10.08,7.92,34.56,25.2S622.14,1061.2,622.14,1061.2Z"/><path class="cls-12" d="M250.48,624.16s5,10.08,0,15.12c0,0-10.8-7.2-21.6-7.56s-28.8-4-28.8-4-5,6.12,44.64,16.74,36.6,53.82,22.62,45.9-33-16.07-67.4,1c0,0,85.58,4.56,110.54,31s84,60,84,60,26.4,21.6,33.6,30.72,79.68,52.8,85,55.2,18.72,26.88,18.72,26.88-27.84-63.84-61-95.52-62.88-65.76-107-92.16-79.68-58.56-79.68-58.56S265.84,626.32,250.48,624.16Z"/><path class="cls-13" d="M568.72,1020.88l-7.92,44.64-20.16-9.36-1.54,14.4-.62,5.76h-21.6s-.83-2.36-2.21-6.37c-4.86-14.23-16.49-49.23-21.55-72.83-6.48-30.24-32.4-110.4-53.28-102,0,0-.71-1.47-2-4l0-.08C432.38,880.33,417,851.07,400,828.7l-1.39-1.81c-8.1-10.42-16.5-19.15-24.32-23.45l-20.87-25.19.15.11c3.35,2.42,57,41.16,79.48,50.66-2.47-1-20.8-8.15-23.48-6.14L406.72,825l37.44,41s65,38.88,87.6,49.68S576.64,976.24,568.72,1020.88Z"/><path class="cls-14" d="M100.44,707s201.88-67,253,71.28c0,0,90.72,75.6,105.12,182.88,0,0,11.52,22.32,14.4,39.6,0,0-35.28-62.64-41.76-66.24,0,0-8.64-74.16-87.12-162.72,0,0-75.44-113-243.64-37.44Z"/><path class="cls-11" d="M100.44,658.72s-42.44,21.09-66,32l66,145.83Z"/><polygon class="cls-14" points="100.44 706.96 48.09 720.85 65.64 759.64 100.44 734.32 100.44 706.96"/><path class="cls-15" d="M100.44,814.24s30.52-36,68.68-51.12,80.64-13.68,87.12-14.4,50.4,19.42,56.16,18.35S408.88,851,417.52,979.84c0,0-40.32-154.08-95-201.6,0,0-35.28-14.16-54-18.6s-62.64-3.72-93.6,11.4S111,807,100.44,820.72Z"/><path class="cls-16" d="M1070.56,540.28c0,264.68-193.91,484.06-447.41,523.84a533.94,533.94,0,0,1-82.87,6.44H539.1q-12.29,0-24.43-.61c-172.5-8.2-323.42-98.82-414.23-233.36h0A527.84,527.84,0,0,1,10,540.28C10,247.41,247.41,10,540.28,10S1070.56,247.41,1070.56,540.28Z"/><path class="cls-17" d="M482.68,406.72s54.54-26.1,82.26,13.68c0,0,9.18,6.48-.9,5.58s-11-2.52-11-2.52a332.55,332.55,0,0,1-68.94-13.68s-2.16-.36-8.28.36-1.26-3.42-1.26-3.42S475.84,405.1,482.68,406.72Z"/><path class="cls-18" d="M668.14,444.4s43.14-20.71,70.26,17.84c0,0,3.36,4.48-1.68,3.52a60.11,60.11,0,0,1-8.88-2.4s-30.69,4.56-57.94-16.8C669.9,446.56,664.59,447.28,668.14,444.4Z"/><path class="cls-19" d="M669.9,445.24s39.94-18.72,63.34,15.84C733.24,461.08,702.31,468.64,669.9,445.24Z"/><path class="cls-19" d="M484.12,408.88S537,382.6,564,422.56C564,422.56,535.24,424,484.12,408.88Z"/><path class="cls-17" d="M531.69,411.5c.4,12.23-7,7.14-18.21,6-8.38-.87-14.6-3.37-14.6-7.67,0-8.06,6.59-10.46,14.65-10.46S531.15,395.38,531.69,411.5Z"/><path class="cls-17" d="M712.47,451.21c-2.08,11.45-8.57,10-16.79,8.07-7.78-1.85-12.57-4.4-12.57-9.44,0-12.95,6.25-9.92,13.9-9.92S714.25,441.42,712.47,451.21Z"/><path class="cls-20" d="M522.84,403.65a4.34,4.34,0,0,0,.11,2.42c.08.27.19.54.27.82,0,0,0,.35.09.36s.08-.63,0-.17c-.69,2.49,3.17,3.55,3.85,1.06a4.3,4.3,0,0,0-.07-2.41c-.09-.27-.2-.54-.28-.82,0-.12-.07-.24-.09-.36.08.38.11-.23,0,.16a2,2,0,0,0-1.39-2.46,2,2,0,0,0-2.46,1.4Z"/><path class="cls-20" d="M523.14,412.58l-.39,2a2,2,0,0,0,3.86,1.07l.39-2a2,2,0,1,0-3.86-1.06Z"/><path class="cls-20" d="M704.12,445.24a9.38,9.38,0,0,1,.64,4.23,2,2,0,0,0,4,0,12,12,0,0,0-.79-5.3,2.06,2.06,0,0,0-2.46-1.39,2,2,0,0,0-1.39,2.46Z"/><path class="cls-20" d="M703.84,454.24c0,.17-.09.32-.14.48.1-.32,0,0-.08.13a2,2,0,1,0,3.45,2,6.8,6.8,0,0,0,.63-1.56,2,2,0,0,0-3.86-1.07Z"/></g></g></svg>