<svg id="Layer_1" data-name="Layer 1" xmlns="http://www.w3.org/2000/svg" xmlns:xlink="http://www.w3.org/1999/xlink" viewBox="0 0 1066 1920"><defs><style>.cls-1,.cls-12{fill:url(#linear-gradient);}.cls-1{clip-rule:evenodd;}.cls-2{fill:url(#Degradado_sin_nombre_174);}.cls-3{fill:#323232;}.cls-4{fill:#828282;}.cls-5{fill:#fdfdfd;}.cls-10,.cls-6{fill:#fff;}.cls-7{fill:#65d9f6;}.cls-8{fill:#7adaf9;}.cls-11,.cls-9{fill:#679e63;}.cls-10,.cls-11,.cls-12,.cls-21,.cls-22,.cls-23,.cls-24{fill-rule:evenodd;}.cls-13{clip-path:url(#clip-path);}.cls-14{fill:none;}.cls-15{fill:url(#linear-gradient-3);}.cls-16{fill:url(#linear-gradient-4);}.cls-17{fill:url(#linear-gradient-5);}.cls-18{fill:url(#linear-gradient-6);}.cls-19{fill:url(#linear-gradient-7);}.cls-20{fill:url(#linear-gradient-8);}.cls-21{fill:#a6a385;}.cls-22{fill:#499d4a;}.cls-23{fill:#58aa50;}.cls-24{fill:#8e714e;}</style><linearGradient id="linear-gradient" x1="635.43" y1="1668.36" x2="597.36" y2="1746.01" gradientUnits="userSpaceOnUse"><stop offset="0" stop-color="#3f873f"/><stop offset="0.33" stop-color="#3f8b3d"/><stop offset="0.64" stop-color="#3e9637"/><stop offset="0.93" stop-color="#3da92e"/><stop offset="1" stop-color="#3dae2b"/></linearGradient><linearGradient id="Degradado_sin_nombre_174" y1="960" x2="1066" y2="960" gradientTransform="translate(1493 427) rotate(90)" gradientUnits="userSpaceOnUse"><stop offset="0" stop-color="#34393f"/><stop offset="1" stop-color="#26272b"/></linearGradient><clipPath id="clip-path" transform="translate(0 0)"><path class="cls-1" d="M620.84,1650.25a5.07,5.07,0,0,0-5.08,0l-42.14,24.31a5.1,5.1,0,0,0-2.54,4.41v48.67a5.09,5.09,0,0,0,2.54,4.4l42.14,24.34a5.09,5.09,0,0,0,5.09,0L663,1732a5.09,5.09,0,0,0,2.54-4.4V1679a5.1,5.1,0,0,0-2.54-4.41Z"/></clipPath><linearGradient id="linear-gradient-3" x1="611.88" y1="1708.99" x2="718.69" y2="1630.08" gradientUnits="userSpaceOnUse"><stop offset="0.14" stop-color="#3f873f"/><stop offset="0.4" stop-color="#529f44"/><stop offset="0.71" stop-color="#63b649"/><stop offset="0.91" stop-color="#6abf4b"/></linearGradient><linearGradient id="linear-gradient-4" x1="569.59" y1="1641.48" x2="667" y2="1641.48" gradientUnits="userSpaceOnUse"><stop offset="0.09" stop-color="#6abf4b"/><stop offset="0.29" stop-color="#63b649"/><stop offset="0.6" stop-color="#529f44"/><stop offset="0.86" stop-color="#3f873f"/></linearGradient><linearGradient id="linear-gradient-5" x1="569.59" y1="1703.29" x2="667" y2="1703.29" xlink:href="#linear-gradient-4"/><linearGradient id="linear-gradient-6" x1="569.59" y1="1731.1" x2="667" y2="1731.1" xlink:href="#linear-gradient-4"/><linearGradient id="linear-gradient-7" x1="569.59" y1="1743.67" x2="667" y2="1743.67" xlink:href="#linear-gradient-4"/><linearGradient id="linear-gradient-8" x1="681.2" y1="1666.05" x2="621.12" y2="1788.62" xlink:href="#linear-gradient"/></defs><title>techStackModal</title><rect class="cls-2" x="-427" y="427" width="1920" height="1066" transform="translate(-427 1493) rotate(-90)"/><path class="cls-3" d="M294.08,1051.62l-1,1C293,1051.83,293.31,1051.5,294.08,1051.62Z" transform="translate(0 0)"/><path class="cls-3" d="M368.79,1052.59c-.31-.33-.62-.65-.92-1C368.66,1051.48,368.89,1051.88,368.79,1052.59Z" transform="translate(0 0)"/><path class="cls-3" d="M293.14,1057.74l.94,1C293.28,1058.86,293,1058.47,293.14,1057.74Z" transform="translate(0 0)"/><path class="cls-3" d="M368.64,1075.11a4.75,4.75,0,0,1-.23-.73c0-.06.24-.16.36-.24Z" transform="translate(0 0)"/><path class="cls-3" d="M367.88,1144.71c.26-.52.57-.6,1-.13Z" transform="translate(0 0)"/><path class="cls-4" d="M217.78,866.42c-23.67-.13-46.23-4.92-67.28-16a152,152,0,0,1-45.16-36.66,139.64,139.64,0,0,1-33.45-78.35,152.61,152.61,0,0,1-.83-18.75,174.44,174.44,0,0,1,1.39-18,137.34,137.34,0,0,1,12.19-41.62,150.71,150.71,0,0,1,39.2-50.28,141.64,141.64,0,0,1,43.89-25.68,139.18,139.18,0,0,1,31.52-7.36c5.34-.62,10.68-.77,16.05-.92A143.25,143.25,0,0,1,267.78,581a141.59,141.59,0,0,1,46.82,28C331,623.55,344.06,640.66,353,660.81A137,137,0,0,1,363,695.64a146.41,146.41,0,0,1,1.61,21.25,169.46,169.46,0,0,1-1.21,23.62,137.41,137.41,0,0,1-23.2,60.6,155.9,155.9,0,0,1-43.06,42.37A135.38,135.38,0,0,1,245,864.07a178.31,178.31,0,0,1-19.56,2.15C222.86,866.38,220.32,866.22,217.78,866.42ZM170.26,724q19.63,0,39.28,0c1.11,0,1.58-.19,1.59-1.45a82.9,82.9,0,0,0-.73-12.3A67.29,67.29,0,0,0,203,686.7c-5.27-9.51-12.6-16.87-22.73-21-8.26-3.39-16.94-3.93-25.72-2.78a47.28,47.28,0,0,0-32,18.16c-8.42,10.62-12,23-12.32,36.35a78,78,0,0,0,3.57,24.6c4.69,15.22,14.1,26.16,29.3,31.6,8.26,3,16.86,3.47,25.53,2.75a47.54,47.54,0,0,0,23.11-7.76,40.33,40.33,0,0,0,17.38-25.92c.22-1,.12-1.51-1.17-1.5-5.07.08-10.13,0-15.2,0-.69,0-1.17,0-1.38.92-1.87,8.06-7.17,13.14-14.49,16.32-6.51,2.83-13.39,3-20.26,2-9.75-1.41-17.49-6.15-22.62-14.74-3.75-6.29-4.63-13.25-4.78-20.39,0-1.18.54-1.36,1.57-1.35Q150.53,724,170.26,724Zm99.67-21.65a3.69,3.69,0,0,1-1.18-1.42q-12.76-18.6-25.49-37.23a2.21,2.21,0,0,0-2.07-1.1c-7.12.05-14.25,0-21.37,0-.37,0-.78-.13-1.19.21.3.44.57.85.86,1.25q18.84,25.63,37.7,51.26a1.79,1.79,0,0,1,.06,2.56q-20.55,28.68-41,57.42c-.26.37-.76.69-.53,1.37,7,0,13.92,0,20.89,0a2.42,2.42,0,0,0,2.29-1.27q13.23-19.74,26.51-39.44c1.44-2.15,2.9-4.28,4.4-6.51.34.48.57.8.79,1.13q15,22.21,29.86,44.45a3.15,3.15,0,0,0,3,1.65c6.77-.09,13.54,0,20.31-.05.51,0,1.24.32,1.48-.27.11-.28-.41-.85-.69-1.25q-21-29.34-42.09-58.66a2,2,0,0,1,.07-2.83q18.71-24.89,37.31-49.86c.24-.33.7-.6.49-1.19-6.92,0-13.84,0-20.76,0a2.36,2.36,0,0,0-2.2,1.15q-7.2,10.2-14.47,20.35Q276.45,693.19,269.93,702.3Z" transform="translate(0 0)"/><path class="cls-5" d="M170.26,724q-19.72,0-39.44,0c-1,0-1.59.17-1.57,1.35.15,7.14,1,14.1,4.78,20.39,5.13,8.59,12.87,13.33,22.62,14.74,6.87,1,13.75.85,20.26-2,7.32-3.18,12.62-8.26,14.49-16.32.21-.91.69-.92,1.38-.92,5.07,0,10.13,0,15.2,0,1.29,0,1.39.46,1.17,1.5a40.33,40.33,0,0,1-17.38,25.92,47.54,47.54,0,0,1-23.11,7.76c-8.67.72-17.27.21-25.53-2.75-15.2-5.44-24.61-16.38-29.3-31.6a78,78,0,0,1-3.57-24.6c.28-13.37,3.9-25.73,12.32-36.35a47.28,47.28,0,0,1,32-18.16c8.78-1.15,17.46-.61,25.72,2.78,10.13,4.17,17.46,11.53,22.73,21a67.29,67.29,0,0,1,7.39,23.52,82.9,82.9,0,0,1,.73,12.3c0,1.26-.48,1.45-1.59,1.45Q189.9,723.93,170.26,724Zm-9.78-14.88c10,0,20,0,30,0,1.3,0,1.67-.19,1.45-1.67a42.29,42.29,0,0,0-3.08-11,29.59,29.59,0,0,0-16.73-16,31.56,31.56,0,0,0-15.24-1.92,28.81,28.81,0,0,0-18.52,9c-5.3,5.56-7.95,12.36-8.94,19.93-.21,1.63.25,1.72,1.6,1.71C140.81,709.05,150.65,709.07,160.48,709.07Z" transform="translate(0 0)"/><path class="cls-5" d="M269.93,702.3q6.51-9.13,13-18.25,7.24-10.15,14.47-20.35a2.36,2.36,0,0,1,2.2-1.15c6.92.05,13.84,0,20.76,0,.21.59-.25.86-.49,1.19q-18.63,24.94-37.31,49.86a2,2,0,0,0-.07,2.83q21.09,29.29,42.09,58.66c.28.4.8,1,.69,1.25-.24.59-1,.26-1.48.27-6.77,0-13.54,0-20.31.05a3.15,3.15,0,0,1-3-1.65q-14.88-22.26-29.86-44.45c-.22-.33-.45-.65-.79-1.13-1.5,2.23-3,4.36-4.4,6.51q-13.26,19.71-26.51,39.44a2.42,2.42,0,0,1-2.29,1.27c-7-.06-13.93,0-20.89,0-.23-.68.27-1,.53-1.37q20.48-28.72,41-57.42a1.79,1.79,0,0,0-.06-2.56q-18.88-25.6-37.7-51.26c-.29-.4-.56-.81-.86-1.25.41-.34.82-.21,1.19-.21,7.12,0,14.25,0,21.37,0a2.21,2.21,0,0,1,2.07,1.1q12.7,18.65,25.49,37.23A3.69,3.69,0,0,0,269.93,702.3Z" transform="translate(0 0)"/><path class="cls-4" d="M160.48,709.07c-9.83,0-19.67,0-29.5,0-1.35,0-1.81-.08-1.6-1.71,1-7.57,3.64-14.37,8.94-19.93a28.81,28.81,0,0,1,18.52-9,31.56,31.56,0,0,1,15.24,1.92,29.59,29.59,0,0,1,16.73,16,42.29,42.29,0,0,1,3.08,11c.22,1.48-.15,1.67-1.45,1.67C180.45,709.06,170.47,709.07,160.48,709.07Z" transform="translate(0 0)"/><g id="original-wordmark"><path id="path4" class="cls-6" d="M616.88,777.81V663.67h6.2v18a23.22,23.22,0,0,0,2-2.52,30.7,30.7,0,0,1,28-17.37c14.12-.42,25.59,4.8,32.33,17.37a55.78,55.78,0,0,1,1.35,51.16c-6.28,14.08-21.79,21.08-38.4,18.51a31.06,31.06,0,0,1-24.78-16.36v45.4Zm6.2-73.76c.55,5.56.76,9.52,1.39,13.4,2.45,15.26,11.47,24.32,25.63,26a29.13,29.13,0,0,0,32-18.51,49.56,49.56,0,0,0-1.1-40.8,28.53,28.53,0,0,0-30-16.61A27.78,27.78,0,0,0,626.12,688,140.46,140.46,0,0,0,623.08,704.05Z" transform="translate(0 0)"/><path id="path6" class="cls-6" d="M818.7,719.56a33.38,33.38,0,0,1-32.63,29.5c-26,1.31-38.14-15.93-40.08-35.82a57.39,57.39,0,0,1,5.06-31.62,35.29,35.29,0,0,1,36.71-19.68,33.74,33.74,0,0,1,29.93,25.67,173.38,173.38,0,0,1,2.9,19H752.35c-1.26,18,8.43,32.54,22.17,36,17.12,4.22,31.74-3.2,37.05-19.47C812.75,719,814.9,718.38,818.7,719.56ZM752.35,700.8h61c-.38-19.22-12.35-33.13-28.57-33.34C766.39,667.17,753.15,680.57,752.35,700.8Z" transform="translate(0 0)"/><path id="path8" class="cls-6" d="M831.26,720h6a24,24,0,0,0,14.08,20.65,36.81,36.81,0,0,0,31.95-.84,14.36,14.36,0,0,0,8.43-14.12,13,13,0,0,0-8.77-13c-6.57-2.45-13.57-3.8-20.27-5.95a148.18,148.18,0,0,1-20.4-7.46C831.47,694,830.79,673.45,843,667a43,43,0,0,1,41.13-.64,21.67,21.67,0,0,1,11,22.09H890c0-.25-.46-.46-.46-.72-.63-16.39-14.38-21.45-29.13-20a38.67,38.67,0,0,0-12.64,3.84A13.49,13.49,0,0,0,848.83,696c6.49,2.36,13.28,3.88,19.94,5.73,5.35,1.48,10.92,2.45,16.1,4.22a19,19,0,0,1,13.07,17.15A20.28,20.28,0,0,1,887,744.22c-14.08,8-37.26,5.86-47.59-4.22A28.08,28.08,0,0,1,831.26,720Z" transform="translate(0 0)"/><path id="path10" class="cls-6" d="M973.81,688.41H968.2a13,13,0,0,0-.38-2.06,18.33,18.33,0,0,0-14.92-17.62,36.81,36.81,0,0,0-23.65,1.13,14.39,14.39,0,0,0-10.41,13.7A13.23,13.23,0,0,0,929,696.88c8.43,2.62,17.07,4.22,25.63,6.58a70.54,70.54,0,0,1,8.17,2.48,21.08,21.08,0,0,1,1.14,39.25,46.91,46.91,0,0,1-37.93.38A26.31,26.31,0,0,1,910.12,720h5.48a30.73,30.73,0,0,0,46.78,19.56,15.06,15.06,0,0,0,8.1-14.08,13,13,0,0,0-8.9-12.94c-6.57-2.44-13.57-3.75-20.27-5.9a148.63,148.63,0,0,1-20.53-7.38c-10.53-5.18-11.38-25.54.64-32a42.45,42.45,0,0,1,41.81-.46A22,22,0,0,1,973.81,688.41Z" transform="translate(0 0)"/><path id="path12" class="cls-6" d="M606.64,747a9.66,9.66,0,0,1-12-4.55c-6.87-10.29-14.46-20.11-21.75-30.14l-3.16-4.22c-8.68,11.64-17.36,22.81-25.29,34.4A9.28,9.28,0,0,1,533.09,747l32.58-43.71-30.3-39.5a10.08,10.08,0,0,1,12,4.22c7,10.28,14.84,20.1,22.59,30.51,7.8-10.32,15.51-20.19,22.72-30.39a9.06,9.06,0,0,1,11.3-4.21l-11.76,15.59c-5.27,7-10.46,14-15.94,20.74a4.21,4.21,0,0,0-.32,5.95,3.34,3.34,0,0,0,.32.33C586.37,719.85,596.36,733.26,606.64,747Z" transform="translate(0 0)"/><path id="path14" class="cls-6" d="M745,663.33v5.9a30.57,30.57,0,0,0-32.5,28.5c-.06,1-.08,2,0,3.07v46.37h-6v-83.5h5.9v17.11C719.6,668.31,730.86,663.67,745,663.33Z" transform="translate(0 0)"/><path id="path16" class="cls-6" d="M455,702.7c.89-4.22,1.43-8.81,2.66-13.11,7.29-25.92,37-36.71,57.45-20.65,12,9.4,15,22.72,14.37,37.72H462.07c-1.1,26.81,18.25,43,43,34.73a25.62,25.62,0,0,0,16.31-18.16c1.31-4.22,3.42-4.94,7.42-3.71a34.21,34.21,0,0,1-16.35,25,39.61,39.61,0,0,1-46.16-5.9,41.49,41.49,0,0,1-10.36-24.36,19.86,19.86,0,0,0-.85-4.22Q455,706.28,455,702.7Zm7.12-1.81h61c-.38-19.43-12.64-33.22-29-33.34-18.21-.26-31.24,13.23-32,33.25Z" transform="translate(0 0)"/></g><path class="cls-7" d="M142,1236.39c-6.78,0-12.9-.05-19,0-1.94,0-2.48-1.38-3.3-2.59-6.24-9.23-12.7-18.33-18.6-27.79-2.79-4.49-6.6-3-10.14-2.83-2,.11-1.13,2.46-1.14,3.8-.09,8.66-.13,17.33,0,26,0,2.51-.49,3.67-3.27,3.43-4.79-.4-10.86,1.89-14-.9-2.69-2.35-.73-8.5-.74-13-.07-23.33.06-46.66-.12-70,0-3.95,1-5.12,5-4.95,12.63.54,25.31-.73,37.92,1.07,12.94,1.85,20.1,8.12,21.74,19.11,2.36,15.89-2.48,26.8-14.71,32-3.33,1.42-1.93,2.63-.82,4.31l19.58,29.56C140.7,1234.35,141.09,1235,142,1236.39Zm-52.24-61c0,3,0,6,0,9,0,1.7.35,2.91,2.45,2.84,6.12-.19,12.27.34,18.36-.87,4.76-1,7.11-3.8,7.61-8.49,1-9.83-2-13.41-11.89-14-1.66-.09-3.32-.12-5-.12C89.7,1163.67,89.7,1163.68,89.71,1175.38Z" transform="translate(0 0)"/><path class="cls-7" d="M532.6,1146.08c13.41.17,24,2.87,31.86,12.61,1.89,2.35,2.27,3.64-.46,5.45a80.18,80.18,0,0,0-8.23,6.5c-2,1.73-3.23,1.5-4.82-.58-5.92-7.72-14.06-8.85-22.91-7.08-3.93.79-7.17,2.67-7.68,7.32s2.22,7.33,6.06,8.61c6.93,2.31,14,4.08,21,6.16,18.35,5.44,25.92,19.88,19.25,37-3.83,9.82-12.18,13.78-21.75,15.41a56.29,56.29,0,0,1-30.44-2.83,30.82,30.82,0,0,1-12.84-10c-1.56-2-1.66-3.3.58-4.83a106.43,106.43,0,0,0,8.71-6.69c2-1.75,3.22-1.26,4.85.65,7.22,8.44,16.47,10,26.75,7.33,4.16-1.07,7.19-3.37,7.55-8.14.39-5-2.42-8-6.55-9.53-5.76-2.12-11.75-3.6-17.62-5.41-2.7-.83-5.41-1.68-8.05-2.68-11.63-4.41-17.24-12.86-16.35-24.5.91-12,8.32-20.65,19.84-23.3A43.89,43.89,0,0,1,532.6,1146.08Z" transform="translate(0 0)"/><path class="cls-7" d="M281.15,1210.44c0,7.33-.13,14.66.06,22,.07,2.91-.5,4.36-3.79,4a64.83,64.83,0,0,0-8.48,0c-2,.07-3.19-.34-3.07-2.7.17-3.4-1.17-3.14-3.44-1.43a29.07,29.07,0,0,1-22.06,5.84c-10.12-1.31-17.11-8.3-17.75-17.87-.85-12.59,4.8-20.75,16.57-23.75,6.31-1.61,12.8-2.06,19.26-2.66,2.12-.19,5.5.84,5.84-2.23.39-3.54-.11-7.35-4.14-9.35-5.89-2.94-16.78-1.82-21.62,2.81-2,1.92-3.34,2.08-5.4.43a24.57,24.57,0,0,0-5.46-3.49c-4.83-2.11-3.62-4.44-.57-7.09,7.43-6.47,16.54-7.38,25.74-7.48a44.41,44.41,0,0,1,14.29,1.92c8.18,2.66,13.05,8.1,13.5,16.62.43,8.13.09,16.3.09,24.45Zm-16.71,1.68c-.9-2,2.19-6.31-1.84-6.37-6.2-.1-12.7.18-18.32,3.46s-6.39,11.79-1.39,14.53c5.58,3.07,10.89.83,16-1.8C262.85,1219.91,266,1217.4,264.44,1212.12Z" transform="translate(0 0)"/><path class="cls-7" d="M189.57,1207.24c-6.31,0-12.63.1-18.94,0-2.81-.07-3.38,1-3,3.57,1.05,8,5.3,12.28,13.35,12.87,5.88.44,11.72.28,16.36-4.23,1-1,1.88-1.18,3.05-.31,2.95,2.18,5.91,4.33,8.92,6.4,1.6,1.1,1.1,2.06.13,3.22a23.55,23.55,0,0,1-10.93,7.58,48.53,48.53,0,0,1-30-.13c-8.33-2.68-13.84-8.73-16.2-17a54.66,54.66,0,0,1,.26-32.45c4.46-13.6,16.4-20.55,31.82-19.21,18.13,1.58,26,10.2,27.3,29.77.65,10,.65,10-9.17,10Zm-7.82-11.51c3.48,0,7-.06,10.43,0,2.42,0,3.08-.82,2.76-3.32-1-7.75-5.27-11.61-13.37-11.64-7.43,0-12.44,4.62-13.27,12-.24,2.21.28,3,2.52,3C174.46,1195.66,178.11,1195.73,181.75,1195.73Z" transform="translate(0 0)"/><path class="cls-7" d="M295.83,1203.29a44.7,44.7,0,0,1,2.26-15.71c4.78-13.95,16.4-21.29,31.31-20.11,7.73.61,15.18,1.8,21.09,7.51,2.56,2.49,3.77,4.72-.5,6.67a9.76,9.76,0,0,0-2,1.48c-3.53,3-6.21,4.52-11.25.94-9.15-6.49-20.67-.87-23,10.06a41.56,41.56,0,0,0-.08,17.31,15.88,15.88,0,0,0,25.61,9.22c2.74-2.24,4.33-2.13,6.61-.05a32.72,32.72,0,0,0,3.26,2.28c6.09,4.29,6.3,5.3,0,9.59-11.58,7.82-24.13,7.72-36.62,2.69-11.64-4.69-15.27-14.91-16.43-26.4C295.91,1207,295.91,1205.12,295.83,1203.29Z" transform="translate(0 0)"/><path class="cls-7" d="M368.15,1203.12c0-5.49-.13-11,.05-16.47.1-3.07-.6-4.88-4.09-4.26-3.75.67-5.22-.87-4.61-4.62a10.69,10.69,0,0,0,0-3.48c-.61-3.8.66-5.69,4.73-5,3,.5,4.19-.66,4-3.81-.26-3.81,0-7.65-.09-11.48-.07-2.42.56-3.46,3.32-3.59,13.29-.59,13.57-.67,13.16,12.59-.16,5.28,1.4,7.22,6.51,6.3a2.78,2.78,0,0,1,.5,0c9.21,0,10.46,1.6,8.83,11-.25,1.42-.7,2.12-2.12,2.11l-2,0c-11.58.25-11.6.25-11.58,11.73,0,7.32-.1,14.65.18,22s4,10.14,10.88,8.13c4.69-1.36,5.83,0,6.7,4.36,1.69,8.3,1.65,8.69-6.91,9.5-1,.1-2,.17-3,.25-16.56,1.29-24-5.28-24.42-21.72-.13-4.49,0-9,0-13.48Z" transform="translate(0 0)"/><path class="cls-7" d="M485.61,1184.21c0,10.66.22,21.32-.06,32-.31,11.9-6.71,19.09-18.46,21.36-8.67,1.67-17.23.82-25.72-1.34-2.82-.71-4-2.1-2.3-4.89a2.25,2.25,0,0,0,.14-.48c1.28-3.59,1.62-8.25,4.12-10.5s6.65,1.17,10.16,1.71c9.76,1.5,14-1.63,14.06-11.47q.27-29,0-58c0-3.95,1.06-5.37,5-4.94a37.09,37.09,0,0,0,8.49,0c4.19-.53,4.92,1.34,4.84,5.07-.23,10.49-.08,21-.08,31.48Z" transform="translate(0 0)"/><path class="cls-8" d="M694.94,1295.72a188.84,188.84,0,0,1,4.61-41.23c.55-2.48.23-3.66-2.56-4.53-15.23-4.78-29.9-10.93-43.3-19.72-7.82-5.13-15.07-11-20.43-18.85-9.49-13.92-8.56-28.64,2.45-41.35,9.15-10.56,20.61-17.87,32.95-24a174,174,0,0,1,28.52-11.27c2.32-.69,2.64-1.69,2.18-3.93-3.5-16.92-6.11-33.93-4.25-51.3,1-9.34,2.9-18.42,7.72-26.66,7.12-12.15,18-16.72,31.6-15.49,12.82,1.17,24.15,6.57,35,13A180,180,0,0,1,799,1072.74c2,1.82,3.2,1.81,5.21,0,13.36-12.26,27.82-23,44.57-30.24a62.81,62.81,0,0,1,19.87-5.37c16.93-1.41,29.28,6.64,35,22.63,4.91,13.66,5.37,27.78,4.49,42a170,170,0,0,1-4.16,27.94c-.73,3.14,0,4.37,3.07,5.32,15.78,4.8,30.8,11.36,44.48,20.67,7.66,5.21,14.73,11.15,19.66,19.19,8.33,13.58,7.17,27.42-3.24,39.6-8.86,10.37-20,17.7-32,23.72a198.39,198.39,0,0,1-29.57,11.91c-2,.64-2.59,1.44-2.11,3.69,3.65,17.21,6,34.56,4.16,52.22a68.57,68.57,0,0,1-6.65,24.2c-6.13,12.08-17.64,18.35-31.56,17.22-12.55-1-23.64-6.13-34.37-12.23a173.67,173.67,0,0,1-31.37-23.41c-2-1.8-3-1.69-4.92,0-14,12.78-29.09,24-46.8,31.22A62.07,62.07,0,0,1,737,1347.4c-18.57,2.33-31.75-6-37.68-23.78A90.37,90.37,0,0,1,694.94,1295.72Zm105.62-160.08c-8.36,0-18.18.45-28,1.11a5.65,5.65,0,0,0-4.74,2.68,387.64,387.64,0,0,0-29.39,51.4,3.32,3.32,0,0,0-.21,3.15,374.73,374.73,0,0,0,30.48,52.51,3.85,3.85,0,0,0,3.32,1.66,408.29,408.29,0,0,0,58.63,0,6.12,6.12,0,0,0,5.2-2.93,399.15,399.15,0,0,0,29.23-51.15,3.81,3.81,0,0,0,0-3.69,378.16,378.16,0,0,0-29.67-51.25,5.24,5.24,0,0,0-4.48-2.46C821.28,1136.1,811.66,1135.68,800.56,1135.64ZM710.8,1291.15a94.71,94.71,0,0,0,.77,14.87c.86,6.88,2.33,13.58,6.29,19.46a13.47,13.47,0,0,0,8.79,6c5.91,1.19,11.54,0,17-2,17.46-6.15,31.67-17.36,45.3-29.44,1.18-1,1.21-1.92.13-3-9.89-10.2-18.71-21.3-27.28-32.6a3.69,3.69,0,0,0-2.78-1.54,322.44,322.44,0,0,1-41.28-7.17c-1.84-.45-2.24.14-2.6,1.74A184.86,184.86,0,0,0,710.8,1291.15ZM961,1192a25.5,25.5,0,0,0-.71-3.44c-2-6.11-6.23-10.63-11-14.59-14.15-11.71-30.76-18.58-48-24.19-1.68-.55-2.07.19-2.48,1.57A330.25,330.25,0,0,1,884,1190.89a3.24,3.24,0,0,0,.11,2.88A323,323,0,0,1,898.79,1233c.64,2.17,1.55,2.26,3.48,1.65a169.89,169.89,0,0,0,30.75-13c9-5,17.55-10.57,23.84-19A19.06,19.06,0,0,0,961,1192Zm-68.31-99.48c.07-7.9-.28-18.11-4.14-27.85-3.67-9.24-9.4-12.66-19.24-11.53a55.07,55.07,0,0,0-17.65,5.46c-13.73,6.63-25.63,15.9-36.93,26-1.32,1.18-1.37,1.9-.16,3.17a361.48,361.48,0,0,1,27.05,32.44,3.71,3.71,0,0,0,2.72,1.66,321.94,321.94,0,0,1,41.61,7.17c1.5.38,2.14,0,2.48-1.62A186.11,186.11,0,0,0,892.65,1092.5Zm-250.18,99.8a18.27,18.27,0,0,0,1.17,5.15c2.31,5.62,6.38,9.86,10.94,13.59,14,11.48,30.43,18.34,47.46,23.91,1.74.57,2.28-.14,2.74-1.7a326.9,326.9,0,0,1,14.43-39,4.15,4.15,0,0,0-.1-3.7,318.25,318.25,0,0,1-14.41-38.69c-.58-2-1.25-2.61-3.37-1.86-7.26,2.58-14.58,5-21.54,8.32-11.36,5.42-22.4,11.4-31,21C645.46,1183,642.83,1187.2,642.47,1192.3Zm68.12-103.36a169.39,169.39,0,0,0,4.26,37.88c.36,1.61.62,2.82,2.89,2.24a288.64,288.64,0,0,1,41-7.14A4.31,4.31,0,0,0,762,1120a311.5,311.5,0,0,1,26.62-32c1.44-1.48,1.24-2.34-.21-3.62a189.92,189.92,0,0,0-27.4-20.59c-8.3-5-16.94-9.15-26.68-10.44-10.23-1.35-15.89,2-19.69,11.59C711.27,1073.48,710.66,1082.35,710.59,1088.94Zm182.3,207.2a175.45,175.45,0,0,0-4.15-38.18c-.43-2.07-1-2.81-3.4-2.23a291.93,291.93,0,0,1-40.07,7,5.21,5.21,0,0,0-4,2.28,314.59,314.59,0,0,1-26.17,31.55c-1.54,1.63-1.26,2.5.27,3.84a187.26,187.26,0,0,0,24.84,19c8.3,5.14,16.84,9.71,26.58,11.58,12.6,2.41,19.1-1.45,23.05-13.71A72.69,72.69,0,0,0,892.89,1296.14ZM801.71,1120v0c5.66,0,11.32,0,17,0,.57,0,1.4,0,1.67-.29.62-.78-.35-1.22-.75-1.71-5.34-6.61-10.85-13.07-16.72-19.23-1-1-1.5-1.28-2.59-.12-5.81,6.21-11.33,12.67-16.66,19.29-.42.51-1.2,1.11-.62,1.8.26.32,1.1.22,1.68.22Zm19.57,144.7c-13.33.62-25.83.56-39.29,0,5.12,6,9.58,11.3,14.17,16.5,5.63,6.37,5.71,6.36,11.36.1C812.17,1276.14,816.65,1270.83,821.28,1264.71Zm-72.61-125.37c-9.92,1.49-18.95,3.13-27.88,5.28-1.57.37-1.08,1.37-.75,2.36,1.5,4.63,2.91,9.29,4.5,13.88a80.68,80.68,0,0,0,4.73,11.91C735.48,1161.46,741.4,1150.45,748.67,1139.34ZM854.8,1245.42c9.76-1.33,18.72-3.28,27.67-5.31,1.69-.38,1.29-1.44.92-2.56-1.52-4.61-2.95-9.25-4.54-13.84-1.34-3.86-2.85-7.67-4.58-12.28C868.15,1223.4,861.86,1234.28,854.8,1245.42Zm19.43-72.55c3.73-9,6.47-17.6,9.11-26.19.28-.9.51-1.77-.87-2.09a261.3,261.3,0,0,0-27.73-5.14A385.52,385.52,0,0,1,874.23,1172.87Zm-145.05,39c-3.62,9.09-6.54,17.66-9.1,26.37-.52,1.77.81,1.78,1.84,2,4.34,1,8.69,1.92,13.05,2.77s8.67,1.54,13.83,2.44C741.57,1234.31,735.34,1223.51,729.18,1211.91Z" transform="translate(0 0)"/><path class="cls-8" d="M801.44,1224.85a32.53,32.53,0,1,1,32.83-32.39A32.5,32.5,0,0,1,801.44,1224.85Z" transform="translate(0 0)"/><path class="cls-9" d="M217.79,1848a27,27,0,0,1-13.46-3.6L161.48,1819c-6.4-3.58-3.28-4.85-1.17-5.58,8.54-3,10.27-3.65,19.38-8.82a3.3,3.3,0,0,1,3.19.25l32.92,19.54a4.19,4.19,0,0,0,4,0l128.36-74.08a4.07,4.07,0,0,0,2-3.48V1598.73a4.15,4.15,0,0,0-2-3.54l-128.31-74a4,4,0,0,0-4,0l-128.27,74a4.12,4.12,0,0,0-2,3.52v148.13a3.93,3.93,0,0,0,2,3.43l35.16,20.32c19.08,9.54,30.76-1.7,30.76-13V1611.37a3.69,3.69,0,0,1,3.73-3.7h16.28a3.71,3.71,0,0,1,3.72,3.7v146.26c0,25.46-13.87,40.06-38,40.06-7.42,0-13.26,0-29.57-8L76,1770.28a27.12,27.12,0,0,1-13.46-23.42V1598.73A27.06,27.06,0,0,1,76,1575.33l128.36-74.17a28.1,28.1,0,0,1,27,0l128.35,74.17a27.09,27.09,0,0,1,13.49,23.4v148.13a27.16,27.16,0,0,1-13.49,23.42l-128.35,74.11A27,27,0,0,1,217.79,1848Z" transform="translate(0 0)"/><path class="cls-9" d="M257.44,1745.93c-56.17,0-67.93-25.78-67.93-47.41a3.69,3.69,0,0,1,3.71-3.69h16.59a3.72,3.72,0,0,1,3.69,3.14c2.5,16.89,10,25.42,43.94,25.42,27.05,0,38.56-6.12,38.56-20.46,0-8.28-3.26-14.41-45.29-18.53-35.12-3.47-56.84-11.23-56.84-39.33,0-25.9,21.82-41.34,58.43-41.34,41.12,0,61.47,14.27,64,44.89a3.73,3.73,0,0,1-1,2.86,3.79,3.79,0,0,1-2.71,1.18H296a3.71,3.71,0,0,1-3.61-2.9c-4-17.78-13.71-23.46-40.08-23.46-29.53,0-33,10.29-33,18,0,9.34,4,12.06,43.91,17.33,39.45,5.22,58.19,12.6,58.19,40.33C321.44,1729.91,298.12,1745.93,257.44,1745.93Z" transform="translate(0 0)"/><path class="cls-10" d="M550,1678.21a5.11,5.11,0,0,0-2.56-4.45l-42.36-24.37a5,5,0,0,0-2.33-.68h-.44a5.14,5.14,0,0,0-2.33.68l-42.36,24.37a5.14,5.14,0,0,0-2.56,4.45l.09,65.63a2.52,2.52,0,0,0,1.28,2.21,2.46,2.46,0,0,0,2.54,0l25.17-14.41a5.15,5.15,0,0,0,2.56-4.44v-30.66a5.09,5.09,0,0,1,2.56-4.43l10.72-6.18a5.09,5.09,0,0,1,2.56-.68,5,5,0,0,1,2.54.68l10.72,6.18a5.09,5.09,0,0,1,2.56,4.43v30.66a5.18,5.18,0,0,0,2.56,4.44l25.17,14.41a2.48,2.48,0,0,0,2.55,0,2.55,2.55,0,0,0,1.27-2.21Z" transform="translate(0 0)"/><path class="cls-10" d="M753.76,1588a2.56,2.56,0,0,0-3.8,2.24v65a1.79,1.79,0,0,1-2.69,1.55l-10.6-6.12a5.12,5.12,0,0,0-5.12,0l-42.37,24.45a5.12,5.12,0,0,0-2.56,4.43v48.92a5.14,5.14,0,0,0,2.56,4.43l42.37,24.47a5.14,5.14,0,0,0,5.12,0l42.38-24.47a5.13,5.13,0,0,0,2.55-4.43V1606.52a5.13,5.13,0,0,0-2.62-4.47Zm-3.93,124.4a1.27,1.27,0,0,1-.64,1.11l-14.54,8.39a1.32,1.32,0,0,1-1.28,0l-14.55-8.39a1.27,1.27,0,0,1-.64-1.11v-16.79a1.27,1.27,0,0,1,.64-1.11l14.55-8.41a1.32,1.32,0,0,1,1.28,0l14.55,8.41a1.28,1.28,0,0,1,.63,1.11Z" transform="translate(0 0)"/><path class="cls-10" d="M894.86,1695.15a5.13,5.13,0,0,0,2.54-4.43v-11.85a5.13,5.13,0,0,0-2.55-4.43L852.75,1650a5.12,5.12,0,0,0-5.12,0l-42.36,24.46a5.12,5.12,0,0,0-2.56,4.43v48.9a5.09,5.09,0,0,0,2.59,4.44l42.09,24a5.1,5.1,0,0,0,5,0l25.46-14.15a2.57,2.57,0,0,0,0-4.46l-42.63-24.46A2.58,2.58,0,0,1,834,1711v-15.33a2.55,2.55,0,0,1,1.28-2.21l13.27-7.65a2.53,2.53,0,0,1,2.55,0l13.27,7.65a2.55,2.55,0,0,1,1.28,2.21v12.06a2.56,2.56,0,0,0,3.85,2.21Z" transform="translate(0 0)"/><path class="cls-11" d="M849.57,1692.86a1,1,0,0,1,1,0l8.13,4.69a1,1,0,0,1,.49.85v9.38a1,1,0,0,1-.49.86l-8.13,4.69a1,1,0,0,1-1,0l-8.13-4.69a1,1,0,0,1-.49-.86v-9.38a1,1,0,0,1,.49-.85Z" transform="translate(0 0)"/><path class="cls-12" d="M620.84,1650.25a5.07,5.07,0,0,0-5.08,0l-42.14,24.31a5.1,5.1,0,0,0-2.54,4.41v48.67a5.09,5.09,0,0,0,2.54,4.4l42.14,24.34a5.09,5.09,0,0,0,5.09,0L663,1732a5.09,5.09,0,0,0,2.54-4.4V1679a5.1,5.1,0,0,0-2.54-4.41Z" transform="translate(0 0)"/><g class="cls-13"><path class="cls-14" d="M615.67,1650.25l-42.22,24.31a5.26,5.26,0,0,0-2.73,4.41v48.67a4.89,4.89,0,0,0,1.32,3.23l47.44-81.15A5.18,5.18,0,0,0,615.67,1650.25Z" transform="translate(0 0)"/><path class="cls-14" d="M619.71,1756.87a5.33,5.33,0,0,0,1.19-.49L663.08,1732a5.19,5.19,0,0,0,2.64-4.4V1679a5,5,0,0,0-1.54-3.54Z" transform="translate(0 0)"/><path class="cls-15" d="M663.05,1674.56l-42.25-24.31a5,5,0,0,0-1.32-.53L572,1730.87a5.69,5.69,0,0,0,1.42,1.17l42.32,24.34a5.15,5.15,0,0,0,3.93.49l44.47-81.44A5.39,5.39,0,0,0,663.05,1674.56Z" transform="translate(0 0)"/><path class="cls-14" d="M665.72,1727.64V1679a5.2,5.2,0,0,0-2.67-4.41l-42.25-24.31a4.92,4.92,0,0,0-1.55-.57l46.32,79.13A5.07,5.07,0,0,0,665.72,1727.64Z" transform="translate(0 0)"/><path class="cls-14" d="M573.45,1674.56a5.26,5.26,0,0,0-2.73,4.41v48.67a5.27,5.27,0,0,0,2.74,4.4l42.32,24.34a5.19,5.19,0,0,0,3.26.63l-45.34-82.59Z" transform="translate(0 0)"/><polygon class="cls-16" points="614.35 1641.31 613.77 1641.64 614.54 1641.64 614.35 1641.31"/><path class="cls-17" d="M663.08,1732a5.37,5.37,0,0,0,2.49-3.23l-46.32-79.13a5.15,5.15,0,0,0-3.58.57l-42,24.17L619,1757a5.26,5.26,0,0,0,1.86-.63Z" transform="translate(0 0)"/><polygon class="cls-18" points="667 1731.26 666.72 1730.78 666.72 1731.42 667 1731.26"/><path class="cls-19" d="M663.08,1732l-42.18,24.34a5.26,5.26,0,0,1-1.86.63l.84,1.53,46.84-27.12v-.64l-1.15-2A5.37,5.37,0,0,1,663.08,1732Z" transform="translate(0 0)"/><path class="cls-20" d="M663.08,1732l-42.18,24.34a5.26,5.26,0,0,1-1.86.63l.84,1.53,46.84-27.12v-.64l-1.15-2A5.37,5.37,0,0,1,663.08,1732Z" transform="translate(0 0)"/></g><path class="cls-10" d="M906.21,415.7l-9.33-3.19s1.14-47.59-15.94-51c-11.39-13.21,1.82-560.19,42.81-1.83,0,0-14.12,7.06-16.63,19.13-2.73,11.84-.91,36.89-.91,36.89Z" transform="translate(0 0)"/><path class="cls-21" d="M906.21,415.7l-9.33-3.19s1.14-47.59-15.94-51c-11.39-13.21,1.82-560.19,42.81-1.83,0,0-14.12,7.06-16.63,19.13-2.73,11.84-.91,36.89-.91,36.89Z" transform="translate(0 0)"/><path class="cls-10" d="M911.22,369.7S993,316,973.84,204.15C955.4,122.86,911.91,96.22,907.12,86c-5.23-7.29-10.24-20-10.24-20l3.41,226.12c0,.23-7.06,69.23,10.94,77.66" transform="translate(0 0)"/><path class="cls-22" d="M911.22,369.7S993,316,973.84,204.15C955.4,122.86,911.91,96.22,907.12,86c-5.23-7.29-10.24-20-10.24-20l3.41,226.12c0,.23-7.06,69.23,10.94,77.66" transform="translate(0 0)"/><path class="cls-10" d="M892.1,372.66s-76.75-52.37-72.19-144.6c4.32-92.22,58.52-137.54,69-145.73,6.83-7.29,7.06-10,7.51-17.31,4.78,10.25,3.87,153.25,4.56,170.1C903,300,897.33,360.37,892.1,372.66Z" transform="translate(0 0)"/><path class="cls-23" d="M892.1,372.66s-76.75-52.37-72.19-144.6c4.32-92.22,58.52-137.54,69-145.73,6.83-7.29,7.06-10,7.51-17.31,4.78,10.25,3.87,153.25,4.56,170.1C903,300,897.33,360.37,892.1,372.66Z" transform="translate(0 0)"/><path class="cls-24" d="M572.07,207.45c-.58.12-1.17,1.41-1.17,2.12-.11,4.69-.23,17.13-.23,25.58a.87.87,0,0,0,.7.7c1.76.12,6,.23,9.62.23,5,0,8-.7,9.63-1.4,4.22-2.12,6.21-6.69,6.21-11.74,0-11.38-8-15.72-19.83-15.72a18.76,18.76,0,0,0-4.93.23Zm30.28,52.46c0-11.62-8.57-18.08-24.05-18.08-.71,0-5.64-.11-6.81.12-.35.12-.82.35-.82.71,0,8.33-.12,21.59.23,26.75.24,2.23,1.88,5.4,3.88,6.34,2.11,1.17,6.92,1.4,10.2,1.4,9.27,0,17.37-5.16,17.37-17.24ZM548.14,201c1.17,0,4.69.35,13.73.35,8.56,0,15.37-.23,23.7-.23,10.21,0,24.29,3.63,24.29,18.89,0,7.51-5.28,13.49-12.2,16.43-.36.11-.36.35,0,.47,9.85,2.46,18.54,8.56,18.54,20.06,0,11.27-7,18.42-17.25,22.88-6.22,2.7-14,3.64-21.83,3.64-6,0-22.06-.7-31-.47-.93-.35.83-4.58,1.65-5.28a21.74,21.74,0,0,0,6-.94c3.17-.82,3.52-1.76,4-6.57.24-4.11.24-18.66.24-29,0-14.2.11-23.82,0-28.51-.12-3.64-1.41-4.82-4-5.52-2-.35-5.28-.82-8-1.17-.59-.59,1.4-4.58,2.11-5.05Zm-67.71,73c2.82,2.22,8.33,3.16,13.26,3.16,6.34,0,12.68-1.17,18.78-6.69S523,256.15,523,242.3c0-13.26-5-24.05-15.37-30.39-5.87-3.64-13.38-5.16-22.06-5.16-2.59,0-5.05.12-6.57.82a3.43,3.43,0,0,0-1.18,1.88c-.23,2.35-.23,20.42-.23,31,0,10.91,0,26.16.23,27.92,0,1.76.82,4.46,2.58,5.64ZM453.8,201c2.23,0,10.79.35,14.9.35,7.39,0,12.67-.35,26.63-.35,11.74,0,21.6,3.17,28.64,9.15,8.56,7.4,13,17.6,13,30,0,17.72-8.1,27.93-16.19,33.8s-18.66,9.5-33.68,9.5c-8,0-21.71-.23-33.09-.35h-.12c-.58-1.06.94-5.16,1.88-5.28a18.47,18.47,0,0,0,5.4-1.06c2.46-.94,2.93-2.23,3.29-6.57.35-8.1.23-17.83.23-28.86,0-7.87.12-23.24-.12-28.17-.35-4.1-2.11-5.16-5.63-5.86-1.76-.35-4.11-.83-7.39-1.18-.47-.82,1.64-4.46,2.23-5.16Z" transform="translate(0 0)"/><path class="cls-23" d="M311.82,278.56a23.6,23.6,0,0,1-7.63-2,3.62,3.62,0,0,1-.94-1.88c-.23-4.11-.23-15.84-.23-23.7,0-6.34-1.06-11.85-3.76-15.73a16,16,0,0,0-13.61-7c-5.16,0-12.09,3.52-17.84,8.45-.11.12-1.05.94-.94-.35s.24-3.87.36-5.63a3.07,3.07,0,0,0-.83-2.47c-3.75,1.88-14.31,4.34-18.18,4.7-2.82.58-3.52,3.28-.59,4.22h.12a26.22,26.22,0,0,1,6.92,3.05c1.17.94,1.06,2.23,1.06,3.29.11,8.8.11,22.29-.24,29.69-.11,2.93-.94,4-3.05,4.45l.24-.11a46.3,46.3,0,0,1-4.93.93c-.71.71-.71,4.46,0,5.29,1.29,0,8.09-.36,13.73-.36,7.74,0,11.73.36,13.73.36.82-.94,1.05-4.46.58-5.29a21.33,21.33,0,0,1-5.39-.82c-2.12-.47-2.7-1.52-2.82-4-.24-6.22-.24-19.36-.24-28.27,0-2.47.71-3.64,1.41-4.35a17.79,17.79,0,0,1,10.91-4,12.17,12.17,0,0,1,8.1,2.7,11.61,11.61,0,0,1,3.76,7.4c.58,5,.35,15,.35,23.7,0,4.69-.35,5.86-2.11,6.45a22.91,22.91,0,0,1-5.4,1.06c-.82.82-.59,4.46,0,5.28,3.4,0,7.39-.35,13.26-.35,7.27,0,12,.35,13.84.35.59-.71.82-4.11.36-5.05Zm32.5-44.82c-6.22,0-10.09,4.81-10.09,12.32s3.4,16.43,13,16.43c1.65,0,4.7-.71,6.1-2.35,2.23-2.11,3.76-6.34,3.76-10.8,0-9.73-4.81-15.6-12.79-15.6Zm-.82,51.86a10.19,10.19,0,0,0-5.05,1.29c-4.93,3.17-7.16,6.22-7.16,9.86a10.41,10.41,0,0,0,4.11,8.45c3.4,2.93,8.1,4.34,14.08,4.34,12,0,17.25-6.45,17.25-12.79,0-4.46-2.23-7.39-6.8-9-3.29-1.41-9.27-2.12-16.43-2.12Zm.82,30.51c-7.16,0-12.32-1.52-16.78-4.93a15.46,15.46,0,0,1-6.22-11.61,9,9,0,0,1,2.35-5.87c1.29-1.41,4.1-4.11,10.79-8.68.24-.12.35-.24.35-.47a.77.77,0,0,0-.47-.59c-5.51-2.11-7.15-5.52-7.62-7.39v-.24c-.12-.7-.35-1.41.7-2.11.82-.59,2-1.29,3.29-2.11a50.19,50.19,0,0,0,5.39-3.52.86.86,0,0,0,.24-.71.78.78,0,0,0-.47-.58c-8.21-2.7-12.32-8.8-12.32-18a17.81,17.81,0,0,1,7.51-14.78c3.28-2.58,11.5-5.75,16.9-5.75h.35c5.51.12,8.56,1.29,12.91,2.82a21.68,21.68,0,0,0,7.62,1.17c4.58,0,6.57-1.41,8.22-3.05a6.63,6.63,0,0,1,.47,2.35,8.92,8.92,0,0,1-1.53,5.39,6.67,6.67,0,0,1-5.16,2.23h-.59a24.82,24.82,0,0,1-3.05-.47l-.47.24c-.12.23,0,.47.12.82l.12.23a44.43,44.43,0,0,1,.7,5.05c0,9.62-3.87,13.84-8,17A26.94,26.94,0,0,1,346,267.88a14.37,14.37,0,0,0-1.64.12c-.59,0-1.41.12-1.53.12h-.11c-.94.23-3.29,1.41-3.29,3.4,0,1.76,1.06,3.87,6.1,4.23,1.06.11,2.11.11,3.29.23,6.69.47,15,1.06,18.89,2.35a13.14,13.14,0,0,1,8.8,12.55c0,8.69-6.22,16.78-16.54,21.83a37.79,37.79,0,0,1-15.61,3.4Zm66.88-81.78a10.9,10.9,0,0,0-6.33,1.75c-4.58,2.82-6.93,8.45-6.93,16.67,0,15.37,7.75,26.17,18.78,26.17a11.92,11.92,0,0,0,8.09-2.82c3.41-2.82,5.17-8.45,5.17-16.31,0-15.26-7.63-25.47-18.78-25.47Zm2.12,50.22c-19.95,0-27.11-14.67-27.11-28.4,0-9.62,3.87-17,11.62-22.29a35.21,35.21,0,0,1,17.95-5.28c15.25,0,25.93,10.91,25.93,26.63,0,10.68-4.22,19.13-12.32,24.29a32.55,32.55,0,0,1-16.08,5.05Zm-209.1-50.23a10.92,10.92,0,0,0-6.34,1.76c-4.58,2.82-6.92,8.45-6.92,16.67,0,15.37,7.74,26.17,18.77,26.17a11.93,11.93,0,0,0,8.1-2.82c3.4-2.82,5.16-8.45,5.16-16.31,0-15.26-7.51-25.47-18.77-25.47Zm2.11,50.23c-20,0-27.11-14.67-27.11-28.4,0-9.62,3.87-17,11.62-22.29a35.21,35.21,0,0,1,17.95-5.28c15.26,0,25.93,10.91,25.93,26.63,0,10.68-4.22,19.13-12.32,24.29a31.77,31.77,0,0,1-16.07,5.05ZM72.21,283.37a4.94,4.94,0,0,1-.35-2.7,3.9,3.9,0,0,1,.35-1.75,45,45,0,0,0,5.16-1.06c2.35-.59,3.29-1.88,3.4-4.81.36-7,.36-20.42.24-29.69v-.24a3.55,3.55,0,0,0-1.29-3.28,26.53,26.53,0,0,0-7-3.05c-1.06-.35-1.76-.94-1.65-1.64s.71-1.53,2.23-1.76a86.36,86.36,0,0,0,18-4.58,2.93,2.93,0,0,1,.58,1.88L91.69,232c-.12,1.29-.24,2.82-.24,4.34a.91.91,0,0,0,.94.82,1.75,1.75,0,0,0,.7-.23c7.51-5.87,14.32-8,17.84-8,5.75,0,10.21,2.7,13.61,8.33a.9.9,0,0,0,.82.47.85.85,0,0,0,.71-.35c6.92-5.28,13.84-8.45,18.42-8.45,10.91,0,17.36,8.09,17.36,21.82,0,3.87,0,8.92-.11,13.5,0,4.1-.12,7.86-.12,10.56a3.69,3.69,0,0,0,2.11,2.81c1.64.82,3.87,1.18,6.81,1.65h.12a9.48,9.48,0,0,1-.71,4.46,28.07,28.07,0,0,1-2.93-.12c-3-.16-6-.24-8.92-.24-7.27,0-11,.12-14.67.36a11.52,11.52,0,0,1,0-4.46,36.35,36.35,0,0,0,4.46-1.06c2.35-.7,2.94-1.76,3.05-4.81,0-2.23.47-21.24-.23-25.82s-4.23-10.2-12-10.2a20.8,20.8,0,0,0-12,4.57,2.13,2.13,0,0,0-.47,1.17v.12a54.12,54.12,0,0,1,.47,9.62v7.63c0,5.28-.12,10.21,0,14,0,2.59,1.53,3.17,2.82,3.64.7.12,1.17.24,1.76.35,1.05.24,2.11.48,3.75.83a6.19,6.19,0,0,1-.12,3.28,2.17,2.17,0,0,1-.47,1.18c-4-.12-8.09-.24-14.08-.24-1.76,0-4.81.12-7.39.12-2.11,0-4.11.12-5.28.12a6.23,6.23,0,0,1-.35-2.35,3.59,3.59,0,0,1,.47-2.11,7.73,7.73,0,0,1,1.64-.24c1.41-.23,2.58-.47,3.76-.7,2-.59,2.7-1.65,2.81-4.23.35-5.86.71-22.64-.11-26.87-1.41-6.8-5.28-10.21-11.5-10.21-3.64,0-8.22,1.76-12,4.58a3.79,3.79,0,0,0-1.06,2.7v6.92c0,8.45,0,19,.12,23.59.12,1.4.58,3.05,3.28,3.63a24.11,24.11,0,0,0,2.7.48l2.11.35a9.79,9.79,0,0,1-.35,4.46c-1.17,0-2.58-.12-4.22-.12-2.47-.12-5.63-.24-9.15-.24-4.11,0-7,.12-9.39.24a27.75,27.75,0,0,0-4.34-.24Z" transform="translate(0 0)"/></svg>